<svg width="38" height="37" viewBox="0 0 38 37" fill="none" xmlns="http://www.w3.org/2000/svg">
<path d="M36.2641 24.1457V33.404C36.2641 34.0178 36.0164 34.6065 35.5755 35.0406C35.1346 35.4747 34.5367 35.7185 33.9132 35.7185H24.5094M24.5094 1H33.9132C34.5367 1 35.1346 1.24386 35.5755 1.67792C36.0164 2.11199 36.2641 2.70071 36.2641 3.31457V12.5728M1 12.5728V3.31457C1 2.70071 1.24769 2.11199 1.68857 1.67792C2.12946 1.24386 2.72743 1 3.35094 1H12.7547M12.7547 35.7185H3.35094C2.72743 35.7185 2.12946 35.4747 1.68857 35.0406C1.24769 34.6065 1 34.0178 1 33.404V24.1457M28.0358 21.2525V18.9379C28.0358 13.2086 23.8041 8.52235 18.632 8.52235C13.46 8.52235 9.22829 13.2086 9.22829 18.9379V28.1962M28.0358 28.1962V25.8816M13.9302 25.8816V28.1962M23.3339 28.1962V20.0952C23.3339 16.9119 21.2181 14.3088 18.632 14.3088C16.046 14.3088 13.9302 16.9119 13.9302 20.0952V21.2525M18.632 27.0389V28.1962M18.632 18.9379V22.4098" stroke="white" stroke-width="2" stroke-linecap="round" stroke-linejoin="round"/>
</svg>
