<svg width="20" height="20" viewBox="0 0 20 20" fill="none" xmlns="http://www.w3.org/2000/svg">
<path d="M18.125 2.5V7.5C18.125 7.845 17.845 8.125 17.5 8.125C17.155 8.125 16.875 7.845 16.875 7.5V4.0092L12.1084 8.77584C11.9867 8.8975 11.8267 8.95915 11.6667 8.95915C11.5067 8.95915 11.3466 8.89834 11.225 8.77584C10.9808 8.53167 10.9808 8.13581 11.225 7.89164L15.9916 3.125H12.5C12.155 3.125 11.875 2.845 11.875 2.5C11.875 2.155 12.155 1.875 12.5 1.875H17.5C17.5817 1.875 17.6626 1.89175 17.7393 1.92342C17.8918 1.98675 18.0134 2.10843 18.0776 2.26176C18.1084 2.33759 18.125 2.41833 18.125 2.5ZM7.89164 11.225L3.125 15.9916V12.5C3.125 12.155 2.845 11.875 2.5 11.875C2.155 11.875 1.875 12.155 1.875 12.5V17.5C1.875 17.5817 1.89175 17.6626 1.92342 17.7393C1.98675 17.8918 2.10824 18.0132 2.26074 18.0766C2.33741 18.1082 2.41833 18.125 2.5 18.125H7.5C7.845 18.125 8.125 17.845 8.125 17.5C8.125 17.155 7.845 16.875 7.5 16.875H4.0092L8.77584 12.1084C9.02 11.8642 9.02 11.4683 8.77584 11.2242C8.53167 10.98 8.13581 10.9808 7.89164 11.225Z" fill="white"/>
</svg>
