<svg width="20" height="12" viewBox="0 0 20 12" fill="none" xmlns="http://www.w3.org/2000/svg">
<path d="M8.99941 12.0003C8.76141 12.0003 8.4754 11.8932 8.2874 11.7022L4.2874 7.64027C3.8994 7.24627 3.9044 6.61326 4.2984 6.22626C4.6914 5.83926 5.3244 5.84325 5.7124 6.23725L9.0054 9.58124L18.2934 0.294257C18.6844 -0.0967429 19.3164 -0.0967429 19.7074 0.294257C20.0984 0.684257 20.0984 1.31826 19.7074 1.70826L9.7074 11.7083C9.5194 11.8953 9.26441 12.0003 8.99941 12.0003ZM9.70641 7.70725L15.7064 1.70725C16.0974 1.31725 16.0974 0.68325 15.7064 0.29325C15.3154 -0.09775 14.6834 -0.09775 14.2924 0.29325L8.29241 6.29325C7.90141 6.68325 7.90141 7.31725 8.29241 7.70725C8.48741 7.90225 8.74341 8.00025 8.99941 8.00025C9.25541 8.00025 9.51141 7.90225 9.70641 7.70725ZM5.7014 11.7123C6.0954 11.3243 6.0994 10.6913 5.7124 10.2983L1.7124 6.23826C1.3244 5.84526 0.691403 5.84025 0.298403 6.22825C-0.0955972 6.61625 -0.0995988 7.24925 0.287401 7.64225L4.2874 11.7022C4.4824 11.9002 4.74141 12.0003 4.99941 12.0003C5.25241 12.0003 5.5064 11.9043 5.7014 11.7123Z" fill="white"/>
</svg>
