<svg width="37" height="34" viewBox="0 0 37 34" fill="none" xmlns="http://www.w3.org/2000/svg">
<path d="M19.7833 21.7833L15.55 17.6L15.6 17.55C18.5 14.3167 20.5667 10.6 21.7833 6.66667H26.6667V3.33333H15V0H11.6667V3.33333H0V6.65H18.6167C17.5 9.86667 15.7333 12.9167 13.3333 15.5833C11.7833 13.8667 10.5 11.9833 9.48333 10H6.15C7.36667 12.7167 9.03333 15.2833 11.1167 17.6L2.63333 25.9667L5 28.3333L13.3333 20L18.5167 25.1833L19.7833 21.7833ZM29.1667 13.3333H25.8333L18.3333 33.3333H21.6667L23.5333 28.3333H31.45L33.3333 33.3333H36.6667L29.1667 13.3333ZM24.8 25L27.5 17.7833L30.2 25H24.8Z" fill="black"/>
</svg>
