<svg width="40" height="40" viewBox="0 0 40 40" fill="none" xmlns="http://www.w3.org/2000/svg">
<path d="M8.18833 4.43C11.6467 3.98 15.1717 3.75 18.75 3.75C22.3283 3.75 25.8533 3.98167 29.3117 4.43C32.515 4.84667 34.7967 7.53167 34.9867 10.6417C34.4295 10.456 33.852 10.338 33.2667 10.29C28.5969 9.90235 23.9031 9.90235 19.2333 10.29C15.3033 10.6167 12.5 13.94 12.5 17.68V24.8233C12.4984 26.1963 12.8763 27.543 13.5919 28.7147C14.3074 29.8865 15.3329 30.8377 16.555 31.4633L12.1333 35.8833C11.9585 36.0579 11.7359 36.1768 11.4936 36.2249C11.2512 36.2731 11.0001 36.2483 10.7718 36.1538C10.5435 36.0593 10.3484 35.8992 10.211 35.6939C10.0736 35.4885 10.0002 35.2471 10 35V28.2833C9.39533 28.219 8.7914 28.1479 8.18833 28.07C4.84167 27.6333 2.5 24.7217 2.5 21.4367V11.0633C2.5 7.78 4.84167 4.865 8.18833 4.43Z" fill="#06050B"/>
<path d="M26.25 12.5C23.9567 12.5 21.685 12.595 19.44 12.7817C16.8733 12.995 15 15.1717 15 17.6817V24.8233C15 27.335 16.88 29.5133 19.45 29.7233C21.5217 29.8933 23.6167 29.985 25.73 29.9983L30.3667 34.6333C30.5415 34.8079 30.7641 34.9268 31.0064 34.9749C31.2488 35.0231 31.4999 34.9983 31.7282 34.9038C31.9565 34.8093 32.1516 34.6493 32.289 34.4439C32.4264 34.2385 32.4998 33.9971 32.5 33.75V29.7667L33.05 29.7233C35.62 29.515 37.5 27.335 37.5 24.8233V17.68C37.5 15.1717 35.625 12.995 33.06 12.78C30.7948 12.5927 28.5229 12.4993 26.25 12.5Z" fill="#06050B"/>
</svg>
