<svg width="40" height="40" viewBox="0 0 40 40" fill="none" xmlns="http://www.w3.org/2000/svg">
<path fill-rule="evenodd" clip-rule="evenodd" d="M7.92506 16.7656C8.49253 14.6458 9.60804 12.7128 11.1594 11.1608C12.7108 9.60884 14.6435 8.49263 16.763 7.9244C18.8826 7.35616 21.1144 7.35592 23.2341 7.9237C25.3538 8.49148 27.2866 9.60727 28.8384 11.1589L32.0101 14.3306H26.7051C26.3735 14.3306 26.0556 14.4623 25.8212 14.6967C25.5868 14.9311 25.4551 15.249 25.4551 15.5806C25.4551 15.9121 25.5868 16.23 25.8212 16.4644C26.0556 16.6989 26.3735 16.8306 26.7051 16.8306H35.0251C35.3566 16.8306 35.6745 16.6989 35.9089 16.4644C36.1434 16.23 36.2751 15.9121 36.2751 15.5806V7.26056C36.2751 6.92904 36.1434 6.6111 35.9089 6.37668C35.6745 6.14226 35.3566 6.01056 35.0251 6.01056C34.6935 6.01056 34.3756 6.14226 34.1412 6.37668C33.9068 6.6111 33.7751 6.92904 33.7751 7.26056V12.5606L30.6084 9.3939C28.7467 7.53132 26.4274 6.1917 23.8838 5.50973C21.3401 4.82776 18.6618 4.82748 16.118 5.50891C13.5742 6.19034 11.2547 7.52946 9.39254 9.39164C7.53043 11.2538 6.19139 13.5734 5.51006 16.1172C5.46759 16.2759 5.4568 16.4414 5.4783 16.6042C5.4998 16.7671 5.55316 16.9241 5.63534 17.0664C5.71752 17.2086 5.82691 17.3332 5.95726 17.4332C6.08761 17.5331 6.23637 17.6064 6.39506 17.6489C6.55374 17.6914 6.71923 17.7021 6.88208 17.6807C7.04493 17.6592 7.20195 17.6058 7.34418 17.5236C7.48641 17.4414 7.61106 17.332 7.71101 17.2017C7.81096 17.0713 7.88426 16.9226 7.92672 16.7639L7.92506 16.7656ZM33.6051 22.3522C33.4465 22.3096 33.2811 22.2987 33.1183 22.32C32.9555 22.3414 32.7985 22.3946 32.6562 22.4766C32.514 22.5586 32.3893 22.6679 32.2893 22.7981C32.1893 22.9283 32.1159 23.077 32.0734 23.2356C31.5059 25.3553 30.3904 27.2884 28.839 28.8403C27.2876 30.3923 25.355 31.5085 23.2354 32.0767C21.1158 32.645 18.884 32.6452 16.7643 32.0774C14.6447 31.5096 12.7118 30.3939 11.1601 28.8422L7.99006 25.6706H13.2951C13.6266 25.6706 13.9445 25.5389 14.1789 25.3044C14.4134 25.07 14.5451 24.7521 14.5451 24.4206C14.5451 24.089 14.4134 23.7711 14.1789 23.5367C13.9445 23.3023 13.6266 23.1706 13.2951 23.1706H4.97339C4.64187 23.1706 4.32393 23.3023 4.08951 23.5367C3.85508 23.7711 3.72339 24.089 3.72339 24.4206V32.7406C3.72339 33.0721 3.85508 33.39 4.08951 33.6244C4.32393 33.8589 4.64187 33.9906 4.97339 33.9906C5.30491 33.9906 5.62285 33.8589 5.85727 33.6244C6.09169 33.39 6.22339 33.0721 6.22339 32.7406V27.4406L9.39006 30.6072C11.2519 32.4698 13.5713 33.8094 16.115 34.4912C18.6588 35.1731 21.3372 35.1732 23.881 34.4916C26.4248 33.81 28.7443 32.4707 30.6064 30.6083C32.4684 28.746 33.8073 26.4262 34.4884 23.8822C34.5739 23.5622 34.5289 23.2213 34.3633 22.9344C34.1977 22.6476 33.925 22.4382 33.6051 22.3522Z" fill="black"/>
</svg>
