<svg width="40" height="40" viewBox="0 0 40 40" fill="none" xmlns="http://www.w3.org/2000/svg">
<g clip-path="url(#clip0_4906_3465)">
<path d="M33.333 11.666L34.8997 8.23268L38.333 6.66602L34.8997 5.09935L33.333 1.66602L31.7663 5.09935L28.333 6.66602L31.7663 8.23268L33.333 11.666Z" fill="black"/>
<path d="M14.167 11.666L15.7337 8.23268L19.167 6.66602L15.7337 5.09935L14.167 1.66602L12.6003 5.09935L9.16699 6.66602L12.6003 8.23268L14.167 11.666Z" fill="black"/>
<path d="M33.333 20.832L31.7663 24.2654L28.333 25.832L31.7663 27.3987L33.333 30.832L34.8997 27.3987L38.333 25.832L34.8997 24.2654L33.333 20.832Z" fill="black"/>
<path d="M29.5166 15.2L24.7999 10.4833C24.4666 10.1667 24.0499 10 23.6166 10C23.1833 10 22.7666 10.1667 22.4333 10.4833L3.8166 29.1C3.1666 29.75 3.1666 30.8 3.8166 31.45L8.53327 36.1667C8.8666 36.5 9.28327 36.6667 9.7166 36.6667C10.1499 36.6667 10.5666 36.5 10.8999 36.1833L29.5166 17.5667C30.1666 16.9167 30.1666 15.85 29.5166 15.2ZM23.6166 14.0333L25.9666 16.3833L24.0166 18.3333L21.6666 15.9833L23.6166 14.0333ZM9.7166 32.65L7.3666 30.3L19.3166 18.3333L21.6666 20.6833L9.7166 32.65Z" fill="black"/>
</g>
<defs>
<clipPath id="clip0_4906_3465">
<rect width="40" height="40" fill="white"/>
</clipPath>
</defs>
</svg>
