<svg width="42" height="42" viewBox="0 0 42 42" fill="none" xmlns="http://www.w3.org/2000/svg">
<path d="M21 34.125C28.2487 34.125 34.125 28.2487 34.125 21C34.125 13.7513 28.2487 7.875 21 7.875C13.7513 7.875 7.875 13.7513 7.875 21C7.875 28.2487 13.7513 34.125 21 34.125Z" stroke="#06050B" stroke-width="2.5" stroke-linecap="round" stroke-linejoin="round"/>
<path d="M21 26.25C23.8995 26.25 26.25 23.8995 26.25 21C26.25 18.1005 23.8995 15.75 21 15.75C18.1005 15.75 15.75 18.1005 15.75 21C15.75 23.8995 18.1005 26.25 21 26.25Z" stroke="#06050B" stroke-width="2.5" stroke-linecap="round" stroke-linejoin="round"/>
<path d="M21 7V3.5" stroke="#06050B" stroke-width="2.5" stroke-linecap="round" stroke-linejoin="round"/>
<path d="M7 21H3.5" stroke="#06050B" stroke-width="2.5" stroke-linecap="round" stroke-linejoin="round"/>
<path d="M21 35V38.5" stroke="#06050B" stroke-width="2.5" stroke-linecap="round" stroke-linejoin="round"/>
<path d="M35 21H38.5" stroke="#06050B" stroke-width="2.5" stroke-linecap="round" stroke-linejoin="round"/>
</svg>
