<svg width="35" height="30" viewBox="0 0 35 30" fill="none" xmlns="http://www.w3.org/2000/svg">
<path d="M9.98835 27.5C9.28002 27.5 8.62169 27.1067 8.36335 26.4467C7.79125 24.9905 7.49837 23.4396 7.50002 21.875C7.50002 18.9583 8.49835 16.2783 10.17 14.1517C10.4217 13.8317 10.7917 13.6367 11.17 13.49C11.9584 13.185 12.6534 12.6333 13.19 11.95C14.4838 10.2994 16.1079 8.93701 17.9584 7.95C19.1634 7.31 20.2084 6.35667 20.7134 5.09167C21.068 4.20542 21.2502 3.25958 21.25 2.305V1.25C21.25 0.918479 21.3817 0.600537 21.6161 0.366116C21.8506 0.131696 22.1685 0 22.5 0C23.4946 0 24.4484 0.395088 25.1517 1.09835C25.8549 1.80161 26.25 2.75544 26.25 3.75C26.25 5.67 25.8167 7.48833 25.045 9.11333C24.6017 10.0433 25.2234 11.25 26.2534 11.25H31.4634C33.1734 11.25 34.705 12.4067 34.8867 14.1083C34.9617 14.8117 35 15.525 35 16.25C35.0069 20.8106 33.4484 25.2354 30.585 28.785C29.9384 29.5883 28.94 30 27.91 30H21.2167C20.4117 30 19.61 29.87 18.845 29.6167L13.655 27.8833C12.8902 27.629 12.0894 27.4995 11.2834 27.5H9.98835ZM1.38502 14.545C0.466551 16.8795 -0.0033303 19.3663 1.77666e-05 21.875C-0.00208716 23.8555 0.289989 25.8253 0.866684 27.72C1.30002 29.1367 2.67502 30 4.15668 30H5.66669C6.40835 30 6.86668 29.17 6.53835 28.5033C5.52192 26.4418 4.99491 24.1735 4.99835 21.875C4.99835 19.0283 5.79168 16.3667 7.16835 14.0983C7.57668 13.4267 7.12169 12.5 6.33502 12.5H4.58335C3.19668 12.5 1.89502 13.255 1.38502 14.545Z" fill="#06050B"/>
</svg>
