<svg width="40" height="40" viewBox="0 0 40 40" fill="none" xmlns="http://www.w3.org/2000/svg">
<g clip-path="url(#clip0_4906_3548)">
<path d="M33.5 12.5L20 5L6.5 12.5V27.5L20 35L33.5 27.5V12.5ZM20 8.44L28.86 13.36L24.34 15.86C23.26 14.72 21.72 14 20 14C18.28 14 16.74 14.72 15.66 15.86L11.14 13.36L20 8.44ZM18.5 30.74L9.5 25.74V15.88L14.2 18.48C14.06 18.98 14 19.48 14 20C14 22.8 15.92 25.14 18.5 25.82V30.74ZM17 20C17 18.34 18.34 17 20 17C21.66 17 23 18.34 23 20C23 21.66 21.66 23 20 23C18.34 23 17 21.66 17 20ZM21.5 30.74V25.82C24.08 25.14 26 22.8 26 20C26 19.48 25.94 18.98 25.8 18.48L30.5 15.88V25.74L21.5 30.74Z" fill="black"/>
</g>
<defs>
<clipPath id="clip0_4906_3548">
<rect width="40" height="40" fill="white"/>
</clipPath>
</defs>
</svg>
