<svg width="40" height="40" viewBox="0 0 40 40" fill="none" xmlns="http://www.w3.org/2000/svg">
<path fill-rule="evenodd" clip-rule="evenodd" d="M26.2499 7.50042C26.2498 6.33812 26.6546 5.2121 27.3948 4.31595C28.135 3.4198 29.1642 2.8095 30.3056 2.58999C31.447 2.37048 32.6292 2.55546 33.6489 3.11314C34.6687 3.67082 35.4623 4.56635 35.8934 5.64577C36.3244 6.72519 36.3659 7.92105 36.0108 9.02776C35.6556 10.1345 34.926 11.0829 33.9474 11.7099C32.9688 12.337 31.8022 12.6035 30.6484 12.4637C29.4945 12.3239 28.4254 11.7864 27.6249 10.9438L13.5899 18.7421C13.8043 19.5673 13.8043 20.4336 13.5899 21.2588L27.6249 29.0571C28.4636 28.1752 29.5952 27.6296 30.8075 27.5224C32.0198 27.4152 33.2296 27.7539 34.2101 28.4749C35.1905 29.1959 35.8743 30.2498 36.1333 31.4389C36.3923 32.6281 36.2087 33.8708 35.6169 34.9343C35.0251 35.9977 34.0658 36.8088 32.9187 37.2155C31.7716 37.6222 30.5156 37.5966 29.3861 37.1434C28.2566 36.6903 27.3312 35.8407 26.7832 34.754C26.2353 33.6673 26.1026 32.418 26.4099 31.2404L12.3749 23.4438C11.6863 24.1687 10.7962 24.6706 9.81948 24.8846C8.84277 25.0986 7.82434 25.0148 6.89573 24.6441C5.96711 24.2734 5.17097 23.6327 4.61013 22.805C4.04929 21.9772 3.74951 21.0003 3.74951 20.0004C3.74951 19.0005 4.04929 18.0236 4.61013 17.1959C5.17097 16.3681 5.96711 15.7275 6.89573 15.3568C7.82434 14.9861 8.84277 14.9023 9.81948 15.1162C10.7962 15.3302 11.6863 15.8321 12.3749 16.5571L26.4099 8.75875C26.3034 8.3478 26.2496 7.92496 26.2499 7.50042Z" fill="black"/>
</svg>
