<svg width="40" height="40" viewBox="0 0 40 40" fill="none" xmlns="http://www.w3.org/2000/svg">
<g clip-path="url(#clip0_4906_3427)">
<path d="M33.3337 15.0007V11.6673C33.3337 9.83398 31.8337 8.33398 30.0003 8.33398H25.0003C25.0003 5.56732 22.767 3.33398 20.0003 3.33398C17.2337 3.33398 15.0003 5.56732 15.0003 8.33398H10.0003C8.16699 8.33398 6.66699 9.83398 6.66699 11.6673V15.0007C3.90033 15.0007 1.66699 17.234 1.66699 20.0007C1.66699 22.7673 3.90033 25.0007 6.66699 25.0007V31.6673C6.66699 33.5007 8.16699 35.0007 10.0003 35.0007H30.0003C31.8337 35.0007 33.3337 33.5007 33.3337 31.6673V25.0007C36.1003 25.0007 38.3337 22.7673 38.3337 20.0007C38.3337 17.234 36.1003 15.0007 33.3337 15.0007ZM30.0003 31.6673H10.0003V11.6673H30.0003V31.6673ZM15.0003 21.6673C13.617 21.6673 12.5003 20.5507 12.5003 19.1673C12.5003 17.784 13.617 16.6673 15.0003 16.6673C16.3837 16.6673 17.5003 17.784 17.5003 19.1673C17.5003 20.5507 16.3837 21.6673 15.0003 21.6673ZM27.5003 19.1673C27.5003 20.5507 26.3837 21.6673 25.0003 21.6673C23.617 21.6673 22.5003 20.5507 22.5003 19.1673C22.5003 17.784 23.617 16.6673 25.0003 16.6673C26.3837 16.6673 27.5003 17.784 27.5003 19.1673ZM13.3337 25.0007H26.667V28.334H13.3337V25.0007Z" fill="black"/>
</g>
<defs>
<clipPath id="clip0_4906_3427">
<rect width="40" height="40" fill="white"/>
</clipPath>
</defs>
</svg>
