<svg width="40" height="40" viewBox="0 0 40 40" fill="none" xmlns="http://www.w3.org/2000/svg">
<g clip-path="url(#clip0_4906_3512)">
<path d="M18.333 23.334H14.9997C14.9997 15.0507 21.7163 8.33398 29.9997 8.33398V11.6673C23.5497 11.6673 18.333 16.884 18.333 23.334ZM29.9997 18.334V15.0007C25.3997 15.0007 21.6663 18.734 21.6663 23.334H24.9997C24.9997 20.5673 27.233 18.334 29.9997 18.334ZM11.6663 6.66732C11.6663 4.81732 10.183 3.33398 8.33301 3.33398C6.48301 3.33398 4.99967 4.81732 4.99967 6.66732C4.99967 8.51732 6.48301 10.0007 8.33301 10.0007C10.183 10.0007 11.6663 8.51732 11.6663 6.66732ZM19.083 7.50065H15.7497C15.3497 9.86732 13.3163 11.6673 10.833 11.6673H5.83301C4.44967 11.6673 3.33301 12.784 3.33301 14.1673V18.334H13.333V14.5673C16.433 13.584 18.7497 10.8507 19.083 7.50065ZM31.6663 28.334C33.5163 28.334 34.9997 26.8507 34.9997 25.0007C34.9997 23.1507 33.5163 21.6673 31.6663 21.6673C29.8163 21.6673 28.333 23.1507 28.333 25.0007C28.333 26.8507 29.8163 28.334 31.6663 28.334ZM34.1663 30.0007H29.1663C26.683 30.0007 24.6497 28.2007 24.2497 25.834H20.9163C21.2497 29.184 23.5663 31.9173 26.6663 32.9007V36.6673H36.6663V32.5007C36.6663 31.1173 35.5497 30.0007 34.1663 30.0007Z" fill="#06050B"/>
</g>
<defs>
<clipPath id="clip0_4906_3512">
<rect width="40" height="40" fill="white"/>
</clipPath>
</defs>
</svg>
