<svg width="40" height="40" viewBox="0 0 40 40" fill="none" xmlns="http://www.w3.org/2000/svg">
<path d="M26.6667 13.3333H13.3333V26.6667H26.6667V13.3333ZM22.2222 22.2222H17.7778V17.7778H22.2222V22.2222ZM40 17.7778V13.3333H35.5556V8.88889C35.5556 6.44444 33.5556 4.44444 31.1111 4.44444H26.6667V0H22.2222V4.44444H17.7778V0H13.3333V4.44444H8.88889C6.44444 4.44444 4.44444 6.44444 4.44444 8.88889V13.3333H0V17.7778H4.44444V22.2222H0V26.6667H4.44444V31.1111C4.44444 33.5556 6.44444 35.5556 8.88889 35.5556H13.3333V40H17.7778V35.5556H22.2222V40H26.6667V35.5556H31.1111C33.5556 35.5556 35.5556 33.5556 35.5556 31.1111V26.6667H40V22.2222H35.5556V17.7778H40ZM31.1111 31.1111H8.88889V8.88889H31.1111V31.1111Z" fill="black"/>
</svg>
