<svg width="42" height="42" viewBox="0 0 42 42" fill="none" xmlns="http://www.w3.org/2000/svg">
<path d="M31.4996 12.53C31.3946 12.5125 31.2721 12.5125 31.1671 12.53C28.7521 12.4425 26.8271 10.465 26.8271 8.015C26.8271 5.5125 28.8396 3.5 31.3421 3.5C33.8446 3.5 35.8571 5.53 35.8571 8.015C35.8396 10.465 33.9146 12.4425 31.4996 12.53Z" stroke="#06050B" stroke-width="2.5" stroke-linecap="round" stroke-linejoin="round"/>
<path d="M29.697 25.2703C32.0945 25.6728 34.737 25.2528 36.592 24.0103C39.0595 22.3653 39.0595 19.6703 36.592 18.0253C34.7195 16.7828 32.042 16.3628 29.6445 16.7828" stroke="#06050B" stroke-width="2.5" stroke-linecap="round" stroke-linejoin="round"/>
<path d="M10.4474 12.53C10.5524 12.5125 10.6749 12.5125 10.7799 12.53C13.1949 12.4425 15.1199 10.465 15.1199 8.015C15.1199 5.5125 13.1074 3.5 10.6049 3.5C8.10234 3.5 6.08984 5.53 6.08984 8.015C6.10734 10.465 8.03234 12.4425 10.4474 12.53Z" stroke="#06050B" stroke-width="2.5" stroke-linecap="round" stroke-linejoin="round"/>
<path d="M12.2505 25.2703C9.85301 25.6728 7.21051 25.2528 5.35551 24.0103C2.88801 22.3653 2.88801 19.6703 5.35551 18.0253C7.22801 16.7828 9.9055 16.3628 12.303 16.7828" stroke="#06050B" stroke-width="2.5" stroke-linecap="round" stroke-linejoin="round"/>
<path d="M20.9996 25.6023C20.8946 25.5848 20.7721 25.5848 20.6671 25.6023C18.2521 25.5148 16.3271 23.5373 16.3271 21.0873C16.3271 18.5848 18.3396 16.5723 20.8421 16.5723C23.3446 16.5723 25.3571 18.6023 25.3571 21.0873C25.3396 23.5373 23.4146 25.5323 20.9996 25.6023Z" stroke="#06050B" stroke-width="2.5" stroke-linecap="round" stroke-linejoin="round"/>
<path d="M15.9073 31.1159C13.4398 32.7609 13.4398 35.4559 15.9073 37.1009C18.7073 38.9734 23.2923 38.9734 26.0923 37.1009C28.5598 35.4559 28.5598 32.7609 26.0923 31.1159C23.3098 29.2609 18.7073 29.2609 15.9073 31.1159Z" stroke="#06050B" stroke-width="2.5" stroke-linecap="round" stroke-linejoin="round"/>
</svg>
