<svg width="24" height="24" viewBox="0 0 24 24" fill="none" xmlns="http://www.w3.org/2000/svg">
<path fill-rule="evenodd" clip-rule="evenodd" d="M3 1.5C3 2.32842 2.32842 3 1.5 3C0.67158 3 0 2.32842 0 1.5C0 0.67158 0.67158 0 1.5 0C2.32842 0 3 0.67158 3 1.5ZM3 12C3 12.8285 2.32842 13.5 1.5 13.5C0.67158 13.5 0 12.8285 0 12C0 11.1715 0.67158 10.5 1.5 10.5C2.32842 10.5 3 11.1715 3 12ZM1.5 24C2.32842 24 3 23.3284 3 22.5C3 21.6716 2.32842 21 1.5 21C0.67158 21 0 21.6716 0 22.5C0 23.3284 0.67158 24 1.5 24ZM13.5 12C13.5 12.8285 12.8285 13.5 12 13.5C11.1715 13.5 10.5 12.8285 10.5 12C10.5 11.1715 11.1715 10.5 12 10.5C12.8285 10.5 13.5 11.1715 13.5 12ZM12 3C12.8285 3 13.5 2.32842 13.5 1.5C13.5 0.67158 12.8285 0 12 0C11.1715 0 10.5 0.67158 10.5 1.5C10.5 2.32842 11.1715 3 12 3ZM13.5 22.5C13.5 23.3284 12.8285 24 12 24C11.1715 24 10.5 23.3284 10.5 22.5C10.5 21.6716 11.1715 21 12 21C12.8285 21 13.5 21.6716 13.5 22.5ZM22.5 13.5C23.3284 13.5 24 12.8285 24 12C24 11.1715 23.3284 10.5 22.5 10.5C21.6716 10.5 21 11.1715 21 12C21 12.8285 21.6716 13.5 22.5 13.5ZM24 1.5C24 2.32842 23.3284 3 22.5 3C21.6716 3 21 2.32842 21 1.5C21 0.67158 21.6716 0 22.5 0C23.3284 0 24 0.67158 24 1.5ZM22.5 24C23.3284 24 24 23.3284 24 22.5C24 21.6716 23.3284 21 22.5 21C21.6716 21 21 21.6716 21 22.5C21 23.3284 21.6716 24 22.5 24Z" fill="#06050B"/>
</svg>
