<svg width="65" height="65" viewBox="0 0 65 65" fill="none" xmlns="http://www.w3.org/2000/svg">
<g clip-path="url(#clip0_4001_8003)">
<path d="M14.3316 34.1244L34.5747 13.9029C35.9422 12.5426 37.7927 11.779 39.7216 11.779C41.6505 11.779 43.501 12.5426 44.8686 13.9029L46.4418 15.4761L49.5953 12.3225L48.0221 10.7422C45.8162 8.54092 42.8272 7.30469 39.7109 7.30469C36.5945 7.30469 33.6055 8.54092 31.3996 10.7422L11.1709 30.9708L14.3316 34.1244Z" fill="#06050B"/>
<path d="M41.356 20.5613L38.2024 17.4077L17.9522 37.6579C16.5843 39.0249 14.7294 39.7925 12.7955 39.7918C10.8617 39.7911 9.00727 39.0222 7.64031 37.6543C6.27335 36.2864 5.50577 34.4315 5.50645 32.4976C5.50712 30.5638 6.27599 28.7094 7.6439 27.3425L25.1141 9.87229L21.9606 6.71875L4.49036 24.1889C3.3782 25.2753 2.49265 26.5715 1.885 28.0026C1.27735 29.4336 0.95969 30.971 0.950405 32.5256C0.941119 34.0803 1.2404 35.6214 1.83091 37.0596C2.42142 38.4978 3.29142 39.8045 4.39052 40.9041C5.48963 42.0037 6.79598 42.8742 8.23392 43.4653C9.67185 44.0565 11.2128 44.3564 12.7675 44.3478C14.3222 44.3392 15.8597 44.0222 17.291 43.4152C18.7223 42.8081 20.0189 41.9232 21.1057 40.8115L41.356 20.5613ZM61.5128 24.1889C59.3059 21.9895 56.3172 20.7544 53.2015 20.7544C50.0858 20.7544 47.0971 21.9895 44.8902 24.1889L24.64 44.4391L27.7936 47.5927L48.0438 27.3425C49.0639 26.3244 50.3628 25.6315 51.7764 25.3512C53.1901 25.071 54.6552 25.2159 55.9865 25.7678C57.3178 26.3197 58.4557 27.2538 59.2565 28.4521C60.0572 29.6503 60.4849 31.059 60.4855 32.5002C60.4892 33.4603 60.3004 34.4114 59.9303 35.2973C59.5601 36.1832 59.0162 36.9859 58.3305 37.6579L40.8818 55.1281L44.0426 58.2817L61.5128 40.8115C63.714 38.6055 64.9502 35.6165 64.9502 32.5002C64.9502 29.3839 63.714 26.3948 61.5128 24.1889Z" fill="#06050B"/>
<path d="M51.6713 30.875L31.4211 51.118C30.0517 52.4831 28.197 53.2496 26.2634 53.2496C24.3298 53.2496 22.4751 52.4831 21.1057 51.118L19.5325 49.5376L16.3789 52.6912L17.9521 54.2715C20.159 56.471 23.1477 57.706 26.2634 57.706C29.3791 57.706 32.3678 56.471 34.5747 54.2715L54.8249 34.0141L51.6713 30.875Z" fill="#06050B"/>
</g>
<defs>
<clipPath id="clip0_4001_8003">
<rect width="65" height="65" fill="white"/>
</clipPath>
</defs>
</svg>
