<svg width="64" height="64" viewBox="0 0 64 64" fill="none" xmlns="http://www.w3.org/2000/svg">
<path d="M46.9591 30.2231C47.3753 30.1637 47.851 30.1637 48.2673 30.2231C48.5646 29.4501 48.5646 28.5582 48.3267 27.7852C48.0294 26.2987 47.6131 25.4067 46.7212 25.5851C45.8293 25.7635 45.8293 26.7743 46.1266 28.2609C46.2455 28.915 46.4834 29.6285 46.9591 30.2231ZM39.5858 31.4124C40.1804 31.7097 40.5967 31.8881 40.7156 31.7097C40.8345 31.5313 40.7751 31.4124 40.6561 31.1745C40.2399 30.5799 39.7048 30.1637 39.0506 29.8664C37.6236 29.2718 36.0181 29.4501 34.8288 30.4015C34.4126 30.6988 34.0558 31.1151 34.0558 31.3529C34.0558 31.4124 34.1153 31.4718 34.2937 31.5313C34.6505 31.5908 35.8397 30.9961 37.2073 30.8772C37.9803 30.8178 38.8128 30.9961 39.5858 31.4124ZM38.3371 32.0664C37.7425 32.1259 37.2668 32.3637 36.7911 32.7206C36.5533 32.9584 36.3748 33.1367 36.3748 33.3152C36.3748 33.3746 36.3748 33.3746 36.4343 33.4341C36.4938 33.4936 36.4938 33.4936 36.5533 33.4936C36.7316 33.4341 36.9695 33.3746 37.1479 33.3152C37.9803 33.0179 38.8128 32.8989 39.7048 33.0179C40.1209 33.0773 40.2994 33.0773 40.3588 32.9584C40.4182 32.8394 40.4182 32.8394 40.3588 32.7206C40.2399 32.4232 39.4669 32.007 38.3371 32.0664ZM44.4617 34.7422C44.9374 35.0395 45.4725 34.9206 45.8293 34.5044C46.0077 34.0287 45.7104 33.4936 45.2347 33.3152H45.1752C44.6995 33.0179 44.1049 33.1367 43.8076 33.553C43.6292 33.8503 43.9265 34.4449 44.4617 34.7422ZM47.97 31.5908C47.4348 31.6502 47.078 32.1259 47.1375 32.6611C47.1375 33.2557 47.4943 33.7909 47.9105 33.7909C48.4456 33.7314 48.8024 33.2557 48.743 32.7206C48.743 32.1259 48.4456 31.5908 47.97 31.5908ZM18.2984 42.5318C18.1795 42.4128 18.0011 42.4128 17.8228 42.4723C17.7038 42.4723 17.5849 42.5318 17.4065 42.5318C17.1092 42.5318 16.8119 42.4128 16.6335 42.175C16.4551 41.7588 16.4551 41.2831 16.693 40.8668C16.7525 40.8074 16.7525 40.6884 16.8119 40.6289C17.1686 39.856 17.7633 38.4883 17.1092 37.2397C16.693 36.3477 15.801 35.6936 14.7902 35.5747C13.8388 35.4558 12.8874 35.8125 12.2334 36.4667C11.8501 36.8758 11.5652 37.3669 11.4004 37.9027C11.2355 38.4385 11.195 39.0049 11.2819 39.5586C11.3414 39.737 11.4603 39.7965 11.5198 39.7965C11.6982 39.7965 11.936 39.6776 12.1144 39.2613C12.1144 39.2019 12.1144 39.2019 12.1739 39.1424C12.2334 38.7856 12.4117 38.4883 12.5901 38.191C12.828 37.7748 13.2442 37.537 13.7199 37.418C14.1956 37.2991 14.6713 37.418 15.0875 37.6558C15.801 38.0721 16.0389 38.964 15.7416 39.737C15.5037 40.3316 15.3848 40.9263 15.3848 41.5804C15.5037 42.8885 16.2768 43.4237 17.0498 43.4831C17.5849 43.5426 18.0606 43.3047 18.3579 42.8291C18.2984 42.7696 18.2984 42.6507 18.2984 42.5318Z" fill="#101841"/>
<path d="M59.1488 40.1531C59.0298 39.6773 58.9109 39.1422 58.7325 38.6665C58.6136 38.2503 58.4352 37.7746 58.2568 37.3584C58.9704 36.3475 59.2677 35.0988 59.0893 33.9096C58.9109 32.9582 58.4947 32.0663 57.7812 31.4121C57.0081 30.6391 55.4621 29.8067 53.262 29.1526C53.0242 29.0932 52.1917 28.8553 52.1323 28.8553C52.0728 28.8553 52.0728 26.1201 52.0133 24.9902C51.9539 23.8605 51.7755 22.7307 51.4782 21.601C51.062 20.055 50.289 18.5684 49.1591 17.4386C52.0133 14.4655 53.7972 11.1951 53.7972 8.40037C53.7972 2.98932 47.1375 1.38385 38.9911 4.77318L37.2668 5.48673L34.1153 2.39471C24.7798 -5.81105 -4.35657 26.5957 4.91949 34.4447L6.9412 36.1691C6.40604 37.6557 6.16819 39.2612 6.34657 40.8072C6.64388 43.0667 7.77364 45.1479 9.49807 46.6344C11.163 48.1804 13.3631 49.0724 15.6821 49.1318C19.3093 57.4565 27.5745 62.6297 37.2668 62.8675C47.6726 63.1648 56.4135 58.2889 60.1001 49.4886C60.8137 47.6452 61.23 45.683 61.3488 43.6613C61.4083 41.2234 60.0407 40.1531 59.1488 40.1531ZM16.5146 46.6939C16.1578 46.7534 15.8605 46.8128 15.5632 46.7534C12.4117 46.6939 9.02238 43.8397 8.66557 40.4504C8.30883 36.7637 10.2116 33.9096 13.5415 33.196C14.0172 33.1366 14.4929 33.1366 14.9685 33.1366C16.8713 33.2555 19.6066 34.6826 20.2607 38.7854C20.7958 42.4721 19.9039 46.0993 16.5146 46.6939ZM13.0063 30.996C10.9846 31.4121 9.14126 32.542 7.95201 34.2069C7.17902 33.6123 6.4655 32.9582 5.81141 32.1851C4.02756 28.7958 7.77364 22.1361 10.39 18.39C16.8713 9.11392 27.0393 2.0974 31.7962 3.3461C32.5693 3.58395 35.1262 6.49758 35.1262 6.49758C31.9152 8.34087 28.8826 10.4221 26.0285 12.7411C20.1418 17.3197 15.6821 23.8605 13.0063 30.996ZM46.0077 45.3263C46.0671 45.3263 46.1266 45.2073 46.1266 45.1479C46.1266 45.0289 46.0671 44.9695 45.9482 44.9695C42.6778 45.3857 39.4074 45.0289 36.3748 44.0181C36.91 42.3531 38.2181 42.9478 40.2399 43.1261C43.3914 43.3046 46.6023 43.0073 49.6348 42.1153C52.1917 41.4018 54.5702 40.2125 56.6514 38.607C57.127 39.6773 57.4244 40.8072 57.6622 41.9369C58.019 41.8775 58.3758 41.9369 58.6731 42.1153C59.0893 42.4126 59.4461 42.9478 59.2082 44.4343C58.792 47.1101 57.5433 49.548 55.6405 51.4508C54.4512 52.759 52.9647 53.8888 51.3593 54.6618C50.4673 55.1374 49.5159 55.4943 48.5645 55.851C41.1913 58.2889 33.6396 55.6132 31.2016 49.9048C31.0233 49.4886 30.8449 49.0129 30.7259 48.5372C29.7151 44.7911 30.5476 40.272 33.3423 37.4773C33.5207 37.2989 33.6396 37.0611 33.699 36.8232C33.699 36.5854 33.5801 36.3475 33.4612 36.1691C32.5098 34.8015 29.18 32.3636 29.834 27.785C30.3097 24.4551 33.2234 22.1361 35.8992 22.255C36.137 22.255 36.3748 22.255 36.6127 22.3145C37.8019 22.3739 38.8128 22.5523 39.7641 22.5523C41.4886 22.6713 43.2129 22.1361 44.5211 20.9469C45.0563 20.4711 45.6509 20.1144 46.3645 19.936C46.6023 19.8765 46.8402 19.8765 47.078 19.8765C47.4942 19.8765 47.9105 19.9955 48.2672 20.2333C49.6348 21.1253 49.8132 23.3848 49.9321 24.9902C49.9916 25.9417 50.1105 28.1417 50.1105 28.7958C50.17 30.2824 50.5863 30.4608 51.3593 30.7581L52.7863 31.1743C54.6297 31.7095 55.7 32.1851 56.354 32.8987C56.7108 33.2555 56.9487 33.7312 57.0081 34.2069C57.246 35.7529 55.8189 37.7151 52.0133 39.4395C48.0294 41.1639 43.6887 41.8775 39.4074 41.4612C39.1695 41.4612 38.2181 41.3423 38.2181 41.3423C35.4235 40.9855 33.8774 44.5533 35.5424 46.9912C36.6127 48.5967 39.5263 49.6075 42.4399 49.6075C49.1591 49.6075 54.3324 46.7533 56.2351 44.2559C56.2946 44.1964 56.354 44.0776 56.4135 44.0181C56.5324 43.8992 56.4135 43.7803 56.2946 43.8991C54.7486 44.9695 47.7915 49.2507 40.2993 47.9426C39.7047 47.8237 39.1101 47.6452 38.575 47.4669C37.9208 47.2291 36.5532 46.5749 36.3748 45.1479C42.2616 47.0506 46.0077 45.3857 46.0077 45.3263ZM25.0176 18.3305C27.1582 15.7737 29.7746 13.6331 32.6882 12.0276C32.7477 11.9681 32.8666 12.087 32.8071 12.1465C32.5098 12.6816 32.272 13.2763 32.0936 13.8709C32.0936 13.9898 32.1531 14.0493 32.272 13.9898C34.2937 12.6816 36.6127 11.8492 39.0506 11.6113C39.1696 11.6113 39.229 11.7303 39.1101 11.7897C38.6938 12.087 38.3371 12.4438 38.0398 12.8601C37.9803 12.9195 38.0398 12.9789 38.0398 13.0384H38.0992C40.0615 13.0979 42.0238 13.5736 43.7481 14.525C43.8076 14.525 43.8671 14.6439 43.8076 14.7034C43.8076 14.7628 43.7481 14.7628 43.6887 14.7628C37.2668 13.3358 30.5476 14.6439 25.1365 18.4495C25.0771 18.6278 24.8987 18.4495 25.0176 18.3305Z" fill="#101841"/>
</svg>
