<svg width="24" height="24" viewBox="0 0 24 24" fill="none" xmlns="http://www.w3.org/2000/svg">
<path d="M5.83005 12.3093V11.8093L5.82864 11.8093L5.83005 12.3093ZM3.28156 12.9642L3.04177 12.5255L3.04172 12.5255L3.28156 12.9642ZM1.35433 14.7557L0.934243 14.4846L0.934229 14.4846L1.35433 14.7557ZM0.515358 17.2497L0.016795 17.2118L0.0167947 17.2119L0.515358 17.2497ZM0.967957 19.8418L1.42418 19.6372L1.42418 19.6372L0.967957 19.8418ZM7.6424 22.6889L7.8105 23.1598H7.8105L7.6424 22.6889ZM9.82656 21.2216V20.7216C9.68443 20.7216 9.54901 20.7821 9.45417 20.888L9.82656 21.2216ZM13.7033 21.2216L14.0743 20.8864C13.9795 20.7815 13.8447 20.7216 13.7033 20.7216V21.2216ZM15.8843 22.675L16.0509 22.2036L16.0508 22.2036L15.8843 22.675ZM20.9033 21.8824L20.5995 21.4853L20.5995 21.4853L20.9033 21.8824ZM22.5303 19.8276L22.9865 20.0322L22.9865 20.0322L22.5303 19.8276ZM22.9825 17.246L23.4811 17.2087L23.4811 17.2087L22.9825 17.246ZM22.1507 14.7605L21.73 15.0308L21.73 15.0308L22.1507 14.7605ZM20.2358 12.971L19.9945 13.409L19.9946 13.409L20.2358 12.971ZM17.6998 12.3093L17.7033 11.8093H17.6998V12.3093ZM6.32996 15.8662C6.32996 15.5901 6.1061 15.3662 5.82996 15.3662C5.55381 15.3662 5.32996 15.5901 5.32996 15.8662H5.82996H6.32996ZM5.32996 19.4332C5.32996 19.7094 5.55381 19.9332 5.82996 19.9332C6.1061 19.9332 6.32996 19.7094 6.32996 19.4332H5.82996H5.32996ZM4.05164 17.1545C3.77549 17.1545 3.55164 17.3784 3.55164 17.6545C3.55164 17.9307 3.77549 18.1545 4.05164 18.1545V17.6545V17.1545ZM7.61856 18.1545C7.8947 18.1545 8.11856 17.9307 8.11856 17.6545C8.11856 17.3784 7.8947 17.1545 7.61856 17.1545V17.6545V18.1545ZM8.19361 8.4793C7.99866 8.67488 7.99917 8.99146 8.19475 9.18641C8.39032 9.38136 8.7069 9.38085 8.90185 9.18528L8.54773 8.83229L8.19361 8.4793ZM10.0049 7.85611L9.81317 7.39431L9.81314 7.39433L10.0049 7.85611ZM14.5482 9.18529C14.7431 9.38086 15.0597 9.38135 15.2553 9.18639C15.4508 8.99144 15.4513 8.67485 15.2564 8.47929L14.9023 8.83229L14.5482 9.18529ZM5.54584 6.08142C5.35093 6.27703 5.3515 6.59361 5.54712 6.78852C5.74273 6.98343 6.05931 6.98286 6.25422 6.78724L5.90003 6.43433L5.54584 6.08142ZM8.57136 4.64416L8.3796 4.18239L8.3796 4.18239L8.57136 4.64416ZM14.8787 4.64416L15.0704 4.1824L15.0704 4.18239L14.8787 4.64416ZM17.1958 6.78723C17.3907 6.98285 17.7072 6.98344 17.9029 6.78853C18.0985 6.59363 18.0991 6.27705 17.9042 6.08143L17.55 6.43433L17.1958 6.78723ZM2.88814 3.67348C2.69322 3.86908 2.69377 4.18567 2.88937 4.38059C3.08497 4.57551 3.40155 4.57496 3.59648 4.37936L3.24231 4.02642L2.88814 3.67348ZM7.13712 1.41664L6.94538 0.954866L6.94537 0.954868L7.13712 1.41664ZM16.3329 1.41664L16.5246 0.95487L16.5246 0.954865L16.3329 1.41664ZM19.8735 4.37936C20.0684 4.57496 20.385 4.57551 20.5806 4.38058C20.7762 4.18566 20.7767 3.86908 20.5818 3.67348L20.2277 4.02642L19.8735 4.37936ZM5.83005 12.3093L5.82864 11.8093C4.85448 11.8121 3.8965 12.0583 3.04177 12.5255L3.28156 12.9642L3.52135 13.403C4.22992 13.0157 5.02402 12.8116 5.83145 12.8093L5.83005 12.3093ZM3.28156 12.9642L3.04172 12.5255C2.18697 12.9928 1.46253 13.6662 0.934243 14.4846L1.35433 14.7557L1.77441 15.0269C2.21231 14.3485 2.81282 13.7903 3.52139 13.403L3.28156 12.9642ZM1.35433 14.7557L0.934229 14.4846C0.405953 15.3031 0.0905843 16.2406 0.016795 17.2118L0.515358 17.2497L1.01392 17.2876C1.07509 16.4825 1.3365 15.7054 1.77443 15.0269L1.35433 14.7557ZM0.515358 17.2497L0.0167947 17.2119C-0.0569922 18.1832 0.113137 19.1576 0.511732 20.0464L0.967957 19.8418L1.42418 19.6372C1.09378 18.9005 0.952757 18.0928 1.01392 17.2876L0.515358 17.2497ZM0.967957 19.8418L0.51173 20.0464C0.910308 20.9352 1.52471 21.7104 2.29911 22.3014L2.60244 21.9039L2.90577 21.5064C2.26389 21.0166 1.75459 20.374 1.42418 19.6372L0.967957 19.8418ZM2.60244 21.9039L2.29911 22.3014C3.07348 22.8924 3.98327 23.2804 4.94579 23.4304L5.02275 22.9363L5.0997 22.4423C4.30184 22.318 3.54768 21.9963 2.90577 21.5064L2.60244 21.9039ZM5.02275 22.9363L4.94579 23.4304C5.9083 23.5803 6.89304 23.4873 7.8105 23.1598L7.6424 22.6889L7.47429 22.218C6.71384 22.4895 5.89758 22.5666 5.0997 22.4423L5.02275 22.9363ZM7.6424 22.6889L7.8105 23.1598C8.72791 22.8323 9.54896 22.2807 10.1989 21.5553L9.82656 21.2216L9.45417 20.888C8.91538 21.4893 8.23478 21.9465 7.47429 22.218L7.6424 22.6889ZM9.82656 21.2216V21.7216H13.7033V21.2216V20.7216H9.82656V21.2216ZM13.7033 21.2216L13.3323 21.5568C13.9828 22.2769 14.8027 22.8232 15.7177 23.1465L15.8843 22.675L16.0508 22.2036C15.2926 21.9357 14.6133 21.483 14.0743 20.8864L13.7033 21.2216ZM15.8843 22.675L15.7176 23.1464C16.6326 23.4699 17.6136 23.5599 18.5722 23.4085L18.4942 22.9146L18.4162 22.4207C17.6219 22.5462 16.809 22.4716 16.0509 22.2036L15.8843 22.675ZM18.4942 22.9146L18.5722 23.4085C19.5307 23.2571 20.4363 22.8691 21.207 22.2796L20.9033 21.8824L20.5995 21.4853C19.9608 21.9738 19.2104 22.2953 18.4162 22.4207L18.4942 22.9146ZM20.9033 21.8824L21.207 22.2796C21.9779 21.6901 22.5894 20.9177 22.9865 20.0322L22.5303 19.8276L22.074 19.623C21.745 20.3568 21.2382 20.9968 20.5995 21.4853L20.9033 21.8824ZM22.5303 19.8276L22.9865 20.0322C23.3835 19.1468 23.5535 18.1763 23.4811 17.2087L22.9825 17.246L22.4839 17.2833C22.5438 18.0852 22.403 18.8894 22.074 19.623L22.5303 19.8276ZM22.9825 17.246L23.4811 17.2087C23.4085 16.2409 23.0958 15.3067 22.5713 14.4903L22.1507 14.7605L21.73 15.0308C22.1647 15.7074 22.4238 16.4815 22.4839 17.2834L22.9825 17.246ZM22.1507 14.7605L22.5713 14.4903C22.0469 13.6739 21.327 13.0012 20.477 12.533L20.2358 12.971L19.9946 13.409C20.6989 13.7969 21.2954 14.3543 21.73 15.0308L22.1507 14.7605ZM20.2358 12.971L20.477 12.5331C19.627 12.0649 18.6736 11.8162 17.7033 11.8093L17.6998 12.3093L17.6962 12.8093C18.5003 12.815 19.2903 13.0211 19.9945 13.409L20.2358 12.971ZM5.82996 15.8662H5.32996V19.4332H5.82996H6.32996V15.8662H5.82996ZM4.05164 17.6545V18.1545H7.61856V17.6545V17.1545H4.05164V17.6545ZM8.54773 8.83229L8.90185 9.18528C9.27216 8.81378 9.71216 8.51902 10.1966 8.31789L10.0049 7.85611L9.81314 7.39433C9.2072 7.6459 8.65682 8.0146 8.19361 8.4793L8.54773 8.83229ZM10.0049 7.85611L10.1965 8.31791C10.6811 8.11677 11.2005 8.01324 11.725 8.01324V7.51324V7.01324C11.0689 7.01324 10.4192 7.14275 9.81317 7.39431L10.0049 7.85611ZM11.725 7.51324V8.01324C12.2496 8.01324 12.7689 8.11677 13.2533 8.31789L13.4451 7.85611L13.6368 7.39433C13.0308 7.14275 12.3812 7.01324 11.725 7.01324V7.51324ZM13.4451 7.85611L13.2533 8.31789C13.7378 8.51902 14.1778 8.81378 14.5482 9.18529L14.9023 8.83229L15.2564 8.47929C14.7931 8.0146 14.2427 7.6459 13.6368 7.39433L13.4451 7.85611ZM5.90003 6.43433L6.25422 6.78724C6.97172 6.06715 7.82432 5.49579 8.76312 5.10593L8.57136 4.64416L8.3796 4.18239C7.31924 4.62273 6.35624 5.26807 5.54584 6.08142L5.90003 6.43433ZM8.57136 4.64416L8.76312 5.10593C9.70193 4.71607 10.7085 4.51538 11.725 4.51538V4.01538V3.51538C10.5768 3.51538 9.43997 3.74205 8.3796 4.18239L8.57136 4.64416ZM11.725 4.01538V4.51538C12.7415 4.51538 13.7481 4.71607 14.6869 5.10593L14.8787 4.64416L15.0704 4.18239C14.01 3.74205 12.8732 3.51538 11.725 3.51538V4.01538ZM14.8787 4.64416L14.6869 5.10592C15.6256 5.49579 16.4783 6.06715 17.1958 6.78723L17.55 6.43433L17.9042 6.08143C17.0938 5.26807 16.1307 4.62273 15.0704 4.1824L14.8787 4.64416ZM3.24231 4.02642L3.59648 4.37936C4.6639 3.30821 5.93228 2.45833 7.32887 1.87841L7.13712 1.41664L6.94537 0.954868C5.42724 1.58525 4.04848 2.50911 2.88814 3.67348L3.24231 4.02642ZM7.13712 1.41664L7.32886 1.87841C8.72546 1.29851 10.2228 1 11.735 1V0.5V0C10.0912 0 8.46352 0.324491 6.94538 0.954866L7.13712 1.41664ZM11.735 0.5V1C13.2472 1 14.7445 1.29851 16.1411 1.87842L16.3329 1.41664L16.5246 0.954865C15.0064 0.32449 13.3788 0 11.735 0V0.5ZM16.3329 1.41664L16.1411 1.87841C17.5376 2.45833 18.806 3.30822 19.8735 4.37936L20.2277 4.02642L20.5818 3.67348C19.4215 2.5091 18.0427 1.58525 16.5246 0.95487L16.3329 1.41664ZM16.1064 19.2239V18.7239C16.1755 18.7239 16.2314 18.7798 16.2314 18.8489H15.7314H15.2314C15.2314 19.3321 15.6232 19.7239 16.1064 19.7239V19.2239ZM15.7314 18.8489H16.2314C16.2314 18.9179 16.1755 18.9739 16.1064 18.9739V18.4739V17.9739C15.6232 17.9739 15.2314 18.3656 15.2314 18.8489H15.7314ZM16.1064 19.2239V19.7239C16.5907 19.7239 16.9808 19.3311 16.9808 18.8489H16.4808H15.9808C15.9808 18.7809 16.0364 18.7239 16.1064 18.7239V19.2239ZM16.4808 18.8489H16.9808C16.9808 18.3667 16.5907 17.9739 16.1064 17.9739V18.4739V18.9739C16.0364 18.9739 15.9808 18.9169 15.9808 18.8489H16.4808ZM18.8441 16.5562V16.0562C18.9132 16.0562 18.9691 16.1121 18.9691 16.1812H18.4691H17.9691C17.9691 16.6644 18.3609 17.0562 18.8441 17.0562V16.5562ZM18.4691 16.1812H18.9691C18.9691 16.2502 18.9132 16.3062 18.8441 16.3062V15.8062V15.3062C18.3609 15.3062 17.9691 15.6979 17.9691 16.1812H18.4691ZM18.8441 16.5562V17.0562C19.3288 17.0562 19.7184 16.6631 19.7184 16.1812H19.2184H18.7184C18.7184 16.1134 18.7739 16.0562 18.8441 16.0562V16.5562ZM19.2184 16.1812H19.7184C19.7184 15.6992 19.3288 15.3062 18.8441 15.3062V15.8062V16.3062C18.7739 16.3062 18.7184 16.2489 18.7184 16.1812H19.2184ZM17.6998 12.3093V11.8093H5.83005V12.3093V12.8093H17.6998V12.3093Z" fill="white"/>
</svg>
