<svg width="24" height="24" viewBox="0 0 24 24" fill="none" xmlns="http://www.w3.org/2000/svg">
<path d="M18.5 13.7539L13.713 14.7109M14.188 9.28106L11.928 10.2361C11.7497 10.3097 11.5582 10.3463 11.3653 10.3436C11.1724 10.3408 10.9821 10.2988 10.806 10.2201C10.6273 10.1403 10.4663 10.0258 10.3323 9.88336C10.1982 9.74088 10.0937 9.57321 10.025 9.39006C9.88946 9.04186 9.8865 8.65603 10.0166 8.30579C10.1468 7.95555 10.401 7.66528 10.731 7.49006L12.99 6.36306C13.2342 6.23646 13.5024 6.16266 13.777 6.14647C14.0516 6.13027 14.3266 6.17204 14.584 6.26906L19.223 8.09706M4.94995 14.75H6.54995L9.59895 17.076C9.74157 17.2372 9.94121 17.3366 10.1558 17.3534C10.3703 17.3702 10.583 17.303 10.749 17.166L15.009 13.648C15.1773 13.5087 15.2849 13.3093 15.309 13.0921C15.333 12.8749 15.2717 12.6568 15.138 12.484L12.791 9.875M10.486 7.65006L10.239 7.45006C9.99406 7.26938 9.70705 7.15424 9.40517 7.11556C9.10328 7.07689 8.79652 7.11595 8.51397 7.22906L4.94397 8.75006M1.14001 15.5002H3.80001C4.10109 15.5163 4.3963 15.4126 4.62115 15.2117C4.84601 15.0108 4.98221 14.7292 5.00001 14.4282V9.07117C4.98196 8.77037 4.84564 8.48892 4.62082 8.28827C4.396 8.08762 4.10093 7.98405 3.80001 8.00017H1.14001M22.36 15.5002H19.7C19.3989 15.5163 19.1037 15.4126 18.8789 15.2117C18.654 15.0108 18.5178 14.7292 18.5 14.4282V9.07117C18.5181 8.77037 18.6544 8.48892 18.8792 8.28827C19.104 8.08762 19.3991 7.98405 19.7 8.00017H22.36M0.5 11.75C0.5 14.7337 1.68526 17.5952 3.79505 19.705C5.90483 21.8147 8.76631 23 11.75 23C14.7337 23 17.5952 21.8147 19.705 19.705C21.8147 17.5952 23 14.7337 23 11.75C23 8.76631 21.8147 5.90483 19.705 3.79505C17.5952 1.68526 14.7337 0.5 11.75 0.5C8.76631 0.5 5.90483 1.68526 3.79505 3.79505C1.68526 5.90483 0.5 8.76631 0.5 11.75Z" stroke="white" stroke-linecap="round" stroke-linejoin="round"/>
</svg>
