<svg width="48" height="38" viewBox="0 0 48 38" fill="none" xmlns="http://www.w3.org/2000/svg">
<path d="M0.426674 15.1473L7.27999 1.46732C7.73332 0.560658 8.66665 0.000648499 9.65332 0.000648499H16.5067C17.4933 0.000648499 18.1333 1.04065 17.7067 1.92065L10.6667 16.0007H17.3333C19.5467 16.0007 21.3333 17.7873 21.3333 20.0007V33.334C21.3333 35.5473 19.5467 37.334 17.3333 37.334H4C1.78667 37.334 0 35.5473 0 33.334V16.934C0 16.3207 0.133343 15.7073 0.426674 15.1473ZM26.6667 16.934V33.334C26.6667 35.5473 28.4533 37.334 30.6667 37.334H44C46.2133 37.334 48 35.5473 48 33.334V20.0007C48 17.7873 46.2133 16.0007 44 16.0007H37.3333L44.3733 1.92065C44.8267 1.04065 44.16 0.000648499 43.1733 0.000648499H36.32C35.3067 0.000648499 34.3733 0.560658 33.9467 1.46732L27.0933 15.1473C26.8267 15.7073 26.6667 16.3207 26.6667 16.934Z" fill="url(#paint0_linear_4906_6947)"/>
<defs>
<linearGradient id="paint0_linear_4906_6947" x1="48" y1="37.334" x2="-2.86773" y2="4.43462" gradientUnits="userSpaceOnUse">
<stop stop-color="#7B5DFF"/>
<stop offset="1" stop-color="#B35DFF"/>
</linearGradient>
</defs>
</svg>
