<svg width="42" height="32" viewBox="0 0 42 32" fill="none" xmlns="http://www.w3.org/2000/svg">
<path d="M40.7771 19.0172L34.9029 30.7429C34.5143 31.52 33.7143 32 32.8686 32H26.9943C26.1486 32 25.6 31.1086 25.9657 30.3543L32 18.2857H26.2857C24.3886 18.2857 22.8571 16.7543 22.8571 14.8571V3.42857C22.8571 1.53143 24.3886 0 26.2857 0H37.7143C39.6114 0 41.1429 1.53143 41.1429 3.42857V17.4857C41.1429 18.0114 41.0286 18.5372 40.7771 19.0172ZM18.2857 17.4857V3.42857C18.2857 1.53143 16.7543 0 14.8571 0H3.42857C1.53143 0 0 1.53143 0 3.42857V14.8571C0 16.7543 1.53143 18.2857 3.42857 18.2857H9.14286L3.10857 30.3543C2.72 31.1086 3.29142 32 4.13714 32H10.0114C10.88 32 11.68 31.52 12.0457 30.7429L17.92 19.0172C18.1486 18.5372 18.2857 18.0114 18.2857 17.4857Z" fill="#E5E5E5"/>
</svg>
