<svg width="51" height="44" viewBox="0 0 51 44" fill="none" xmlns="http://www.w3.org/2000/svg">
<path d="M0.170474 22.336L4.51138 7.71725C4.79822 6.74852 5.6165 6.03631 6.58473 5.86434L13.31 4.66985C14.2782 4.49788 15.0875 5.4069 14.8222 6.34482L10.3678 21.3887L16.9099 20.2267C19.0819 19.841 21.1465 21.2828 21.5323 23.4548L23.8562 36.539C24.242 38.7109 22.8001 40.7756 20.6281 41.1614L7.54399 43.4853C5.37202 43.8711 3.30735 42.4292 2.92158 40.2572L0.0631809 24.1637C-0.0437186 23.5619 -0.0197758 22.9367 0.170474 22.336ZM26.2315 19.5159L29.0899 35.6094C29.4756 37.7814 31.5403 39.2232 33.7123 38.8375L46.7964 36.5136C48.9684 36.1278 50.4103 34.0631 50.0245 31.8912L47.7006 18.807C47.3148 16.635 45.2502 15.1932 43.0782 15.5789L36.5361 16.7409L40.9905 1.69701C41.282 0.754444 40.4465 -0.149927 39.4783 0.022042L32.753 1.21653C31.7586 1.39315 30.9403 2.10536 30.6797 3.06945L26.3388 17.6882C26.1747 18.2843 26.1246 18.914 26.2315 19.5159Z" fill="url(#paint0_linear_4906_4150)"/>
<defs>
<linearGradient id="paint0_linear_4906_4150" x1="44.3107" y1="42.2161" x2="-6.73142" y2="13.7212" gradientUnits="userSpaceOnUse">
<stop stop-color="#AEFF5D"/>
<stop offset="1" stop-color="#5DFFD9"/>
</linearGradient>
</defs>
</svg>
