<svg width="38" height="30" viewBox="0 0 38 30" fill="none" xmlns="http://www.w3.org/2000/svg">
<path d="M37.6622 17.8286L32.2367 28.8214C31.8778 29.55 31.1389 30 30.3578 30H24.9322C24.1511 30 23.6444 29.1643 23.9822 28.4571L29.5556 17.1429H24.2778C22.5256 17.1429 21.1111 15.7071 21.1111 13.9286V3.21429C21.1111 1.43571 22.5256 0 24.2778 0H34.8333C36.5856 0 38 1.43571 38 3.21429V16.3928C38 16.8857 37.8944 17.3786 37.6622 17.8286ZM16.8889 16.3928V3.21429C16.8889 1.43571 15.4744 0 13.7222 0H3.16667C1.41444 0 0 1.43571 0 3.21429V13.9286C0 15.7071 1.41444 17.1429 3.16667 17.1429H8.44444L2.87111 28.4571C2.51222 29.1643 3.03999 30 3.82111 30H9.24668C10.0489 30 10.7878 29.55 11.1256 28.8214L16.5511 17.8286C16.7622 17.3786 16.8889 16.8857 16.8889 16.3928Z" fill="#06050B"/>
</svg>
