<svg width="23" height="23" viewBox="0 0 23 23" fill="none" xmlns="http://www.w3.org/2000/svg">
<mask id="mask0_4001_14337" style="mask-type:luminance" maskUnits="userSpaceOnUse" x="0" y="0" width="23" height="23">
<path d="M22.4 0H0V22.4H22.4V0Z" fill="white"/>
</mask>
<g mask="url(#mask0_4001_14337)">
<path d="M11.2005 20.5339C16.3552 20.5339 20.5339 16.3552 20.5339 11.2005C20.5339 6.0458 16.3552 1.86719 11.2005 1.86719C6.0458 1.86719 1.86719 6.0458 1.86719 11.2005C1.86719 16.3552 6.0458 20.5339 11.2005 20.5339Z" stroke="#7B5DFF" stroke-width="1.5" stroke-linecap="round" stroke-linejoin="round"/>
<path d="M12.9108 6.81311C12.9108 6.5517 12.9108 6.421 12.86 6.32121C12.8152 6.2334 12.7438 6.16194 12.656 6.11725C12.5562 6.0664 12.4255 6.06641 12.1641 6.06641H10.2353C9.97397 6.06641 9.84327 6.0664 9.74337 6.11725C9.65556 6.16194 9.58421 6.2334 9.53953 6.32121C9.48857 6.421 9.48857 6.5517 9.48857 6.81311V8.74197C9.48857 9.00327 9.48857 9.13397 9.43772 9.23377C9.39303 9.32157 9.32157 9.39303 9.23377 9.43772C9.13397 9.48857 9.00327 9.48857 8.74197 9.48857H6.81311C6.5517 9.48857 6.421 9.48857 6.32121 9.53953C6.2334 9.58421 6.16194 9.65556 6.11725 9.74337C6.0664 9.84327 6.06641 9.97397 6.06641 10.2353V12.1641C6.06641 12.4255 6.0664 12.5562 6.11725 12.656C6.16194 12.7438 6.2334 12.8152 6.32121 12.86C6.421 12.9108 6.5517 12.9108 6.81311 12.9108H8.74197C9.00327 12.9108 9.13397 12.9108 9.23377 12.9617C9.32157 13.0065 9.39303 13.0778 9.43772 13.1656C9.48857 13.2654 9.48857 13.3961 9.48857 13.6575V15.5864C9.48857 15.8477 9.48857 15.9784 9.53953 16.0783C9.58421 16.1661 9.65556 16.2375 9.74337 16.2822C9.84327 16.3331 9.97397 16.3331 10.2353 16.3331H12.1641C12.4255 16.3331 12.5562 16.3331 12.656 16.2822C12.7438 16.2375 12.8152 16.1661 12.86 16.0783C12.9108 15.9784 12.9108 15.8477 12.9108 15.5864V13.6575C12.9108 13.3961 12.9108 13.2654 12.9617 13.1656C13.0065 13.0778 13.0778 13.0065 13.1656 12.9617C13.2654 12.9108 13.3961 12.9108 13.6575 12.9108H15.5864C15.8477 12.9108 15.9784 12.9108 16.0783 12.86C16.1661 12.8152 16.2375 12.7438 16.2822 12.656C16.3331 12.5562 16.3331 12.4255 16.3331 12.1641V10.2353C16.3331 9.97397 16.3331 9.84327 16.2822 9.74337C16.2375 9.65556 16.1661 9.58421 16.0783 9.53953C15.9784 9.48857 15.8477 9.48857 15.5864 9.48857H13.6575C13.3961 9.48857 13.2654 9.48857 13.1656 9.43772C13.0778 9.39303 13.0065 9.32157 12.9617 9.23377C12.9108 9.13397 12.9108 9.00327 12.9108 8.74197V6.81311Z" stroke="#7B5DFF" stroke-width="1.5" stroke-linecap="round" stroke-linejoin="round"/>
</g>
</svg>
