<svg width="56" height="56" viewBox="0 0 56 56" fill="none" xmlns="http://www.w3.org/2000/svg">
<path opacity="0.3" d="M46.666 28.4674V32.4341C46.666 39.7841 42.466 42.9341 36.166 42.9341H15.166C8.86602 42.9341 4.66602 39.7841 4.66602 32.4341V19.834C4.66602 12.484 8.86602 9.33398 15.166 9.33398H21.466C21.1627 10.2207 20.9993 11.2007 20.9993 12.2507V21.3507C20.9993 23.6141 21.746 25.5274 23.076 26.8574C24.406 28.1874 26.3193 28.9341 28.5827 28.9341V32.1773C28.5827 33.3673 29.936 34.0907 30.9393 33.4374L37.6827 28.9341H43.7493C44.7993 28.9341 45.7793 28.7707 46.666 28.4674Z" fill="#6243FF"/>
<path d="M51.3333 12.2493V21.3494C51.3333 24.826 49.56 27.4394 46.6667 28.466C45.78 28.7694 44.8 28.9327 43.75 28.9327H37.6833L30.94 33.436C29.9367 34.0894 28.5833 33.3659 28.5833 32.1759V28.9327C26.32 28.9327 24.4067 28.186 23.0767 26.856C21.7467 25.526 21 23.6127 21 21.3494V12.2493C21 11.1993 21.1633 10.2193 21.4667 9.33269C22.4933 6.43936 25.1067 4.66602 28.5833 4.66602H43.75C48.3 4.66602 51.3333 7.69936 51.3333 12.2493Z" fill="url(#paint0_linear_4001_10296)"/>
<path opacity="0.4" d="M34.0676 49.5835H27.4176V42.9336C27.4176 41.9769 26.6242 41.1836 25.6676 41.1836C24.7109 41.1836 23.9176 41.9769 23.9176 42.9336V49.5835H17.2676C16.3109 49.5835 15.5176 50.3769 15.5176 51.3335C15.5176 52.2902 16.3109 53.0835 17.2676 53.0835H34.0676C35.0242 53.0835 35.8176 52.2902 35.8176 51.3335C35.8176 50.3769 35.0242 49.5835 34.0676 49.5835Z" fill="url(#paint1_linear_4001_10296)"/>
<path d="M36.0273 18.668C35.0473 18.668 34.2773 17.8747 34.2773 16.918C34.2773 15.9613 35.0707 15.168 36.0273 15.168C36.984 15.168 37.7773 15.9613 37.7773 16.918C37.7773 17.8747 36.984 18.668 36.0273 18.668Z" fill="white"/>
<path d="M42.584 18.668C41.604 18.668 40.834 17.8747 40.834 16.918C40.834 15.9613 41.6273 15.168 42.584 15.168C43.5407 15.168 44.334 15.9613 44.334 16.918C44.334 17.8747 43.5407 18.668 42.584 18.668Z" fill="white"/>
<path d="M29.4473 18.668C28.4673 18.668 27.6973 17.8747 27.6973 16.918C27.6973 15.9613 28.4906 15.168 29.4473 15.168C30.4039 15.168 31.1973 15.9613 31.1973 16.918C31.1973 17.8747 30.4273 18.668 29.4473 18.668Z" fill="white"/>
<defs>
<linearGradient id="paint0_linear_4001_10296" x1="36.1667" y1="4.66602" x2="36.1667" y2="33.6824" gradientUnits="userSpaceOnUse">
<stop stop-color="#AD9DFF"/>
<stop offset="1" stop-color="#6243FF"/>
</linearGradient>
<linearGradient id="paint1_linear_4001_10296" x1="25.6676" y1="41.1836" x2="25.6676" y2="53.0835" gradientUnits="userSpaceOnUse">
<stop stop-color="#AD9DFF"/>
<stop offset="1" stop-color="#6243FF"/>
</linearGradient>
</defs>
</svg>
