<svg width="64" height="57" viewBox="0 0 64 57" fill="none" xmlns="http://www.w3.org/2000/svg">
<path opacity="0.3" d="M48 24.11H41.2567C35.7267 24.11 31.2233 19.6067 31.2233 14.0767V7.33334C31.2233 6.05 30.1733 5 28.89 5H18.9967C11.81 5 6 9.66667 6 17.9967V38.67C6 47 11.81 51.6667 18.9967 51.6667H37.3367C44.5233 51.6667 50.3333 47 50.3333 38.67V26.4433C50.3333 25.16 49.2833 24.11 48 24.11Z" fill="#6243FF"/>
<path d="M42.1342 5.21789C41.041 4.24984 39.1476 4.91095 39.1476 6.25678V14.4971C39.1476 17.9443 42.4542 20.8012 46.481 20.8012C49.0142 20.8248 52.5342 20.8248 55.5476 20.8248C57.0676 20.8248 57.8676 19.2429 56.801 18.2985C52.961 14.8748 46.081 8.71234 42.1342 5.21789Z" fill="url(#paint0_linear_4001_10249)"/>
<path d="M36 32.4655H20C18.9066 32.4655 18 31.6628 18 30.6947C18 29.7266 18.9066 28.9238 20 28.9238H36C37.0934 28.9238 38 29.7266 38 30.6947C38 31.6628 37.0934 32.4655 36 32.4655Z" fill="#6243FF"/>
<path d="M30.6666 41.9108H20C18.9066 41.9108 18 41.1081 18 40.14C18 39.1719 18.9066 38.3691 20 38.3691H30.6666C31.76 38.3691 32.6666 39.1719 32.6666 40.14C32.6666 41.1081 31.76 41.9108 30.6666 41.9108Z" fill="#6243FF"/>
<defs>
<linearGradient id="paint0_linear_4001_10249" x1="48.2183" y1="4.75781" x2="48.2183" y2="20.8248" gradientUnits="userSpaceOnUse">
<stop stop-color="#AD9DFF"/>
<stop offset="1" stop-color="#6243FF"/>
</linearGradient>
</defs>
</svg>
