<svg width="21" height="17" viewBox="0 0 21 17" fill="none" xmlns="http://www.w3.org/2000/svg">
<path d="M4.48341 7.2833V11.0166M15.6834 5.41659V9.15M14.75 0.75C17.0355 0.75 18.2716 1.09977 18.8867 1.37104C18.9686 1.40721 19.0096 1.42525 19.1277 1.53803C19.1986 1.60568 19.3279 1.80403 19.3612 1.89621C19.4167 2.04987 19.4167 2.13387 19.4167 2.30187V12.3337C19.4167 13.1819 19.4167 13.606 19.2895 13.824C19.1601 14.0457 19.0353 14.1488 18.7932 14.234C18.5551 14.3178 18.0745 14.2255 17.1134 14.0408C16.4406 13.9116 15.6428 13.8166 14.75 13.8166C11.95 13.8166 9.15 15.6833 5.4167 15.6833C3.13123 15.6833 1.89509 15.3335 1.2801 15.0623C1.19811 15.0261 1.15723 15.008 1.03896 14.8953C0.968177 14.8276 0.838817 14.6292 0.805553 14.5371C0.750001 14.3834 0.75 14.2994 0.75 14.1314V4.09958C0.75 3.25141 0.75 2.82726 0.877232 2.60931C1.00659 2.38755 1.13136 2.28451 1.3735 2.19928C1.61162 2.1155 2.09221 2.20779 3.05339 2.39248C3.72606 2.52173 4.52395 2.61659 5.4167 2.61659C8.2167 2.61659 11.0167 0.75 14.75 0.75ZM12.4167 8.21659C12.4167 9.50526 11.3721 10.55 10.0834 10.55C8.79474 10.55 7.75 9.50526 7.75 8.21659C7.75 6.92792 8.79474 5.8833 10.0834 5.8833C11.3721 5.8833 12.4167 6.92792 12.4167 8.21659Z" stroke="#7B5DFF" stroke-width="1.5" stroke-linecap="round" stroke-linejoin="round"/>
</svg>
