<svg width="56" height="56" viewBox="0 0 56 56" fill="none" xmlns="http://www.w3.org/2000/svg">
<path opacity="0.3" d="M50.5398 24.3592L48.2531 34.1125C46.2931 42.5358 42.4198 45.9425 35.1398 45.2425C33.9731 45.1492 32.7131 44.9392 31.3598 44.6125L27.4398 43.6792C17.7098 41.3692 14.6998 36.5625 16.9864 26.8092L19.2731 17.0325C19.7398 15.0492 20.2998 13.3225 20.9998 11.8992C23.7298 6.25253 28.3731 4.73587 36.1664 6.5792L40.0631 7.4892C49.8398 9.77587 52.8264 14.6058 50.5398 24.3592Z" fill="#6243FF"/>
<path d="M35.1408 45.2437C33.6941 46.2237 31.8741 47.0404 29.6575 47.7637L25.9708 48.9771C16.7075 51.9637 11.8308 49.4671 8.8208 40.2037L5.83413 30.9871C2.84746 21.7237 5.3208 16.8237 14.5841 13.8371L18.2708 12.6237C19.2275 12.3204 20.1375 12.0637 21.0008 11.9004C20.3008 13.3237 19.7408 15.0504 19.2741 17.0337L16.9875 26.8104C14.7008 36.5637 17.7108 41.3704 27.4408 43.6804L31.3608 44.6137C32.7141 44.9404 33.9741 45.1504 35.1408 45.2437Z" fill="url(#paint0_linear_4001_10314)"/>
<path d="M40.8092 24.5228C40.6692 24.5228 40.5292 24.4995 40.3659 24.4761L29.0492 21.6061C28.1159 21.3728 27.5559 20.4161 27.7892 19.4828C28.0226 18.5495 28.9792 17.9895 29.9126 18.2228L41.2292 21.0928C42.1626 21.3261 42.7225 22.2828 42.4892 23.2161C42.3025 23.9861 41.5792 24.5228 40.8092 24.5228Z" fill="#6243FF"/>
<path d="M33.974 32.4107C33.834 32.4107 33.694 32.3874 33.5306 32.3641L26.7406 30.6374C25.8073 30.4041 25.2473 29.4474 25.4806 28.5141C25.714 27.5807 26.6706 27.0207 27.604 27.2541L34.394 28.9807C35.3273 29.2141 35.8873 30.1707 35.654 31.1041C35.4673 31.8974 34.7673 32.4107 33.974 32.4107Z" fill="#6243FF"/>
<defs>
<linearGradient id="paint0_linear_4001_10314" x1="19.8878" y1="11.9004" x2="19.8878" y2="50.1724" gradientUnits="userSpaceOnUse">
<stop stop-color="#AD9DFF"/>
<stop offset="1" stop-color="#6243FF"/>
</linearGradient>
</defs>
</svg>
