<svg width="33" height="36" viewBox="0 0 33 36" fill="none" xmlns="http://www.w3.org/2000/svg">
<path d="M2.67235 21.0043C2.35696 21.0054 2.04774 20.917 1.78061 20.7493C1.51348 20.5816 1.29941 20.3416 1.16327 20.0571C1.02713 19.7726 0.974505 19.4553 1.01152 19.1421C1.04853 18.8289 1.17365 18.5326 1.37235 18.2877L17.8723 1.28767C17.9961 1.14481 18.1648 1.04827 18.3507 1.0139C18.5365 0.979523 18.7286 1.00936 18.8952 1.09851C19.0619 1.18767 19.1933 1.33084 19.2679 1.50452C19.3425 1.67821 19.3558 1.87209 19.3057 2.05434L16.1057 12.0877C16.0113 12.3402 15.9796 12.6119 16.0133 12.8794C16.047 13.1468 16.1451 13.4021 16.2992 13.6234C16.4532 13.8446 16.6586 14.0252 16.8978 14.1496C17.137 14.274 17.4028 14.3386 17.6724 14.3377H29.339C29.6544 14.3366 29.9636 14.425 30.2308 14.5927C30.4979 14.7604 30.712 15.0004 30.8481 15.2849C30.9842 15.5694 31.0369 15.8867 30.9998 16.1999C30.9628 16.5131 30.8377 16.8094 30.639 17.0543L14.139 34.0543C14.0152 34.1972 13.8466 34.2937 13.6607 34.3281C13.4748 34.3625 13.2828 34.3327 13.1161 34.2435C12.9495 34.1543 12.818 34.0112 12.7435 33.8375C12.6689 33.6638 12.6556 33.4699 12.7057 33.2877L15.9057 23.2543C16 23.0018 16.0317 22.7301 15.998 22.4627C15.9643 22.1952 15.8663 21.9399 15.7122 21.7186C15.5581 21.4974 15.3527 21.3168 15.1136 21.1924C14.8744 21.068 14.6086 21.0035 14.339 21.0043H2.67235Z" stroke="#06050B" stroke-width="2" stroke-linecap="round" stroke-linejoin="round"/>
</svg>
