<svg width="19" height="18" viewBox="0 0 19 18" fill="none" xmlns="http://www.w3.org/2000/svg">
<path d="M18.1175 8.6833C18.1175 13.0647 14.5656 16.6167 10.1842 16.6167C9.17922 16.6167 8.21781 16.4298 7.33301 16.0888C7.17117 16.0266 7.0903 15.9954 7.02602 15.9805C6.96274 15.966 6.91693 15.9599 6.85208 15.9575C6.78611 15.9549 6.71376 15.9624 6.56894 15.9773L1.78934 16.4714C1.33362 16.5185 1.10581 16.5421 0.97141 16.4601C0.85437 16.3887 0.774625 16.2694 0.753345 16.1339C0.729041 15.9784 0.837905 15.7768 1.05563 15.3738L2.5823 12.5481C2.70797 12.3153 2.77091 12.199 2.79936 12.0872C2.82747 11.9767 2.83419 11.897 2.82523 11.7833C2.81616 11.6682 2.76565 11.5185 2.66462 11.2189C2.39627 10.4227 2.2509 9.57 2.2509 8.6833C2.2509 4.30186 5.80275 0.75 10.1842 0.75C14.5656 0.75 18.1175 4.30186 18.1175 8.6833Z" stroke="#7B5DFF" stroke-width="1.5" stroke-linecap="round" stroke-linejoin="round"/>
<path fill-rule="evenodd" clip-rule="evenodd" d="M10.1814 6.30198C9.34178 5.33239 7.94145 5.07154 6.88932 5.95948C5.83719 6.8473 5.68913 8.33175 6.51535 9.38186C7.02719 10.0324 8.31194 11.2206 9.21556 12.0306C9.54741 12.328 9.7134 12.4768 9.91254 12.5367C10.0833 12.5881 10.2796 12.5881 10.4505 12.5367C10.6496 12.4768 10.8156 12.328 11.1474 12.0306C12.051 11.2206 13.3357 10.0324 13.8477 9.38186C14.6739 8.33175 14.5438 6.8379 13.4736 5.95948C12.4034 5.08095 11.0212 5.33239 10.1814 6.30198Z" stroke="#7B5DFF" stroke-width="1.5" stroke-linecap="round" stroke-linejoin="round"/>
</svg>
