<svg width="40" height="40" viewBox="0 0 40 40" fill="none" xmlns="http://www.w3.org/2000/svg">
<path d="M20 30.0007V8.33398" stroke="#06050B" stroke-width="2" stroke-linecap="round" stroke-linejoin="round"/>
<path d="M25 21.6667C23.558 21.2451 22.2914 20.3677 21.39 19.1658C20.4886 17.964 20.0009 16.5023 20 15C19.9991 16.5023 19.5114 17.964 18.61 19.1658C17.7086 20.3677 16.442 21.2451 15 21.6667" stroke="#06050B" stroke-width="2" stroke-linecap="round" stroke-linejoin="round"/>
<path d="M29.33 10.8342C29.7135 10.17 29.9391 9.42651 29.9893 8.6612C30.0395 7.89588 29.9129 7.12928 29.6194 6.42069C29.326 5.71211 28.8734 5.08054 28.2968 4.57484C27.7202 4.06914 27.0349 3.70287 26.2941 3.50436C25.5533 3.30585 24.7767 3.28043 24.0245 3.43007C23.2723 3.5797 22.5646 3.90037 21.9561 4.36728C21.3477 4.83419 20.8548 5.43481 20.5156 6.12269C20.1764 6.81056 20 7.56725 20 8.3342C20 7.56725 19.8236 6.81056 19.4844 6.12269C19.1452 5.43481 18.6523 4.83419 18.0439 4.36728C17.4354 3.90037 16.7277 3.5797 15.9755 3.43007C15.2233 3.28043 14.4467 3.30585 13.7059 3.50436C12.9651 3.70287 12.2798 4.06914 11.7032 4.57484C11.1266 5.08054 10.674 5.71211 10.3806 6.42069C10.0871 7.12928 9.96053 7.89588 10.0107 8.6612C10.0609 9.42651 10.2865 10.17 10.67 10.8342" stroke="#06050B" stroke-width="2" stroke-linecap="round" stroke-linejoin="round"/>
<path d="M29.9951 8.54102C30.9748 8.79291 31.8843 9.26443 32.6547 9.91987C33.4252 10.5753 34.0364 11.3975 34.442 12.3241C34.8477 13.2507 35.0372 14.2575 34.9961 15.2682C34.9551 16.2789 34.6846 17.267 34.2051 18.1577" stroke="#06050B" stroke-width="2" stroke-linecap="round" stroke-linejoin="round"/>
<path d="M30 30.0005C31.4675 30.0005 32.894 29.5162 34.0582 28.6228C35.2225 27.7294 36.0594 26.4769 36.4392 25.0594C36.819 23.6419 36.7205 22.1386 36.159 20.7828C35.5974 19.427 34.6042 18.2944 33.3333 17.5605" stroke="#06050B" stroke-width="2" stroke-linecap="round" stroke-linejoin="round"/>
<path d="M33.2787 29.1387C33.3955 30.0424 33.3258 30.9605 33.0738 31.8362C32.8219 32.7119 32.3932 33.5267 31.814 34.2303C31.2349 34.9338 30.5176 35.5111 29.7066 35.9266C28.8956 36.3421 28.008 36.5869 27.0987 36.6459C26.1894 36.7049 25.2776 36.5769 24.4197 36.2697C23.5618 35.9625 22.7759 35.4827 22.1107 34.8599C21.4455 34.2372 20.915 33.4846 20.552 32.6488C20.1891 31.813 20.0013 30.9116 20.0003 30.0003C19.9993 30.9116 19.8116 31.813 19.4486 32.6488C19.0856 33.4846 18.5551 34.2372 17.8899 34.8599C17.2247 35.4827 16.4389 35.9625 15.581 36.2697C14.7231 36.5769 13.8113 36.7049 12.9019 36.6459C11.9926 36.5869 11.105 36.3421 10.294 35.9266C9.48301 35.5111 8.76578 34.9338 8.18663 34.2303C7.60748 33.5267 7.17871 32.7119 6.9268 31.8362C6.67489 30.9605 6.60518 30.0424 6.72199 29.1387" stroke="#06050B" stroke-width="2" stroke-linecap="round" stroke-linejoin="round"/>
<path d="M10.0004 30.0005C8.53285 30.0005 7.10637 29.5162 5.94214 28.6228C4.7779 27.7294 3.94098 26.4769 3.56115 25.0594C3.18133 23.6419 3.27983 22.1386 3.84139 20.7828C4.40294 19.427 5.39617 18.2944 6.66703 17.5605" stroke="#06050B" stroke-width="2" stroke-linecap="round" stroke-linejoin="round"/>
<path d="M10.0046 8.54102C9.02489 8.79291 8.11539 9.26443 7.34494 9.91987C6.57449 10.5753 5.96329 11.3975 5.55763 12.3241C5.15197 13.2507 4.96249 14.2575 5.00354 15.2682C5.04459 16.2789 5.31509 17.267 5.79456 18.1577" stroke="#06050B" stroke-width="2" stroke-linecap="round" stroke-linejoin="round"/>
</svg>
