<svg width="21" height="19" viewBox="0 0 21 19" fill="none" xmlns="http://www.w3.org/2000/svg">
<path d="M13.8167 4.4833C13.8167 3.61541 13.8167 3.18141 13.7213 2.82536C13.4623 1.85902 12.7076 1.10437 11.7413 0.845423C11.3853 0.749999 10.9513 0.75 10.0833 0.75C9.2153 0.75 8.78141 0.749999 8.42525 0.845423C7.45902 1.10437 6.70426 1.85902 6.44542 2.82536C6.35 3.18141 6.35 3.61541 6.35 4.4833M10.83 14.2833H15.4033C15.6647 14.2833 15.7954 14.2833 15.8952 14.2324C15.983 14.1878 16.0544 14.1163 16.0992 14.0285C16.15 13.9287 16.15 13.798 16.15 13.5367V11.2967C16.15 11.0353 16.15 10.9046 16.0992 10.8048C16.0544 10.717 15.983 10.6456 15.8952 10.6008C15.7954 10.55 15.6647 10.55 15.4033 10.55H10.83C10.5686 10.55 10.438 10.55 10.3381 10.6008C10.2503 10.6456 10.1789 10.717 10.1341 10.8048C10.0833 10.9046 10.0833 11.0353 10.0833 11.2967V13.5367C10.0833 13.798 10.0833 13.9287 10.1341 14.0285C10.1789 14.1163 10.2503 14.1878 10.3381 14.2324C10.438 14.2833 10.5686 14.2833 10.83 14.2833ZM5.23 17.55H14.9367C16.5048 17.55 17.2889 17.55 17.8878 17.2448C18.4146 16.9763 18.843 16.548 19.1115 16.0212C19.4167 15.4222 19.4167 14.6381 19.4167 13.07V8.9633C19.4167 7.39518 19.4167 6.61107 19.1115 6.01221C18.843 5.48536 18.4146 5.05696 17.8878 4.7885C17.2889 4.4833 16.5048 4.4833 14.9367 4.4833H5.23C3.66189 4.4833 2.87778 4.4833 2.2788 4.7885C1.75195 5.05696 1.32366 5.48536 1.0552 6.01221C0.749999 6.61107 0.75 7.39518 0.75 8.9633V13.07C0.75 14.6381 0.749999 15.4222 1.0552 16.0212C1.32366 16.548 1.75195 16.9763 2.2788 17.2448C2.87778 17.55 3.66189 17.55 5.23 17.55Z" stroke="#7B5DFF" stroke-width="1.5" stroke-linecap="round" stroke-linejoin="round"/>
</svg>
