<svg width="21" height="20" viewBox="0 0 21 20" fill="none" xmlns="http://www.w3.org/2000/svg">
<path d="M10.0833 13.8167C10.0833 16.394 12.1727 18.4833 14.75 18.4833C17.3273 18.4833 19.4167 16.394 19.4167 13.8167C19.4167 11.2394 17.3273 9.15 14.75 9.15C12.1727 9.15 10.0833 11.2394 10.0833 13.8167ZM10.0833 13.8167C10.0833 12.7659 10.4306 11.7962 11.0167 11.0163V2.6167M10.0833 13.8167C10.0833 14.587 10.27 15.3137 10.6005 15.9541C9.81416 16.6183 7.99808 17.0833 5.8833 17.0833C3.04824 17.0833 0.75 16.2476 0.75 15.2167V2.6167M11.0167 2.6167C11.0167 3.64755 8.71835 4.4833 5.8833 4.4833C3.04824 4.4833 0.75 3.64755 0.75 2.6167M11.0167 2.6167C11.0167 1.58574 8.71835 0.75 5.8833 0.75C3.04824 0.75 0.75 1.58574 0.75 2.6167M0.75 11.0167C0.75 12.0476 3.04824 12.8833 5.8833 12.8833C7.9264 12.8833 9.69073 12.4493 10.517 11.821M11.0167 6.8167C11.0167 7.84755 8.71835 8.6833 5.8833 8.6833C3.04824 8.6833 0.75 7.84755 0.75 6.8167" stroke="#7B5DFF" stroke-width="1.5" stroke-linecap="round" stroke-linejoin="round"/>
</svg>
