<svg width="40" height="40" viewBox="0 0 40 40" fill="none" xmlns="http://www.w3.org/2000/svg">
<path d="M20 33.334V36.6673" stroke="#06050B" stroke-width="2" stroke-linecap="round" stroke-linejoin="round"/>
<path d="M20 3.33398V6.66732" stroke="#06050B" stroke-width="2" stroke-linecap="round" stroke-linejoin="round"/>
<path d="M28.3335 33.334V36.6673" stroke="#06050B" stroke-width="2" stroke-linecap="round" stroke-linejoin="round"/>
<path d="M28.3335 3.33398V6.66732" stroke="#06050B" stroke-width="2" stroke-linecap="round" stroke-linejoin="round"/>
<path d="M3.3335 20H6.66683" stroke="#06050B" stroke-width="2" stroke-linecap="round" stroke-linejoin="round"/>
<path d="M3.3335 28.334H6.66683" stroke="#06050B" stroke-width="2" stroke-linecap="round" stroke-linejoin="round"/>
<path d="M3.3335 11.666H6.66683" stroke="#06050B" stroke-width="2" stroke-linecap="round" stroke-linejoin="round"/>
<path d="M33.3335 20H36.6668" stroke="#06050B" stroke-width="2" stroke-linecap="round" stroke-linejoin="round"/>
<path d="M33.3335 28.334H36.6668" stroke="#06050B" stroke-width="2" stroke-linecap="round" stroke-linejoin="round"/>
<path d="M33.3335 11.666H36.6668" stroke="#06050B" stroke-width="2" stroke-linecap="round" stroke-linejoin="round"/>
<path d="M11.6665 33.334V36.6673" stroke="#06050B" stroke-width="2" stroke-linecap="round" stroke-linejoin="round"/>
<path d="M11.6665 3.33398V6.66732" stroke="#06050B" stroke-width="2" stroke-linecap="round" stroke-linejoin="round"/>
<path d="M29.9998 6.66602H9.99984C8.15889 6.66602 6.6665 8.1584 6.6665 9.99935V29.9993C6.6665 31.8403 8.15889 33.3327 9.99984 33.3327H29.9998C31.8408 33.3327 33.3332 31.8403 33.3332 29.9993V9.99935C33.3332 8.1584 31.8408 6.66602 29.9998 6.66602Z" stroke="#06050B" stroke-width="2" stroke-linecap="round" stroke-linejoin="round"/>
<path d="M25.0002 13.334H15.0002C14.0797 13.334 13.3335 14.0802 13.3335 15.0007V25.0007C13.3335 25.9211 14.0797 26.6673 15.0002 26.6673H25.0002C25.9206 26.6673 26.6668 25.9211 26.6668 25.0007V15.0007C26.6668 14.0802 25.9206 13.334 25.0002 13.334Z" stroke="#06050B" stroke-width="2" stroke-linecap="round" stroke-linejoin="round"/>
</svg>
