<svg width="56" height="56" viewBox="0 0 56 56" fill="none" xmlns="http://www.w3.org/2000/svg">
<path opacity="0.3" d="M44.8927 13.0193H43.9593L36.0727 5.13266C35.4427 4.50266 34.416 4.50266 33.7627 5.13266C33.1327 5.76266 33.1327 6.78933 33.7627 7.44266L39.3393 13.0193H16.6593L22.236 7.44266C22.866 6.81266 22.866 5.786 22.236 5.13266C21.606 4.50266 20.5793 4.50266 19.926 5.13266L12.0627 13.0193H11.1293C9.02935 13.0193 4.66602 13.0193 4.66602 18.9926C4.66602 21.256 5.13268 22.7493 6.11268 23.7293C6.67268 24.3126 7.34935 24.616 8.07268 24.7793C8.74935 24.9426 9.47268 24.966 10.1727 24.966H45.826C46.5493 24.966 47.226 24.9193 47.8793 24.7793C49.8393 24.3126 51.3327 22.9126 51.3327 18.9926C51.3327 13.0193 46.9693 13.0193 44.8927 13.0193Z" fill="#6243FF"/>
<path d="M45.8509 24.9659H10.1742C9.49755 24.9659 8.75089 24.9426 8.07422 24.7559L11.0142 42.6993C11.6676 46.7126 13.4176 51.3326 21.1876 51.3326H34.2776C42.1409 51.3326 43.5409 47.3893 44.3809 42.9793L47.9042 24.7559C47.2509 24.9193 46.5509 24.9659 45.8509 24.9659ZM28.0009 43.1659C22.5409 43.1659 18.0842 38.7093 18.0842 33.2493C18.0842 32.2926 18.8776 31.4993 19.8342 31.4993C20.7909 31.4993 21.5842 32.2926 21.5842 33.2493C21.5842 36.7959 24.4542 39.6659 28.0009 39.6659C31.5476 39.6659 34.4176 36.7959 34.4176 33.2493C34.4176 32.2926 35.2109 31.4993 36.1676 31.4993C37.1242 31.4993 37.9176 32.2926 37.9176 33.2493C37.9176 38.7093 33.4609 43.1659 28.0009 43.1659Z" fill="#6243FF"/>
</svg>
