<svg width="24" height="24" viewBox="0 0 24 24" fill="none" xmlns="http://www.w3.org/2000/svg">
<path d="M4.00392 21.749C3.54692 21.749 3.10311 21.569 2.76711 21.233C2.29311 20.76 2.13011 20.073 2.34011 19.441L3.18093 16.94C3.27893 16.633 3.27005 16.325 3.15505 16.082C2.56305 14.809 2.25295 13.399 2.25295 11.999C2.25295 6.62402 6.626 2.25 12.001 2.25C12.371 2.25 12.7311 2.272 13.0911 2.315C13.5031 2.365 13.7951 2.73902 13.7451 3.15002C13.6951 3.56102 13.3112 3.85302 12.9112 3.80402C12.6102 3.76702 12.31 3.74902 12.001 3.74902C7.453 3.74902 3.75295 7.44899 3.75295 11.998C3.75295 13.181 4.01596 14.372 4.51296 15.442C4.78896 16.023 4.82493 16.722 4.60793 17.405L3.76393 19.916C3.72193 20.041 3.78614 20.13 3.82814 20.172C3.87014 20.214 3.95998 20.278 4.08498 20.236L6.58303 19.397C7.27803 19.176 7.97696 19.21 8.56496 19.491C9.62696 19.985 10.818 20.248 12.001 20.248C16.55 20.248 20.25 16.548 20.25 11.999C20.25 11.69 20.2321 11.39 20.1961 11.089C20.1461 10.678 20.4381 10.304 20.8501 10.254C21.2541 10.205 21.6341 10.497 21.6841 10.908C21.7281 11.268 21.749 11.627 21.749 11.998C21.749 17.373 17.376 21.747 12 21.747C10.601 21.747 9.19107 21.436 7.92507 20.847C7.67707 20.728 7.36707 20.72 7.05007 20.821L4.56105 21.657C4.37705 21.719 4.18892 21.749 4.00392 21.749ZM21.749 5C21.749 3.484 20.516 2.25 18.999 2.25C17.482 2.25 16.249 3.484 16.249 5C16.249 6.516 17.482 7.75 18.999 7.75C20.516 7.75 21.749 6.516 21.749 5ZM20.249 5C20.249 5.689 19.688 6.25 18.999 6.25C18.31 6.25 17.749 5.689 17.749 5C17.749 4.311 18.31 3.75 18.999 3.75C19.688 3.75 20.249 4.311 20.249 5ZM16.749 10C16.749 9.586 16.413 9.25 15.999 9.25H7.99904C7.58504 9.25 7.24904 9.586 7.24904 10C7.24904 10.414 7.58504 10.75 7.99904 10.75H15.999C16.413 10.75 16.749 10.414 16.749 10ZM13.749 14C13.749 13.586 13.413 13.25 12.999 13.25H7.99904C7.58504 13.25 7.24904 13.586 7.24904 14C7.24904 14.414 7.58504 14.75 7.99904 14.75H12.999C13.413 14.75 13.749 14.414 13.749 14Z" fill="white"/>
</svg>
