<svg width="21" height="21" viewBox="0 0 21 21" fill="none" xmlns="http://www.w3.org/2000/svg">
<path d="M1.75419 5.86728L5.7564 8.72597C5.96461 8.8747 6.06877 8.94907 6.17774 8.96621C6.27361 8.98133 6.37184 8.9661 6.45864 8.92275C6.55742 8.87347 6.63414 8.77111 6.78769 8.56637L7.63341 7.43875C7.67686 7.38085 7.69859 7.35195 7.72401 7.32698C7.74675 7.3048 7.77161 7.28498 7.79827 7.26784C7.82829 7.24858 7.86133 7.23391 7.92752 7.20445L11.5382 5.59971C11.6878 5.53319 11.7627 5.49992 11.8192 5.44795C11.869 5.40203 11.9083 5.34581 11.9343 5.28309C11.9637 5.21219 11.969 5.13055 11.9799 4.96703L12.2443 1.00144M11.4833 11.4834L13.9249 12.5298C14.2083 12.6511 14.3498 12.7118 14.4249 12.8127C14.4907 12.9012 14.5231 13.0101 14.5163 13.1202C14.5085 13.2456 14.4231 13.3739 14.252 13.6302L13.1049 15.3509C13.024 15.4724 12.9834 15.5332 12.9299 15.5772C12.8825 15.6162 12.8279 15.6454 12.7692 15.6632C12.7029 15.6834 12.6298 15.6834 12.4837 15.6834H10.6215C10.4279 15.6834 10.3312 15.6834 10.2488 15.651C10.1761 15.6224 10.1117 15.576 10.0617 15.5161C10.0049 15.4482 9.97432 15.3564 9.91317 15.1728L9.24778 13.1767C9.21171 13.0684 9.19368 13.0143 9.18886 12.9593C9.18472 12.9105 9.18819 12.8613 9.19928 12.8136C9.21171 12.7599 9.23725 12.7088 9.28832 12.6068L9.79366 11.5959C9.89637 11.3906 9.94778 11.2879 10.0268 11.2241C10.0965 11.1679 10.1808 11.133 10.2699 11.1234C10.3709 11.1126 10.4798 11.1489 10.6976 11.2214L11.4833 11.4834ZM19.4166 10.0834C19.4166 15.238 15.238 19.4167 10.0833 19.4167C4.92861 19.4167 0.75 15.238 0.75 10.0834C0.75 4.92872 4.92861 0.75 10.0833 0.75C15.238 0.75 19.4166 4.92872 19.4166 10.0834Z" stroke="#7B5DFF" stroke-width="1.5" stroke-linecap="round" stroke-linejoin="round"/>
</svg>
