<svg width="22" height="20" viewBox="0 0 22 20" fill="none" xmlns="http://www.w3.org/2000/svg">
<path d="M11.7186 0.701481L14.0033 5.30977C14.1751 5.65684 14.5069 5.89687 14.8916 5.95216L20.1657 6.71447C21.1328 6.85447 21.5187 8.04039 20.8187 8.7204L17.0057 12.4205C16.7269 12.6911 16.5998 13.0805 16.6657 13.4628L17.5374 18.5264C17.7139 19.5535 16.6351 20.3371 15.7103 19.8535L11.1362 17.4594C10.7927 17.2794 10.3832 17.2794 10.0409 17.4594L5.47022 19.8511C4.54432 20.3359 3.46192 19.5511 3.63957 18.5217L4.51145 13.4628C4.57733 13.0805 4.4502 12.6911 4.17137 12.4205L0.358412 8.7204C-0.342775 8.04039 0.0430328 6.85447 1.01128 6.71447L6.28551 5.95216C6.66905 5.89687 7.00082 5.65684 7.17377 5.30977L9.45853 0.701481C9.91853 -0.233827 11.255 -0.233827 11.7186 0.701481Z" fill="white"/>
</svg>
