<svg width="20" height="19" viewBox="0 0 20 19" fill="none" xmlns="http://www.w3.org/2000/svg">
<path d="M7.0605 4.29391C7.16194 3.88641 7.74113 3.88641 7.8425 4.29391C8.67088 7.62191 11.2694 10.2204 14.5974 11.0488C15.0049 11.1502 15.0049 11.7293 14.5974 11.8308C11.2694 12.6592 8.67088 15.2577 7.8425 18.5857C7.74113 18.9932 7.16194 18.9932 7.0605 18.5857C6.23219 15.2577 3.63363 12.6592 0.305625 11.8308C-0.101875 11.7293 -0.101875 11.1502 0.305625 11.0488C3.63363 10.2204 6.23219 7.62191 7.0605 4.29391Z" fill="#F1F4FF"/>
<path d="M14.9148 0.312234C15.0183 -0.104078 15.61 -0.104078 15.7137 0.312234C16.1367 2.01211 17.464 3.33936 19.1638 3.76242C19.5802 3.86605 19.5802 4.45774 19.1638 4.5613C17.464 4.98442 16.1367 6.31167 15.7137 8.01155C15.61 8.4278 15.0183 8.4278 14.9148 8.01155C14.4917 6.31167 13.1644 4.98442 11.4645 4.5613C11.0483 4.45774 11.0483 3.86605 11.4645 3.76242C13.1644 3.33936 14.4917 2.01211 14.9148 0.312234Z" fill="#F1F4FF"/>
</svg>
