<svg width="26" height="24" viewBox="0 0 26 24" fill="none" xmlns="http://www.w3.org/2000/svg">
<path d="M10.7799 2.44141L13.6915 10.3098L21.5599 13.2213L13.6915 16.1329L10.7799 24.0013L7.86837 16.1329L0 13.2213L7.86837 10.3098L10.7799 2.44141Z" fill="url(#paint0_linear_4906_4214)"/>
<path d="M21.5597 0L22.7578 3.23765L25.9954 4.43569L22.7578 5.63373L21.5597 8.87138L20.3617 5.63373L17.124 4.43569L20.3617 3.23765L21.5597 0Z" fill="url(#paint1_linear_4906_4214)"/>
<path d="M21.5597 15.1289L22.7578 18.3666L25.9954 19.5646L22.7578 20.7626L21.5597 24.0003L20.3617 20.7626L17.124 19.5646L20.3617 18.3666L21.5597 15.1289Z" fill="url(#paint2_linear_4906_4214)"/>
<defs>
<linearGradient id="paint0_linear_4906_4214" x1="3.34906" y1="-0.560015" x2="27.5835" y2="14.8372" gradientUnits="userSpaceOnUse">
<stop stop-color="#AEFF5D"/>
<stop offset="1" stop-color="#5DFFD9"/>
</linearGradient>
<linearGradient id="paint1_linear_4906_4214" x1="18.5021" y1="-1.23502" x2="28.474" y2="5.1006" gradientUnits="userSpaceOnUse">
<stop stop-color="#AEFF5D"/>
<stop offset="1" stop-color="#5DFFD9"/>
</linearGradient>
<linearGradient id="paint2_linear_4906_4214" x1="18.5021" y1="13.8939" x2="28.474" y2="20.2295" gradientUnits="userSpaceOnUse">
<stop stop-color="#AEFF5D"/>
<stop offset="1" stop-color="#5DFFD9"/>
</linearGradient>
</defs>
</svg>
