<svg width="16" height="20" viewBox="0 0 16 20" fill="none" xmlns="http://www.w3.org/2000/svg">
<path d="M7.75903 8.5C5.41503 8.5 3.50903 6.593 3.50903 4.25C3.50903 1.907 5.41503 0 7.75903 0C10.103 0 12.009 1.907 12.009 4.25C12.009 6.593 10.103 8.5 7.75903 8.5ZM7.75903 1.5C6.24203 1.5 5.00903 2.733 5.00903 4.25C5.00903 5.767 6.24203 7 7.75903 7C9.27603 7 10.509 5.767 10.509 4.25C10.509 2.733 9.27503 1.5 7.75903 1.5ZM11.7469 19.5H3.75305C1.33305 19.5 0 18.175 0 15.769C0 13.108 1.506 10 5.75 10H9.75C13.994 10 15.5 13.107 15.5 15.769C15.5 18.175 14.1669 19.5 11.7469 19.5ZM5.75 11.5C1.807 11.5 1.5 14.767 1.5 15.769C1.5 17.333 2.17405 18 3.75305 18H11.7469C13.3259 18 14 17.333 14 15.769C14 14.768 13.693 11.5 9.75 11.5H5.75Z" fill="#101841"/>
</svg>
