<svg width="186" height="74" viewBox="0 0 186 74" fill="none" xmlns="http://www.w3.org/2000/svg">
<rect x="5.5" y="5.5" width="63" height="63" rx="7.5" fill="white" stroke="#E5E5E5"/>
<g opacity="0.5" filter="url(#filter0_f_4906_6119)">
<rect x="15" y="15" width="44" height="44" rx="22" fill="url(#paint0_linear_4906_6119)"/>
</g>
<rect x="13.1289" y="13.1289" width="48" height="48" rx="8" fill="url(#paint1_linear_4906_6119)"/>
<rect x="13.6289" y="13.6289" width="47" height="47" rx="7.5" stroke="white" stroke-opacity="0.5"/>
<path fill-rule="evenodd" clip-rule="evenodd" d="M40.0075 45.9586H36.4992H33.2261C29.4809 45.9586 26.445 42.9228 26.445 39.1776C26.445 35.4324 29.4809 32.3966 33.2261 32.3966C36.9713 32.3966 40.0071 35.4328 40.0071 39.1776V40.2261C40.0071 42.3475 41.7268 44.0676 43.8486 44.0676V39.1772C43.8486 33.3106 39.0927 28.5547 33.2261 28.5547C27.3594 28.5547 22.6035 33.3106 22.6035 39.1772C22.6035 45.0439 27.3594 49.7998 33.2261 49.7998H43.849C43.849 47.6783 42.1289 45.9586 40.0075 45.9586Z" fill="white"/>
<path d="M33.2259 35.8535C31.3898 35.8535 29.9014 37.3419 29.9014 39.178C29.9014 41.0142 31.3898 42.5026 33.2259 42.5026C35.062 42.5026 36.5504 41.0142 36.5504 39.178C36.5507 37.3419 35.062 35.8535 33.2259 35.8535ZM33.2259 41.1635C32.1312 41.1635 31.2404 40.273 31.2404 39.178C31.2404 38.0833 32.1312 37.1926 33.2259 37.1926C34.3209 37.1926 35.2116 38.0833 35.2116 39.178C35.2116 40.273 34.3209 41.1635 33.2259 41.1635Z" fill="white"/>
<path fill-rule="evenodd" clip-rule="evenodd" d="M46.6953 34.8607V49.7993C48.8167 49.7993 50.5368 48.0796 50.5368 45.9582V31.0195C48.4154 31.0195 46.6953 32.7392 46.6953 34.8607Z" fill="white"/>
<path d="M48.6158 29.759C50.1511 29.759 51.3957 28.5144 51.3957 26.9791C51.3957 25.4438 50.1511 24.1992 48.6158 24.1992C47.0805 24.1992 45.8359 25.4438 45.8359 26.9791C45.8359 28.5144 47.0805 29.759 48.6158 29.759Z" fill="white"/>
<path d="M103.04 44H88.16L85.08 51H80.96L93.64 23H97.6L110.32 51H106.12L103.04 44ZM101.64 40.8L95.6 27.08L89.56 40.8H101.64ZM114.497 23H118.497V51H114.497V23ZM139.52 51.32C136.693 51.32 134.146 50.7067 131.88 49.48C129.613 48.2267 127.826 46.5067 126.52 44.32C125.24 42.1333 124.6 39.6933 124.6 37C124.6 34.3067 125.24 31.8667 126.52 29.68C127.826 27.4933 129.613 25.7867 131.88 24.56C134.146 23.3067 136.693 22.68 139.52 22.68C142.32 22.68 144.853 23.3067 147.12 24.56C149.386 25.7867 151.16 27.4933 152.44 29.68C153.72 31.84 154.36 34.28 154.36 37C154.36 39.72 153.72 42.1733 152.44 44.36C151.16 46.52 149.386 48.2267 147.12 49.48C144.853 50.7067 142.32 51.32 139.52 51.32ZM139.52 47.76C141.573 47.76 143.413 47.2933 145.04 46.36C146.693 45.4267 147.986 44.1467 148.92 42.52C149.88 40.8667 150.36 39.0267 150.36 37C150.36 34.9733 149.88 33.1467 148.92 31.52C147.986 29.8667 146.693 28.5733 145.04 27.64C143.413 26.7067 141.573 26.24 139.52 26.24C137.466 26.24 135.6 26.7067 133.92 27.64C132.266 28.5733 130.96 29.8667 130 31.52C129.066 33.1467 128.6 34.9733 128.6 37C128.6 39.0267 129.066 40.8667 130 42.52C130.96 44.1467 132.266 45.4267 133.92 46.36C135.6 47.2933 137.466 47.76 139.52 47.76ZM179.193 51L173.153 42.4C172.407 42.4533 171.82 42.48 171.393 42.48H164.473V51H160.473V23H171.393C175.02 23 177.873 23.8667 179.953 25.6C182.033 27.3333 183.073 29.72 183.073 32.76C183.073 34.92 182.54 36.76 181.473 38.28C180.407 39.8 178.887 40.9067 176.913 41.6L183.553 51H179.193ZM171.273 39.08C173.807 39.08 175.74 38.5333 177.073 37.44C178.407 36.3467 179.073 34.7867 179.073 32.76C179.073 30.7333 178.407 29.1867 177.073 28.12C175.74 27.0267 173.807 26.48 171.273 26.48H164.473V39.08H171.273Z" fill="#06050B"/>
<defs>
<filter id="filter0_f_4906_6119" x="0" y="0" width="74" height="74" filterUnits="userSpaceOnUse" color-interpolation-filters="sRGB">
<feFlood flood-opacity="0" result="BackgroundImageFix"/>
<feBlend mode="normal" in="SourceGraphic" in2="BackgroundImageFix" result="shape"/>
<feGaussianBlur stdDeviation="7.5" result="effect1_foregroundBlur_4906_6119"/>
</filter>
<linearGradient id="paint0_linear_4906_6119" x1="59" y1="50.1071" x2="15.5265" y2="14.3597" gradientUnits="userSpaceOnUse">
<stop stop-color="#A378FF"/>
<stop offset="1" stop-color="#1C4EFF"/>
</linearGradient>
<linearGradient id="paint1_linear_4906_6119" x1="61.1289" y1="51.4276" x2="13.7033" y2="12.4303" gradientUnits="userSpaceOnUse">
<stop stop-color="#A378FF"/>
<stop offset="1" stop-color="#1C4EFF"/>
</linearGradient>
</defs>
</svg>
