<svg width="167" height="56" viewBox="0 0 167 56" fill="none" xmlns="http://www.w3.org/2000/svg">
<g filter="url(#filter0_f_4906_4761)">
<rect x="6" y="6" width="44" height="44" rx="8" fill="url(#paint0_linear_4906_4761)"/>
</g>
<rect x="8.5" y="8.5" width="39" height="39" rx="7.5" fill="url(#paint1_linear_4906_4761)" stroke="#456FF8"/>
<path fill-rule="evenodd" clip-rule="evenodd" d="M31.0075 36.9586H27.4992H24.2261C20.4809 36.9586 17.445 33.9228 17.445 30.1776C17.445 26.4324 20.4809 23.3966 24.2261 23.3966C27.9713 23.3966 31.0071 26.4328 31.0071 30.1776V31.2261C31.0071 33.3475 32.7268 35.0676 34.8486 35.0676V30.1772C34.8486 24.3106 30.0927 19.5547 24.2261 19.5547C18.3594 19.5547 13.6035 24.3106 13.6035 30.1772C13.6035 36.0439 18.3594 40.7998 24.2261 40.7998H34.849C34.849 38.6783 33.1289 36.9586 31.0075 36.9586Z" fill="white"/>
<path d="M24.2259 26.8516C22.3898 26.8516 20.9014 28.34 20.9014 30.1761C20.9014 32.0122 22.3898 33.5006 24.2259 33.5006C26.062 33.5006 27.5504 32.0122 27.5504 30.1761C27.5507 28.34 26.062 26.8516 24.2259 26.8516ZM24.2259 32.1616C23.1312 32.1616 22.2404 31.271 22.2404 30.1761C22.2404 29.0814 23.1312 28.1906 24.2259 28.1906C25.3209 28.1906 26.2116 29.0814 26.2116 30.1761C26.2116 31.271 25.3209 32.1616 24.2259 32.1616Z" fill="white"/>
<path fill-rule="evenodd" clip-rule="evenodd" d="M37.6953 25.8607V40.7993C39.8167 40.7993 41.5368 39.0796 41.5368 36.9582V22.0195C39.4154 22.0195 37.6953 23.7392 37.6953 25.8607Z" fill="white"/>
<path d="M39.6158 20.759C41.1511 20.759 42.3957 19.5144 42.3957 17.9791C42.3957 16.4438 41.1511 15.1992 39.6158 15.1992C38.0805 15.1992 36.8359 16.4438 36.8359 17.9791C36.8359 19.5144 38.0805 20.759 39.6158 20.759Z" fill="white"/>
<path d="M84.04 35H69.16L66.08 42H61.96L74.64 14H78.6L91.32 42H87.12L84.04 35ZM82.64 31.8L76.6 18.08L70.56 31.8H82.64ZM95.4969 14H99.4969V42H95.4969V14ZM120.52 42.32C117.693 42.32 115.146 41.7067 112.88 40.48C110.613 39.2267 108.826 37.5067 107.52 35.32C106.24 33.1333 105.6 30.6933 105.6 28C105.6 25.3067 106.24 22.8667 107.52 20.68C108.826 18.4933 110.613 16.7867 112.88 15.56C115.146 14.3067 117.693 13.68 120.52 13.68C123.32 13.68 125.853 14.3067 128.12 15.56C130.386 16.7867 132.16 18.4933 133.44 20.68C134.72 22.84 135.36 25.28 135.36 28C135.36 30.72 134.72 33.1733 133.44 35.36C132.16 37.52 130.386 39.2267 128.12 40.48C125.853 41.7067 123.32 42.32 120.52 42.32ZM120.52 38.76C122.573 38.76 124.413 38.2933 126.04 37.36C127.693 36.4267 128.986 35.1467 129.92 33.52C130.88 31.8667 131.36 30.0267 131.36 28C131.36 25.9733 130.88 24.1467 129.92 22.52C128.986 20.8667 127.693 19.5733 126.04 18.64C124.413 17.7067 122.573 17.24 120.52 17.24C118.466 17.24 116.6 17.7067 114.92 18.64C113.266 19.5733 111.96 20.8667 111 22.52C110.066 24.1467 109.6 25.9733 109.6 28C109.6 30.0267 110.066 31.8667 111 33.52C111.96 35.1467 113.266 36.4267 114.92 37.36C116.6 38.2933 118.466 38.76 120.52 38.76ZM160.193 42L154.153 33.4C153.407 33.4533 152.82 33.48 152.393 33.48H145.473V42H141.473V14H152.393C156.02 14 158.873 14.8667 160.953 16.6C163.033 18.3333 164.073 20.72 164.073 23.76C164.073 25.92 163.54 27.76 162.473 29.28C161.407 30.8 159.887 31.9067 157.913 32.6L164.553 42H160.193ZM152.273 30.08C154.807 30.08 156.74 29.5333 158.073 28.44C159.407 27.3467 160.073 25.7867 160.073 23.76C160.073 21.7333 159.407 20.1867 158.073 19.12C156.74 18.0267 154.807 17.48 152.273 17.48H145.473V30.08H152.273Z" fill="#06050B"/>
<defs>
<filter id="filter0_f_4906_4761" x="0" y="0" width="56" height="56" filterUnits="userSpaceOnUse" color-interpolation-filters="sRGB">
<feFlood flood-opacity="0" result="BackgroundImageFix"/>
<feBlend mode="normal" in="SourceGraphic" in2="BackgroundImageFix" result="shape"/>
<feGaussianBlur stdDeviation="3" result="effect1_foregroundBlur_4906_4761"/>
</filter>
<linearGradient id="paint0_linear_4906_4761" x1="50" y1="41.1071" x2="6.52655" y2="5.35965" gradientUnits="userSpaceOnUse">
<stop stop-color="#A378FF"/>
<stop offset="1" stop-color="#1C4EFF"/>
</linearGradient>
<linearGradient id="paint1_linear_4906_4761" x1="48" y1="39.9156" x2="8.47868" y2="7.41787" gradientUnits="userSpaceOnUse">
<stop stop-color="#A378FF"/>
<stop offset="1" stop-color="#1C4EFF"/>
</linearGradient>
</defs>
</svg>
