<svg width="225" height="48" viewBox="0 0 225 48" fill="none" xmlns="http://www.w3.org/2000/svg">
<path d="M23.6698 0.660156C10.5974 0.660156 0 11.2579 0 24.3306C0 37.4033 10.5974 48.001 23.6698 48.001C28.6054 48.001 33.1864 46.4891 36.979 43.9051V48.001H47.3401V24.3306C47.3401 11.2573 36.7427 0.660156 23.6698 0.660156ZM23.6698 42.8626C13.4354 42.8626 5.13828 34.5657 5.13828 24.3306C5.13828 14.096 13.4354 5.79857 23.6698 5.79857C33.9041 5.79857 42.2012 14.0954 42.2012 24.3306C42.2012 34.5652 33.9046 42.8626 23.6698 42.8626Z" fill="#4E0055"/>
<path d="M23.6664 21.5586C22.1375 21.5586 20.8934 22.8027 20.8934 24.3316C20.8934 25.8606 22.1375 27.1047 23.6664 27.1047C25.1953 27.1047 26.4399 25.8606 26.4399 24.3316C26.4399 22.8027 25.1959 21.5586 23.6664 21.5586Z" fill="url(#paint0_linear_4001_9919)"/>
<path d="M23.6702 16.8203C19.5219 16.8203 16.1592 20.1831 16.1592 24.3315C16.1592 28.48 19.5219 31.8428 23.6702 31.8428C27.8185 31.8428 31.1812 28.48 31.1812 24.3315C31.1818 20.1831 27.8185 16.8203 23.6702 16.8203ZM23.6702 28.8174C21.197 28.8174 19.1845 26.8054 19.1845 24.3315C19.1845 21.8582 21.197 19.8457 23.6702 19.8457C26.144 19.8457 28.1565 21.8582 28.1565 24.3315C28.1565 26.8054 26.144 28.8174 23.6702 28.8174Z" fill="url(#paint1_linear_4001_9919)"/>
<path d="M55.7689 12.2259C53.749 12.2259 51.9203 11.4117 50.5884 10.0957V47.999H60.9494V10.0957C59.6181 11.4117 57.7894 12.2259 55.7689 12.2259Z" fill="#4E0055"/>
<path d="M55.767 3.25586C54.8855 3.25586 54.1678 3.97296 54.1678 4.85505C54.1678 5.73657 54.8849 6.45424 55.767 6.45424C56.6491 6.45424 57.3661 5.73657 57.3661 4.85505C57.3661 3.97353 56.6491 3.25586 55.767 3.25586Z" fill="url(#paint2_linear_4001_9919)"/>
<path d="M55.7647 0C53.0836 0 50.9102 2.17355 50.9102 4.85467C50.9102 7.53578 53.0836 9.70933 55.7647 9.70933C58.4457 9.70933 60.6192 7.53578 60.6192 4.85467C60.6198 2.17355 58.4463 0 55.7647 0ZM55.7647 8.16666C53.9383 8.16666 52.4528 6.68052 52.4528 4.85467C52.4528 3.02824 53.9383 1.54267 55.7647 1.54267C57.5911 1.54267 59.0766 3.02824 59.0766 4.85467C59.0766 6.68109 57.5911 8.16666 55.7647 8.16666Z" fill="url(#paint3_linear_4001_9919)"/>
<path d="M77.691 45L91.428 3.39H106.533L120.783 45H111.093L99.579 9.831L102.543 11.028H95.19L98.268 9.831L87.039 45H77.691ZM88.122 34.683L90.972 26.931H107.274L110.181 34.683H88.122ZM124.045 45V3.39H133.393V45H124.045ZM160.527 46.083C156.765 46.083 153.478 45.437 150.666 44.145C147.892 42.815 145.593 41.086 143.769 38.958C141.945 36.792 140.577 34.455 139.665 31.947C138.791 29.439 138.354 27.026 138.354 24.708V23.454C138.354 20.87 138.81 18.324 139.722 15.816C140.672 13.27 142.078 10.971 143.94 8.919C145.802 6.867 148.12 5.233 150.894 4.017C153.668 2.763 156.879 2.136 160.527 2.136C164.175 2.136 167.386 2.763 170.16 4.017C172.934 5.233 175.252 6.867 177.114 8.919C178.976 10.971 180.382 13.27 181.332 15.816C182.282 18.324 182.757 20.87 182.757 23.454V24.708C182.757 27.026 182.301 29.439 181.389 31.947C180.477 34.455 179.109 36.792 177.285 38.958C175.461 41.086 173.143 42.815 170.331 44.145C167.557 45.437 164.289 46.083 160.527 46.083ZM160.527 37.362C162.503 37.362 164.27 37.02 165.828 36.336C167.424 35.652 168.773 34.702 169.875 33.486C171.015 32.27 171.87 30.864 172.44 29.268C173.01 27.672 173.295 25.962 173.295 24.138C173.295 22.2 172.991 20.433 172.383 18.837C171.813 17.203 170.958 15.797 169.818 14.619C168.716 13.403 167.386 12.472 165.828 11.826C164.27 11.18 162.503 10.857 160.527 10.857C158.551 10.857 156.784 11.18 155.226 11.826C153.668 12.472 152.319 13.403 151.179 14.619C150.077 15.797 149.241 17.203 148.671 18.837C148.101 20.433 147.816 22.2 147.816 24.138C147.816 25.962 148.101 27.672 148.671 29.268C149.241 30.864 150.077 32.27 151.179 33.486C152.319 34.702 153.668 35.652 155.226 36.336C156.784 37.02 158.551 37.362 160.527 37.362ZM187.559 45V3.048H196.907V45H187.559ZM212.81 45L200.612 27.102H210.872L223.64 45H212.81ZM194.399 31.662V24.309H204.659C206.027 24.309 207.205 24.043 208.193 23.511C209.219 22.941 209.998 22.162 210.53 21.174C211.1 20.148 211.385 18.97 211.385 17.64C211.385 16.31 211.1 15.151 210.53 14.163C209.998 13.137 209.219 12.358 208.193 11.826C207.205 11.256 206.027 10.971 204.659 10.971H194.399V3.048H203.918C207.376 3.048 210.378 3.58 212.924 4.644C215.47 5.67 217.427 7.209 218.795 9.261C220.163 11.313 220.847 13.897 220.847 17.013V17.925C220.847 21.003 220.144 23.568 218.738 25.62C217.37 27.634 215.413 29.154 212.867 30.18C210.359 31.168 207.376 31.662 203.918 31.662H194.399Z" fill="#4E0055"/>
<defs>
<linearGradient id="paint0_linear_4001_9919" x1="24.4887" y1="17.4852" x2="21.4289" y2="17.9622" gradientUnits="userSpaceOnUse">
<stop stop-color="#C726FD"/>
<stop offset="1" stop-color="#FF1CA4"/>
</linearGradient>
<linearGradient id="paint1_linear_4001_9919" x1="25.8965" y1="5.78694" x2="17.6095" y2="7.07859" gradientUnits="userSpaceOnUse">
<stop stop-color="#C726FD"/>
<stop offset="1" stop-color="#FF1CA4"/>
</linearGradient>
<linearGradient id="paint2_linear_4001_9919" x1="56.241" y1="0.906783" x2="54.4766" y2="1.18178" gradientUnits="userSpaceOnUse">
<stop stop-color="#C726FD"/>
<stop offset="1" stop-color="#FF1CA4"/>
</linearGradient>
<linearGradient id="paint3_linear_4001_9919" x1="57.2036" y1="-7.1311" x2="51.8475" y2="-6.29628" gradientUnits="userSpaceOnUse">
<stop stop-color="#C726FD"/>
<stop offset="1" stop-color="#FF1CA4"/>
</linearGradient>
</defs>
</svg>
