<svg width="232" height="48" viewBox="0 0 232 48" fill="none" xmlns="http://www.w3.org/2000/svg">
<path d="M23.6698 0.660156C10.5974 0.660156 0 11.2579 0 24.3306C0 37.4033 10.5974 48.001 23.6698 48.001C28.6054 48.001 33.1864 46.4891 36.979 43.9051V48.001H47.3401V24.3306C47.3401 11.2573 36.7427 0.660156 23.6698 0.660156ZM23.6698 42.8626C13.4354 42.8626 5.13828 34.5657 5.13828 24.3306C5.13828 14.096 13.4354 5.79857 23.6698 5.79857C33.9041 5.79857 42.2012 14.0954 42.2012 24.3306C42.2012 34.5652 33.9046 42.8626 23.6698 42.8626Z" fill="#06050B"/>
<path d="M23.6665 21.5586C22.1376 21.5586 20.8936 22.8027 20.8936 24.3316C20.8936 25.8606 22.1376 27.1047 23.6665 27.1047C25.1954 27.1047 26.44 25.8606 26.44 24.3316C26.44 22.8027 25.196 21.5586 23.6665 21.5586Z" fill="#06050B"/>
<path d="M23.6702 16.8203C19.5219 16.8203 16.1592 20.1831 16.1592 24.3315C16.1592 28.48 19.5219 31.8428 23.6702 31.8428C27.8185 31.8428 31.1812 28.48 31.1812 24.3315C31.1818 20.1831 27.8185 16.8203 23.6702 16.8203ZM23.6702 28.8174C21.197 28.8174 19.1845 26.8054 19.1845 24.3315C19.1845 21.8582 21.197 19.8457 23.6702 19.8457C26.144 19.8457 28.1565 21.8582 28.1565 24.3315C28.1565 26.8054 26.144 28.8174 23.6702 28.8174Z" fill="url(#paint0_linear_4001_7457)"/>
<path d="M55.7694 12.2259C53.7495 12.2259 51.9208 11.4117 50.5889 10.0957V47.999H60.9499V10.0957C59.6185 11.4117 57.7899 12.2259 55.7694 12.2259Z" fill="#06050B"/>
<path d="M55.7671 3.25586C54.8856 3.25586 54.168 3.97296 54.168 4.85505C54.168 5.73657 54.885 6.45424 55.7671 6.45424C56.6492 6.45424 57.3663 5.73657 57.3663 4.85505C57.3663 3.97353 56.6492 3.25586 55.7671 3.25586Z" fill="#06050B"/>
<path d="M55.7647 0C53.0836 0 50.9102 2.17355 50.9102 4.85467C50.9102 7.53578 53.0836 9.70933 55.7647 9.70933C58.4457 9.70933 60.6192 7.53578 60.6192 4.85467C60.6198 2.17355 58.4463 0 55.7647 0ZM55.7647 8.16666C53.9383 8.16666 52.4528 6.68052 52.4528 4.85467C52.4528 3.02824 53.9383 1.54267 55.7647 1.54267C57.5911 1.54267 59.0766 3.02824 59.0766 4.85467C59.0766 6.68109 57.5911 8.16666 55.7647 8.16666Z" fill="url(#paint1_linear_4001_7457)"/>
<path d="M77.6902 45L91.4272 3.39H106.532L120.782 45H111.092L99.5782 9.831L102.542 11.028H95.1892L98.2672 9.831L87.0382 45H77.6902ZM88.1212 34.683L90.9712 26.931H107.273L110.18 34.683H88.1212ZM126.324 45V3.39H135.672V45H126.324ZM165.086 46.083C161.324 46.083 158.037 45.437 155.225 44.145C152.451 42.815 150.152 41.086 148.328 38.958C146.504 36.792 145.136 34.455 144.224 31.947C143.35 29.439 142.913 27.026 142.913 24.708V23.454C142.913 20.87 143.369 18.324 144.281 15.816C145.231 13.27 146.637 10.971 148.499 8.919C150.361 6.867 152.679 5.233 155.453 4.017C158.227 2.763 161.438 2.136 165.086 2.136C168.734 2.136 171.945 2.763 174.719 4.017C177.493 5.233 179.811 6.867 181.673 8.919C183.535 10.971 184.941 13.27 185.891 15.816C186.841 18.324 187.316 20.87 187.316 23.454V24.708C187.316 27.026 186.86 29.439 185.948 31.947C185.036 34.455 183.668 36.792 181.844 38.958C180.02 41.086 177.702 42.815 174.89 44.145C172.116 45.437 168.848 46.083 165.086 46.083ZM165.086 37.362C167.062 37.362 168.829 37.02 170.387 36.336C171.983 35.652 173.332 34.702 174.434 33.486C175.574 32.27 176.429 30.864 176.999 29.268C177.569 27.672 177.854 25.962 177.854 24.138C177.854 22.2 177.55 20.433 176.942 18.837C176.372 17.203 175.517 15.797 174.377 14.619C173.275 13.403 171.945 12.472 170.387 11.826C168.829 11.18 167.062 10.857 165.086 10.857C163.11 10.857 161.343 11.18 159.785 11.826C158.227 12.472 156.878 13.403 155.738 14.619C154.636 15.797 153.8 17.203 153.23 18.837C152.66 20.433 152.375 22.2 152.375 24.138C152.375 25.962 152.66 27.672 153.23 29.268C153.8 30.864 154.636 32.27 155.738 33.486C156.878 34.702 158.227 35.652 159.785 36.336C161.343 37.02 163.11 37.362 165.086 37.362ZM194.399 45V3.048H203.747V45H194.399ZM219.65 45L207.452 27.102H217.712L230.48 45H219.65ZM201.239 31.662V24.309H211.499C212.867 24.309 214.045 24.043 215.033 23.511C216.059 22.941 216.838 22.162 217.37 21.174C217.94 20.148 218.225 18.97 218.225 17.64C218.225 16.31 217.94 15.151 217.37 14.163C216.838 13.137 216.059 12.358 215.033 11.826C214.045 11.256 212.867 10.971 211.499 10.971H201.239V3.048H210.758C214.216 3.048 217.218 3.58 219.764 4.644C222.31 5.67 224.267 7.209 225.635 9.261C227.003 11.313 227.687 13.897 227.687 17.013V17.925C227.687 21.003 226.984 23.568 225.578 25.62C224.21 27.634 222.253 29.154 219.707 30.18C217.199 31.168 214.216 31.662 210.758 31.662H201.239Z" fill="#06050B"/>
<defs>
<linearGradient id="paint0_linear_4001_7457" x1="31.1812" y1="28.8066" x2="16.3386" y2="16.6021" gradientUnits="userSpaceOnUse">
<stop stop-color="#A378FF"/>
<stop offset="1" stop-color="#1C4EFF"/>
</linearGradient>
<linearGradient id="paint1_linear_4001_7457" x1="60.6192" y1="7.74697" x2="51.0261" y2="-0.141032" gradientUnits="userSpaceOnUse">
<stop stop-color="#A378FF"/>
<stop offset="1" stop-color="#1C4EFF"/>
</linearGradient>
</defs>
</svg>
