<svg width="213" height="80" viewBox="0 0 213 80" fill="none" xmlns="http://www.w3.org/2000/svg">
<rect width="213" height="80" rx="40" fill="#E5E5E5"/>
<rect x="8.5" y="8.5" width="63" height="63" rx="31.5" fill="white" stroke="#E5E5E5"/>
<g opacity="0.5" filter="url(#filter0_f_4906_3313)">
<rect x="18" y="18" width="44" height="44" rx="22" fill="url(#paint0_linear_4906_3313)"/>
</g>
<rect x="16.1289" y="16.1289" width="48" height="48" rx="24" fill="url(#paint1_linear_4906_3313)"/>
<rect x="16.6289" y="16.6289" width="47" height="47" rx="23.5" stroke="white" stroke-opacity="0.5"/>
<path fill-rule="evenodd" clip-rule="evenodd" d="M43.0075 48.9586H39.4992H36.2261C32.4809 48.9586 29.445 45.9228 29.445 42.1776C29.445 38.4324 32.4809 35.3966 36.2261 35.3966C39.9713 35.3966 43.0071 38.4328 43.0071 42.1776V43.2261C43.0071 45.3475 44.7268 47.0676 46.8486 47.0676V42.1772C46.8486 36.3106 42.0927 31.5547 36.2261 31.5547C30.3594 31.5547 25.6035 36.3106 25.6035 42.1772C25.6035 48.0439 30.3594 52.7998 36.2261 52.7998H46.849C46.849 50.6783 45.1289 48.9586 43.0075 48.9586Z" fill="#06050B"/>
<path d="M36.2259 38.8535C34.3898 38.8535 32.9014 40.3419 32.9014 42.178C32.9014 44.0142 34.3898 45.5026 36.2259 45.5026C38.062 45.5026 39.5504 44.0142 39.5504 42.178C39.5507 40.3419 38.062 38.8535 36.2259 38.8535ZM36.2259 44.1635C35.1312 44.1635 34.2404 43.273 34.2404 42.178C34.2404 41.0833 35.1312 40.1926 36.2259 40.1926C37.3209 40.1926 38.2116 41.0833 38.2116 42.178C38.2116 43.273 37.3209 44.1635 36.2259 44.1635Z" fill="#06050B"/>
<path fill-rule="evenodd" clip-rule="evenodd" d="M49.6953 37.8607V52.7993C51.8167 52.7993 53.5368 51.0796 53.5368 48.9582V34.0195C51.4154 34.0195 49.6953 35.7392 49.6953 37.8607Z" fill="#06050B"/>
<path d="M51.6158 32.759C53.1511 32.759 54.3957 31.5144 54.3957 29.9791C54.3957 28.4438 53.1511 27.1992 51.6158 27.1992C50.0805 27.1992 48.8359 28.4438 48.8359 29.9791C48.8359 31.5144 50.0805 32.759 51.6158 32.759Z" fill="#06050B"/>
<path d="M106.04 47H91.16L88.08 54H83.96L96.64 26H100.6L113.32 54H109.12L106.04 47ZM104.64 43.8L98.6 30.08L92.56 43.8H104.64ZM117.497 26H121.497V54H117.497V26ZM142.52 54.32C139.693 54.32 137.146 53.7067 134.88 52.48C132.613 51.2267 130.826 49.5067 129.52 47.32C128.24 45.1333 127.6 42.6933 127.6 40C127.6 37.3067 128.24 34.8667 129.52 32.68C130.826 30.4933 132.613 28.7867 134.88 27.56C137.146 26.3067 139.693 25.68 142.52 25.68C145.32 25.68 147.853 26.3067 150.12 27.56C152.386 28.7867 154.16 30.4933 155.44 32.68C156.72 34.84 157.36 37.28 157.36 40C157.36 42.72 156.72 45.1733 155.44 47.36C154.16 49.52 152.386 51.2267 150.12 52.48C147.853 53.7067 145.32 54.32 142.52 54.32ZM142.52 50.76C144.573 50.76 146.413 50.2933 148.04 49.36C149.693 48.4267 150.986 47.1467 151.92 45.52C152.88 43.8667 153.36 42.0267 153.36 40C153.36 37.9733 152.88 36.1467 151.92 34.52C150.986 32.8667 149.693 31.5733 148.04 30.64C146.413 29.7067 144.573 29.24 142.52 29.24C140.466 29.24 138.6 29.7067 136.92 30.64C135.266 31.5733 133.96 32.8667 133 34.52C132.066 36.1467 131.6 37.9733 131.6 40C131.6 42.0267 132.066 43.8667 133 45.52C133.96 47.1467 135.266 48.4267 136.92 49.36C138.6 50.2933 140.466 50.76 142.52 50.76ZM182.193 54L176.153 45.4C175.407 45.4533 174.82 45.48 174.393 45.48H167.473V54H163.473V26H174.393C178.02 26 180.873 26.8667 182.953 28.6C185.033 30.3333 186.073 32.72 186.073 35.76C186.073 37.92 185.54 39.76 184.473 41.28C183.407 42.8 181.887 43.9067 179.913 44.6L186.553 54H182.193ZM174.273 42.08C176.807 42.08 178.74 41.5333 180.073 40.44C181.407 39.3467 182.073 37.7867 182.073 35.76C182.073 33.7333 181.407 32.1867 180.073 31.12C178.74 30.0267 176.807 29.48 174.273 29.48H167.473V42.08H174.273Z" fill="#06050B"/>
<defs>
<filter id="filter0_f_4906_3313" x="3" y="3" width="74" height="74" filterUnits="userSpaceOnUse" color-interpolation-filters="sRGB">
<feFlood flood-opacity="0" result="BackgroundImageFix"/>
<feBlend mode="normal" in="SourceGraphic" in2="BackgroundImageFix" result="shape"/>
<feGaussianBlur stdDeviation="7.5" result="effect1_foregroundBlur_4906_3313"/>
</filter>
<linearGradient id="paint0_linear_4906_3313" x1="24.8349" y1="11.8746" x2="74.2933" y2="43.2978" gradientUnits="userSpaceOnUse">
<stop stop-color="#AEFF5D"/>
<stop offset="1" stop-color="#5DFFD9"/>
</linearGradient>
<linearGradient id="paint1_linear_4906_3313" x1="23.5851" y1="9.44666" x2="77.5398" y2="43.7265" gradientUnits="userSpaceOnUse">
<stop stop-color="#AEFF5D"/>
<stop offset="1" stop-color="#5DFFD9"/>
</linearGradient>
</defs>
</svg>
