<svg width="232" height="48" viewBox="0 0 232 48" fill="none" xmlns="http://www.w3.org/2000/svg">
<path d="M23.6698 0.660156C10.5974 0.660156 0 11.2579 0 24.3306C0 37.4033 10.5974 48.001 23.6698 48.001C28.6054 48.001 33.1864 46.4891 36.979 43.9051V48.001H47.3401V24.3306C47.3401 11.2573 36.7427 0.660156 23.6698 0.660156ZM23.6698 42.8626C13.4354 42.8626 5.13828 34.5657 5.13828 24.3306C5.13828 14.096 13.4354 5.79857 23.6698 5.79857C33.9041 5.79857 42.2012 14.0954 42.2012 24.3306C42.2012 34.5652 33.9046 42.8626 23.6698 42.8626Z" fill="url(#paint0_linear_4001_10493)"/>
<path d="M23.6664 21.5586C22.1375 21.5586 20.8934 22.8027 20.8934 24.3316C20.8934 25.8606 22.1375 27.1047 23.6664 27.1047C25.1953 27.1047 26.4399 25.8606 26.4399 24.3316C26.4399 22.8027 25.1959 21.5586 23.6664 21.5586Z" fill="white"/>
<path d="M23.6702 16.8203C19.5219 16.8203 16.1592 20.1831 16.1592 24.3315C16.1592 28.48 19.5219 31.8428 23.6702 31.8428C27.8185 31.8428 31.1812 28.48 31.1812 24.3315C31.1818 20.1831 27.8185 16.8203 23.6702 16.8203ZM23.6702 28.8174C21.197 28.8174 19.1845 26.8054 19.1845 24.3315C19.1845 21.8582 21.197 19.8457 23.6702 19.8457C26.144 19.8457 28.1565 21.8582 28.1565 24.3315C28.1565 26.8054 26.144 28.8174 23.6702 28.8174Z" fill="url(#paint1_linear_4001_10493)"/>
<path d="M55.7689 12.2259C53.749 12.2259 51.9203 11.4117 50.5884 10.0957V47.999H60.9494V10.0957C59.6181 11.4117 57.7894 12.2259 55.7689 12.2259Z" fill="url(#paint2_linear_4001_10493)"/>
<path d="M55.767 3.25586C54.8855 3.25586 54.1678 3.97296 54.1678 4.85505C54.1678 5.73657 54.8849 6.45424 55.767 6.45424C56.6491 6.45424 57.3661 5.73657 57.3661 4.85505C57.3661 3.97353 56.6491 3.25586 55.767 3.25586Z" fill="white"/>
<path d="M55.7647 0C53.0836 0 50.9102 2.17355 50.9102 4.85467C50.9102 7.53578 53.0836 9.70933 55.7647 9.70933C58.4457 9.70933 60.6192 7.53578 60.6192 4.85467C60.6198 2.17355 58.4463 0 55.7647 0ZM55.7647 8.16666C53.9383 8.16666 52.4528 6.68052 52.4528 4.85467C52.4528 3.02824 53.9383 1.54267 55.7647 1.54267C57.5911 1.54267 59.0766 3.02824 59.0766 4.85467C59.0766 6.68109 57.5911 8.16666 55.7647 8.16666Z" fill="url(#paint3_linear_4001_10493)"/>
<path d="M77.691 45L91.428 3.39H106.533L120.783 45H111.093L99.579 9.831L102.543 11.028H95.19L98.268 9.831L87.039 45H77.691ZM88.122 34.683L90.972 26.931H107.274L110.181 34.683H88.122ZM126.325 45V3.39H135.673V45H126.325ZM165.087 46.083C161.325 46.083 158.038 45.437 155.226 44.145C152.452 42.815 150.153 41.086 148.329 38.958C146.505 36.792 145.137 34.455 144.225 31.947C143.351 29.439 142.914 27.026 142.914 24.708V23.454C142.914 20.87 143.37 18.324 144.282 15.816C145.232 13.27 146.638 10.971 148.5 8.919C150.362 6.867 152.68 5.233 155.454 4.017C158.228 2.763 161.439 2.136 165.087 2.136C168.735 2.136 171.946 2.763 174.72 4.017C177.494 5.233 179.812 6.867 181.674 8.919C183.536 10.971 184.942 13.27 185.892 15.816C186.842 18.324 187.317 20.87 187.317 23.454V24.708C187.317 27.026 186.861 29.439 185.949 31.947C185.037 34.455 183.669 36.792 181.845 38.958C180.021 41.086 177.703 42.815 174.891 44.145C172.117 45.437 168.849 46.083 165.087 46.083ZM165.087 37.362C167.063 37.362 168.83 37.02 170.388 36.336C171.984 35.652 173.333 34.702 174.435 33.486C175.575 32.27 176.43 30.864 177 29.268C177.57 27.672 177.855 25.962 177.855 24.138C177.855 22.2 177.551 20.433 176.943 18.837C176.373 17.203 175.518 15.797 174.378 14.619C173.276 13.403 171.946 12.472 170.388 11.826C168.83 11.18 167.063 10.857 165.087 10.857C163.111 10.857 161.344 11.18 159.786 11.826C158.228 12.472 156.879 13.403 155.739 14.619C154.637 15.797 153.801 17.203 153.231 18.837C152.661 20.433 152.376 22.2 152.376 24.138C152.376 25.962 152.661 27.672 153.231 29.268C153.801 30.864 154.637 32.27 155.739 33.486C156.879 34.702 158.228 35.652 159.786 36.336C161.344 37.02 163.111 37.362 165.087 37.362ZM194.399 45V3.048H203.747V45H194.399ZM219.65 45L207.452 27.102H217.712L230.48 45H219.65ZM201.239 31.662V24.309H211.499C212.867 24.309 214.045 24.043 215.033 23.511C216.059 22.941 216.838 22.162 217.37 21.174C217.94 20.148 218.225 18.97 218.225 17.64C218.225 16.31 217.94 15.151 217.37 14.163C216.838 13.137 216.059 12.358 215.033 11.826C214.045 11.256 212.867 10.971 211.499 10.971H201.239V3.048H210.758C214.216 3.048 217.218 3.58 219.764 4.644C222.31 5.67 224.267 7.209 225.635 9.261C227.003 11.313 227.687 13.897 227.687 17.013V17.925C227.687 21.003 226.984 23.568 225.578 25.62C224.21 27.634 222.253 29.154 219.707 30.18C217.199 31.168 214.216 31.662 210.758 31.662H201.239Z" fill="#17225C"/>
<defs>
<linearGradient id="paint0_linear_4001_10493" x1="47.3401" y1="38.4329" x2="0.565928" y2="-0.0280944" gradientUnits="userSpaceOnUse">
<stop stop-color="#A378FF"/>
<stop offset="1" stop-color="#1C4EFF"/>
</linearGradient>
<linearGradient id="paint1_linear_4001_10493" x1="31.1812" y1="28.8066" x2="16.3386" y2="16.6021" gradientUnits="userSpaceOnUse">
<stop stop-color="#A378FF"/>
<stop offset="1" stop-color="#1C4EFF"/>
</linearGradient>
<linearGradient id="paint2_linear_4001_10493" x1="60.9494" y1="40.3383" x2="44.6158" y2="36.6669" gradientUnits="userSpaceOnUse">
<stop stop-color="#A378FF"/>
<stop offset="1" stop-color="#1C4EFF"/>
</linearGradient>
<linearGradient id="paint3_linear_4001_10493" x1="60.6192" y1="7.74697" x2="51.0261" y2="-0.141032" gradientUnits="userSpaceOnUse">
<stop stop-color="#A378FF"/>
<stop offset="1" stop-color="#1C4EFF"/>
</linearGradient>
</defs>
</svg>
