<svg width="418" height="100" viewBox="0 0 418 100" fill="none" xmlns="http://www.w3.org/2000/svg">
<path d="M49.3121 1.375C22.078 1.375 0 23.4533 0 50.6877C0 77.9222 22.078 100 49.3121 100C59.5947 100 69.1386 96.8509 77.0399 91.4675V100H98.6255V50.6877C98.6255 23.4521 76.5475 1.375 49.3121 1.375ZM49.3121 89.2956C27.9906 89.2956 10.7048 72.0107 10.7048 50.6877C10.7048 29.3659 27.9906 12.0799 49.3121 12.0799C70.6337 12.0799 87.9195 29.3648 87.9195 50.6877C87.9195 72.0095 70.6348 89.2956 49.3121 89.2956Z" fill="white"/>
<path d="M49.3083 44.9141C46.123 44.9141 43.5312 47.5058 43.5312 50.6911C43.5312 53.8764 46.123 56.4682 49.3083 56.4682C52.4935 56.4682 55.0865 53.8764 55.0865 50.6911C55.0865 47.5058 52.4947 44.9141 49.3083 44.9141Z" fill="white"/>
<path d="M49.316 35.043C40.6737 35.043 33.668 42.0487 33.668 50.6912C33.668 59.3336 40.6737 66.3394 49.316 66.3394C57.9583 66.3394 64.964 59.3336 64.964 50.6912C64.9652 42.0487 57.9583 35.043 49.316 35.043ZM49.316 60.0365C44.1634 60.0365 39.9707 55.845 39.9707 50.6912C39.9707 45.5385 44.1634 41.3458 49.316 41.3458C54.4697 41.3458 58.6624 45.5385 58.6624 50.6912C58.6624 55.845 54.4697 60.0365 49.316 60.0365Z" fill="white"/>
<path d="M116.185 25.469C111.977 25.469 108.167 23.7729 105.393 21.0312V99.9954H126.978V21.0312C124.204 23.7729 120.395 25.469 116.185 25.469Z" fill="white"/>
<path d="M116.181 6.78125C114.345 6.78125 112.85 8.27518 112.85 10.1129C112.85 11.9493 114.344 13.4445 116.181 13.4445C118.019 13.4445 119.513 11.9493 119.513 10.1129C119.513 8.27637 118.019 6.78125 116.181 6.78125Z" fill="white"/>
<path d="M116.176 0C110.591 0 106.062 4.52818 106.062 10.1138C106.062 15.6993 110.591 20.2275 116.176 20.2275C121.762 20.2275 126.29 15.6993 126.29 10.1138C126.291 4.52818 121.763 0 116.176 0ZM116.176 17.0137C112.371 17.0137 109.276 13.9176 109.276 10.1138C109.276 6.30876 112.371 3.21385 116.176 3.21385C119.981 3.21385 123.076 6.30876 123.076 10.1138C123.076 13.9188 119.981 17.0137 116.176 17.0137Z" fill="white"/>
<path d="M145.019 94L172.859 5.2H195.299L223.139 94H204.659L199.019 75.4H168.779L163.259 94H145.019ZM172.979 59.44H194.819L183.899 20.44L172.979 59.44ZM232.807 94V5.2H250.567V94H232.807ZM300.291 94.72C294.211 94.72 288.891 94.16 284.331 93.04C279.771 91.84 275.931 89.68 272.811 86.56C269.771 83.36 267.491 78.8 265.971 72.88C264.451 66.96 263.691 59.24 263.691 49.72C263.691 40.2 264.451 32.48 265.971 26.56C267.571 20.56 269.891 15.96 272.931 12.76C275.971 9.56 279.771 7.36 284.331 6.15999C288.891 4.95999 294.211 4.36 300.291 4.36C306.371 4.36 311.691 4.95999 316.251 6.15999C320.811 7.36 324.611 9.56 327.651 12.76C330.691 15.96 332.971 20.56 334.491 26.56C336.011 32.48 336.771 40.2 336.771 49.72C336.771 59.24 336.011 66.96 334.491 72.88C332.971 78.8 330.691 83.36 327.651 86.56C324.611 89.68 320.811 91.84 316.251 93.04C311.691 94.16 306.371 94.72 300.291 94.72ZM300.291 78.76C303.891 78.76 306.891 78.36 309.291 77.56C311.691 76.76 313.571 75.36 314.931 73.36C316.371 71.28 317.411 68.36 318.051 64.6C318.691 60.76 319.011 55.8 319.011 49.72C319.011 43.32 318.691 38.2 318.051 34.36C317.411 30.52 316.371 27.6 314.931 25.6C313.571 23.52 311.691 22.12 309.291 21.4C306.891 20.68 303.891 20.32 300.291 20.32C296.851 20.32 293.931 20.68 291.531 21.4C289.131 22.12 287.171 23.52 285.651 25.6C284.211 27.6 283.131 30.52 282.411 34.36C281.771 38.2 281.451 43.32 281.451 49.72C281.451 55.8 281.731 60.76 282.291 64.6C282.931 68.36 283.971 71.28 285.411 73.36C286.851 75.36 288.771 76.76 291.171 77.56C293.651 78.36 296.691 78.76 300.291 78.76ZM349.877 94V5.2H386.597C390.117 5.2 393.397 5.64 396.437 6.52C399.477 7.32 402.157 8.76 404.477 10.84C406.797 12.92 408.597 15.8 409.877 19.48C411.237 23.16 411.917 27.88 411.917 33.64C411.917 37.72 411.517 41.2 410.717 44.08C409.917 46.96 408.837 49.32 407.477 51.16C406.197 53 404.717 54.48 403.037 55.6C401.357 56.72 399.637 57.64 397.877 58.36L414.437 94H396.317L382.037 61.12C381.077 61.12 379.957 61.12 378.677 61.12C377.477 61.04 376.237 61 374.957 61C373.677 61 372.397 61 371.117 61C369.837 61 368.677 60.96 367.637 60.88V94H349.877ZM367.637 46.84H383.477C385.077 46.84 386.517 46.64 387.797 46.24C389.077 45.84 390.197 45.16 391.157 44.2C392.117 43.16 392.837 41.8 393.317 40.12C393.877 38.44 394.157 36.28 394.157 33.64C394.157 31.16 393.877 29.12 393.317 27.52C392.837 25.84 392.117 24.56 391.157 23.68C390.197 22.72 389.077 22.08 387.797 21.76C386.517 21.36 385.077 21.16 383.477 21.16H367.637V46.84Z" fill="white"/>
</svg>
