<svg width="208" height="48" viewBox="0 0 208 48" fill="none" xmlns="http://www.w3.org/2000/svg">
<path d="M23.6698 0.660156C10.5974 0.660156 0 11.2579 0 24.3306C0 37.4033 10.5974 48.001 23.6698 48.001C28.6054 48.001 33.1864 46.4891 36.979 43.9051V48.001H47.3401V24.3306C47.3401 11.2573 36.7427 0.660156 23.6698 0.660156ZM23.6698 42.8626C13.4354 42.8626 5.13828 34.5657 5.13828 24.3306C5.13828 14.096 13.4354 5.79857 23.6698 5.79857C33.9041 5.79857 42.2012 14.0954 42.2012 24.3306C42.2012 34.5652 33.9046 42.8626 23.6698 42.8626Z" fill="white"/>
<path d="M23.6675 21.5586C22.1386 21.5586 20.8945 22.8027 20.8945 24.3316C20.8945 25.8606 22.1386 27.1047 23.6675 27.1047C25.1964 27.1047 26.441 25.8606 26.441 24.3316C26.441 22.8027 25.197 21.5586 23.6675 21.5586Z" fill="white"/>
<path d="M23.6712 16.8203C19.5229 16.8203 16.1602 20.1831 16.1602 24.3315C16.1602 28.48 19.5229 31.8428 23.6712 31.8428C27.8195 31.8428 31.1822 28.48 31.1822 24.3315C31.1828 20.1831 27.8195 16.8203 23.6712 16.8203ZM23.6712 28.8174C21.198 28.8174 19.1855 26.8054 19.1855 24.3315C19.1855 21.8582 21.198 19.8457 23.6712 19.8457C26.145 19.8457 28.1575 21.8582 28.1575 24.3315C28.1575 26.8054 26.145 28.8174 23.6712 28.8174Z" fill="url(#paint0_linear_4906_9000)"/>
<path d="M55.7684 12.2259C53.7485 12.2259 51.9198 11.4117 50.5879 10.0957V47.999H60.9489V10.0957C59.6176 11.4117 57.7889 12.2259 55.7684 12.2259Z" fill="white"/>
<path d="M55.7671 3.25586C54.8856 3.25586 54.168 3.97296 54.168 4.85505C54.168 5.73657 54.885 6.45424 55.7671 6.45424C56.6492 6.45424 57.3663 5.73657 57.3663 4.85505C57.3663 3.97353 56.6492 3.25586 55.7671 3.25586Z" fill="white"/>
<path d="M55.7647 0C53.0836 0 50.9102 2.17355 50.9102 4.85467C50.9102 7.53578 53.0836 9.70933 55.7647 9.70933C58.4457 9.70933 60.6192 7.53578 60.6192 4.85467C60.6198 2.17355 58.4463 0 55.7647 0ZM55.7647 8.16666C53.9383 8.16666 52.4528 6.68052 52.4528 4.85467C52.4528 3.02824 53.9383 1.54267 55.7647 1.54267C57.5911 1.54267 59.0766 3.02824 59.0766 4.85467C59.0766 6.68109 57.5911 8.16666 55.7647 8.16666Z" fill="url(#paint1_linear_4906_9000)"/>
<path d="M77.9182 45L91.1422 2.82H101.801L115.025 45H106.247L103.568 36.165H89.2042L86.5822 45H77.9182ZM91.1992 28.584H101.573L96.3862 10.059L91.1992 28.584ZM119.618 45V2.82H128.054V45H119.618ZM151.673 45.342C148.785 45.342 146.258 45.076 144.092 44.544C141.926 43.974 140.102 42.948 138.62 41.466C137.176 39.946 136.093 37.78 135.371 34.968C134.649 32.156 134.288 28.489 134.288 23.967C134.288 19.445 134.649 15.778 135.371 12.966C136.131 10.116 137.233 7.931 138.677 6.411C140.121 4.891 141.926 3.846 144.092 3.276C146.258 2.706 148.785 2.421 151.673 2.421C154.561 2.421 157.088 2.706 159.254 3.276C161.42 3.846 163.225 4.891 164.669 6.411C166.113 7.931 167.196 10.116 167.918 12.966C168.64 15.778 169.001 19.445 169.001 23.967C169.001 28.489 168.64 32.156 167.918 34.968C167.196 37.78 166.113 39.946 164.669 41.466C163.225 42.948 161.42 43.974 159.254 44.544C157.088 45.076 154.561 45.342 151.673 45.342ZM151.673 37.761C153.383 37.761 154.808 37.571 155.948 37.191C157.088 36.811 157.981 36.146 158.627 35.196C159.311 34.208 159.805 32.821 160.109 31.035C160.413 29.211 160.565 26.855 160.565 23.967C160.565 20.927 160.413 18.495 160.109 16.671C159.805 14.847 159.311 13.46 158.627 12.51C157.981 11.522 157.088 10.857 155.948 10.515C154.808 10.173 153.383 10.002 151.673 10.002C150.039 10.002 148.652 10.173 147.512 10.515C146.372 10.857 145.441 11.522 144.719 12.51C144.035 13.46 143.522 14.847 143.18 16.671C142.876 18.495 142.724 20.927 142.724 23.967C142.724 26.855 142.857 29.211 143.123 31.035C143.427 32.821 143.921 34.208 144.605 35.196C145.289 36.146 146.201 36.811 147.341 37.191C148.519 37.571 149.963 37.761 151.673 37.761ZM175.226 45V2.82H192.668C194.34 2.82 195.898 3.029 197.342 3.447C198.786 3.827 200.059 4.511 201.161 5.499C202.263 6.487 203.118 7.855 203.726 9.603C204.372 11.351 204.695 13.593 204.695 16.329C204.695 18.267 204.505 19.92 204.125 21.288C203.745 22.656 203.232 23.777 202.586 24.651C201.978 25.525 201.275 26.228 200.477 26.76C199.679 27.292 198.862 27.729 198.026 28.071L205.892 45H197.285L190.502 29.382C190.046 29.382 189.514 29.382 188.906 29.382C188.336 29.344 187.747 29.325 187.139 29.325C186.531 29.325 185.923 29.325 185.315 29.325C184.707 29.325 184.156 29.306 183.662 29.268V45H175.226ZM183.662 22.599H191.186C191.946 22.599 192.63 22.504 193.238 22.314C193.846 22.124 194.378 21.801 194.834 21.345C195.29 20.851 195.632 20.205 195.86 19.407C196.126 18.609 196.259 17.583 196.259 16.329C196.259 15.151 196.126 14.182 195.86 13.422C195.632 12.624 195.29 12.016 194.834 11.598C194.378 11.142 193.846 10.838 193.238 10.686C192.63 10.496 191.946 10.401 191.186 10.401H183.662V22.599Z" fill="white"/>
<defs>
<linearGradient id="paint0_linear_4906_9000" x1="31.1822" y1="28.8066" x2="16.3396" y2="16.6021" gradientUnits="userSpaceOnUse">
<stop stop-color="#A378FF"/>
<stop offset="1" stop-color="#1C4EFF"/>
</linearGradient>
<linearGradient id="paint1_linear_4906_9000" x1="60.6192" y1="7.74697" x2="51.0261" y2="-0.141032" gradientUnits="userSpaceOnUse">
<stop stop-color="#A378FF"/>
<stop offset="1" stop-color="#1C4EFF"/>
</linearGradient>
</defs>
</svg>
