<svg width="459" height="93" viewBox="0 0 459 93" fill="none" xmlns="http://www.w3.org/2000/svg">
<path d="M43.3941 3.33203C19.4284 3.33203 0 22.7608 0 46.7269C0 70.693 19.4284 90.1217 43.3941 90.1217C52.4426 90.1217 60.8411 87.3501 67.7942 82.6128V90.1217H86.7892V46.7269C86.7892 22.7597 67.3609 3.33203 43.3941 3.33203ZM43.3941 80.7015C24.6314 80.7015 9.42008 65.491 9.42008 46.7269C9.42008 27.9639 24.6314 12.7523 43.3941 12.7523C62.1568 12.7523 77.3681 27.9628 77.3681 46.7269C77.3681 65.4899 62.1578 80.7015 43.3941 80.7015Z" fill="white"/>
<path d="M43.3879 41.6445C40.5849 41.6445 38.3042 43.9253 38.3042 46.7283C38.3042 49.5314 40.5849 51.8121 43.3879 51.8121C46.1909 51.8121 48.4726 49.5314 48.4726 46.7283C48.4726 43.9253 46.1919 41.6445 43.3879 41.6445Z" fill="white"/>
<path d="M43.3965 32.957C35.7914 32.957 29.6265 39.1221 29.6265 46.7273C29.6265 54.3326 35.7914 60.4976 43.3965 60.4976C51.0017 60.4976 57.1666 54.3326 57.1666 46.7273C57.1676 39.1221 51.0017 32.957 43.3965 32.957ZM43.3965 54.9512C38.8623 54.9512 35.1728 51.2626 35.1728 46.7273C35.1728 42.1931 38.8623 38.5035 43.3965 38.5035C47.9318 38.5035 51.6213 42.1931 51.6213 46.7273C51.6213 51.2626 47.9318 54.9512 43.3965 54.9512Z" fill="#456FF8"/>
<path d="M102.243 24.5341C98.54 24.5341 95.1875 23.0415 92.7456 20.6289V90.1168H111.741V20.6289C109.3 23.0415 105.947 24.5341 102.243 24.5341Z" fill="white"/>
<path d="M102.238 8.08984C100.622 8.08984 99.3066 9.40449 99.3066 11.0216C99.3066 12.6377 100.621 13.9534 102.238 13.9534C103.855 13.9534 105.17 12.6377 105.17 11.0216C105.17 9.40554 103.855 8.08984 102.238 8.08984Z" fill="white"/>
<path d="M102.236 2.12109C97.3206 2.12109 93.3359 6.10586 93.3359 11.0211C93.3359 15.9364 97.3206 19.9212 102.236 19.9212C107.151 19.9212 111.136 15.9364 111.136 11.0211C111.137 6.10586 107.152 2.12109 102.236 2.12109ZM102.236 17.093C98.8875 17.093 96.164 14.3685 96.164 11.0211C96.164 7.67276 98.8875 4.94926 102.236 4.94926C105.584 4.94926 108.308 7.67276 108.308 11.0211C108.308 14.3695 105.584 17.093 102.236 17.093Z" fill="#456FF8"/>
<path d="M137.901 90.1211L167.781 2.52109H195.621L226.341 90.1211H208.821L182.781 14.1611L188.901 16.8011H173.901L180.141 14.1611L154.941 90.1211H137.901ZM158.781 66.8411L164.181 52.4411H199.701L204.981 66.8411H158.781ZM239.593 90.1211V2.52109H256.633V90.1211H239.593ZM319.654 92.4011C311.734 92.4011 304.854 91.0011 299.014 88.2011C293.254 85.4011 288.454 81.7611 284.614 77.2811C280.854 72.7211 278.014 67.8411 276.094 62.6411C274.254 57.3611 273.334 52.2811 273.334 47.4011V44.7611C273.334 39.4011 274.294 34.0811 276.214 28.8011C278.134 23.4411 281.014 18.6011 284.854 14.2811C288.774 9.96109 293.614 6.52109 299.374 3.96109C305.134 1.32109 311.894 0.00108814 319.654 0.00108814C327.334 0.00108814 334.054 1.32109 339.814 3.96109C345.574 6.52109 350.374 9.96109 354.214 14.2811C358.134 18.6011 361.054 23.4411 362.974 28.8011C364.894 34.0811 365.854 39.4011 365.854 44.7611V47.4011C365.854 52.2811 364.894 57.3611 362.974 62.6411C361.134 67.8411 358.294 72.7211 354.454 77.2811C350.694 81.7611 345.894 85.4011 340.054 88.2011C334.294 91.0011 327.494 92.4011 319.654 92.4011ZM319.654 76.5611C324.134 76.5611 328.134 75.7611 331.654 74.1611C335.254 72.5611 338.294 70.3611 340.774 67.5611C343.334 64.6811 345.254 61.4411 346.534 57.8411C347.894 54.1611 348.574 50.2811 348.574 46.2011C348.574 41.8011 347.894 37.7611 346.534 34.0811C345.254 30.4011 343.334 27.2011 340.774 24.4811C338.294 21.7611 335.254 19.6411 331.654 18.1211C328.054 16.6011 324.054 15.8411 319.654 15.8411C315.174 15.8411 311.134 16.6011 307.534 18.1211C303.934 19.6411 300.854 21.7611 298.294 24.4811C295.814 27.2011 293.894 30.4011 292.534 34.0811C291.254 37.7611 290.614 41.8011 290.614 46.2011C290.614 50.2811 291.254 54.1611 292.534 57.8411C293.894 61.4411 295.814 64.6811 298.294 67.5611C300.854 70.3611 303.934 72.5611 307.534 74.1611C311.134 75.7611 315.174 76.5611 319.654 76.5611ZM382.322 90.1211V1.92109H399.362V90.1211H382.322ZM435.842 90.1211L408.962 51.9611H428.042L455.762 90.1211H435.842ZM394.322 60.8411V47.0411H416.642C419.762 47.0411 422.442 46.4011 424.682 45.1211C427.002 43.8411 428.802 42.0411 430.082 39.7211C431.362 37.4011 432.002 34.7611 432.002 31.8011C432.002 28.7611 431.362 26.0811 430.082 23.7611C428.802 21.4411 427.002 19.6411 424.682 18.3611C422.442 17.0811 419.762 16.4411 416.642 16.4411H394.322V1.92109H414.842C421.882 1.92109 427.962 2.96109 433.082 5.04109C438.282 7.12109 442.282 10.2811 445.082 14.5211C447.882 18.7611 449.282 24.0811 449.282 30.4811V32.4011C449.282 38.8811 447.842 44.2011 444.962 48.3611C442.162 52.5211 438.202 55.6411 433.082 57.7211C427.962 59.8011 421.882 60.8411 414.842 60.8411H394.322Z" fill="white"/>
</svg>
