<svg width="24" height="24" viewBox="0 0 24 24" fill="none" xmlns="http://www.w3.org/2000/svg">
<path d="M21.9998 6V11C21.9998 13.206 20.2058 15 17.9998 15H5.41388L7.70685 17.293C8.09785 17.684 8.09785 18.316 7.70685 18.707C7.51185 18.902 7.25582 19 6.99982 19C6.74382 19 6.48779 18.902 6.29279 18.707L2.29377 14.708C2.20077 14.615 2.12773 14.5051 2.07673 14.3821C1.97573 14.1381 1.97573 13.8619 2.07673 13.6179C2.12773 13.4949 2.20077 13.385 2.29377 13.292L6.29279 9.29297C6.68379 8.90197 7.31585 8.90197 7.70685 9.29297C8.09785 9.68397 8.09785 10.316 7.70685 10.707L5.41388 13H17.9998C19.1028 13 19.9998 12.103 19.9998 11V6C19.9998 5.448 20.4468 5 20.9998 5C21.5528 5 21.9998 5.448 21.9998 6Z" fill="#06050B"/>
</svg>
