<svg width="64" height="64" viewBox="0 0 64 64" fill="none" xmlns="http://www.w3.org/2000/svg">
<path d="M47.3797 21.9546V14.938C49.2825 14.0461 50.4717 12.1433 50.4717 10.0621V9.88377C50.4717 6.91066 48.0338 4.47275 45.0607 4.47275H44.8823C41.9092 4.47275 39.4713 6.91066 39.4713 9.88377V10.0621C39.4713 12.1433 40.72 14.0461 42.6228 14.938V21.9546C39.947 22.3707 37.4495 23.5005 35.3089 25.1655L16.0433 10.1216C16.1622 9.64596 16.2811 9.11078 16.2811 8.57559C16.2811 5.24576 13.5459 2.45105 10.1566 2.39158C6.76726 2.33212 3.91309 5.06737 3.91309 8.45672C3.91309 11.846 6.58887 14.7002 9.97818 14.7002C11.108 14.7002 12.1783 14.4624 13.1296 13.8677L32.1575 28.6737C28.6492 33.9659 28.7682 40.8634 32.3953 46.0366L26.6275 51.8044C26.1518 51.626 25.6761 51.5666 25.2004 51.5666C22.4057 51.5666 20.2056 53.8261 20.2056 56.5614C20.2056 59.3561 22.4652 61.5562 25.2004 61.5562C27.9357 61.5562 30.1952 59.2966 30.1952 56.5614C30.1952 56.0857 30.1358 55.61 29.9574 55.1343L35.6657 49.426C42.4444 54.5991 52.1366 53.2909 57.2504 46.5123C62.3641 39.7336 61.1154 30.0414 54.3368 24.9276C52.3745 23.3816 49.9366 22.3707 47.3797 21.9546ZM45.0013 45.0852C40.601 45.0852 37.0928 41.5769 37.0928 37.1768C37.0928 32.7766 40.601 29.2683 45.0013 29.2683C49.4014 29.2683 52.9096 32.7766 52.9096 37.1768C52.9096 41.5769 49.4014 45.0852 45.0013 45.0852Z" fill="#FF5C35"/>
</svg>
