<svg width="428" height="96" viewBox="0 0 428 96" fill="none" xmlns="http://www.w3.org/2000/svg">
<g filter="url(#filter0_f_4906_3023)">
<rect x="6" y="6" width="84" height="84" rx="8" fill="url(#paint0_linear_4906_3023)"/>
</g>
<rect x="10.3184" y="10.3164" width="75.3636" height="75.3636" rx="7.5" fill="url(#paint1_linear_4906_3023)" stroke="#456FF8"/>
<path fill-rule="evenodd" clip-rule="evenodd" d="M53.7423 65.1007H47.0448H40.796C33.6461 65.1007 27.8504 59.305 27.8504 52.1551C27.8504 45.0052 33.6461 39.2095 40.796 39.2095C47.9459 39.2095 53.7416 45.0059 53.7416 52.1551V54.1567C53.7416 58.2067 57.0247 61.4905 61.0754 61.4905V52.1544C61.0754 40.9545 51.9959 31.875 40.796 31.875C29.5961 31.875 20.5166 40.9545 20.5166 52.1544C20.5166 63.3543 29.5961 72.4338 40.796 72.4338H61.0761C61.0761 68.3838 57.7924 65.1007 53.7423 65.1007Z" fill="#06050B"/>
<path d="M40.7961 45.8047C37.2907 45.8047 34.4492 48.6462 34.4492 52.1515C34.4492 55.6568 37.2907 58.4983 40.7961 58.4983C44.3014 58.4983 47.1429 55.6568 47.1429 52.1515C47.1434 48.6462 44.3014 45.8047 40.7961 45.8047ZM40.7961 55.9419C38.7062 55.9419 37.0056 54.2419 37.0056 52.1515C37.0056 50.0616 38.7062 48.3611 40.7961 48.3611C42.8864 48.3611 44.587 50.0616 44.587 52.1515C44.587 54.2419 42.8864 55.9419 40.7961 55.9419Z" fill="#06050B"/>
<path fill-rule="evenodd" clip-rule="evenodd" d="M66.5098 43.9151V72.4344C70.5598 72.4344 73.8436 69.1513 73.8436 65.1013V36.582C69.7935 36.582 66.5098 39.8651 66.5098 43.9151Z" fill="#06050B"/>
<path d="M70.1771 34.1766C73.1081 34.1766 75.4842 31.8005 75.4842 28.8695C75.4842 25.9385 73.1081 23.5625 70.1771 23.5625C67.2462 23.5625 64.8701 25.9385 64.8701 28.8695C64.8701 31.8005 67.2462 34.1766 70.1771 34.1766Z" fill="#06050B"/>
<path d="M180.12 69H135.48L126.24 90H113.88L151.92 5.99999H163.8L201.96 90H189.36L180.12 69ZM175.92 59.4L157.8 18.24L139.68 59.4H175.92ZM214.491 5.99999H226.491V90H214.491V5.99999ZM289.559 90.96C281.079 90.96 273.439 89.12 266.639 85.44C259.839 81.68 254.479 76.52 250.559 69.96C246.719 63.4 244.799 56.08 244.799 48C244.799 39.92 246.719 32.6 250.559 26.04C254.479 19.48 259.839 14.36 266.639 10.68C273.439 6.92 281.079 5.04 289.559 5.04C297.959 5.04 305.559 6.92 312.359 10.68C319.159 14.36 324.479 19.48 328.319 26.04C332.159 32.52 334.079 39.84 334.079 48C334.079 56.16 332.159 63.52 328.319 70.08C324.479 76.56 319.159 81.68 312.359 85.44C305.559 89.12 297.959 90.96 289.559 90.96ZM289.559 80.28C295.719 80.28 301.239 78.88 306.119 76.08C311.079 73.28 314.959 69.44 317.759 64.56C320.639 59.6 322.079 54.08 322.079 48C322.079 41.92 320.639 36.44 317.759 31.56C314.959 26.6 311.079 22.72 306.119 19.92C301.239 17.12 295.719 15.72 289.559 15.72C283.399 15.72 277.799 17.12 272.759 19.92C267.799 22.72 263.879 26.6 260.999 31.56C258.199 36.44 256.799 41.92 256.799 48C256.799 54.08 258.199 59.6 260.999 64.56C263.879 69.44 267.799 73.28 272.759 76.08C277.799 78.88 283.399 80.28 289.559 80.28ZM408.58 90L390.46 64.2C388.22 64.36 386.46 64.44 385.18 64.44H364.42V90H352.42V5.99999H385.18C396.06 5.99999 404.62 8.59999 410.86 13.8C417.1 19 420.22 26.16 420.22 35.28C420.22 41.76 418.62 47.28 415.42 51.84C412.22 56.4 407.66 59.72 401.74 61.8L421.66 90H408.58ZM384.82 54.24C392.42 54.24 398.22 52.6 402.22 49.32C406.22 46.04 408.22 41.36 408.22 35.28C408.22 29.2 406.22 24.56 402.22 21.36C398.22 18.08 392.42 16.44 384.82 16.44H364.42V54.24H384.82Z" fill="white"/>
<defs>
<filter id="filter0_f_4906_3023" x="0" y="0" width="96" height="96" filterUnits="userSpaceOnUse" color-interpolation-filters="sRGB">
<feFlood flood-opacity="0" result="BackgroundImageFix"/>
<feBlend mode="normal" in="SourceGraphic" in2="BackgroundImageFix" result="shape"/>
<feGaussianBlur stdDeviation="3" result="effect1_foregroundBlur_4906_3023"/>
</filter>
<linearGradient id="paint0_linear_4906_3023" x1="19.0484" y1="-5.69393" x2="113.469" y2="54.2958" gradientUnits="userSpaceOnUse">
<stop stop-color="#AEFF5D"/>
<stop offset="1" stop-color="#5DFFD9"/>
</linearGradient>
<linearGradient id="paint1_linear_4906_3023" x1="21.6805" y1="-0.814438" x2="107.518" y2="53.7217" gradientUnits="userSpaceOnUse">
<stop stop-color="#AEFF5D"/>
<stop offset="1" stop-color="#5DFFD9"/>
</linearGradient>
</defs>
</svg>
