<svg width="1200" height="1400" viewBox="0 0 1200 1400" fill="none" xmlns="http://www.w3.org/2000/svg">
  <defs>
    <linearGradient id="sky" x1="240" y1="0" x2="980" y2="1260" gradientUnits="userSpaceOnUse">
      <stop stop-color="#8DC1F4"/>
      <stop offset="0.48" stop-color="#6DA0E3"/>
      <stop offset="1" stop-color="#173D63"/>
    </linearGradient>
    <linearGradient id="glass" x1="594" y1="522" x2="873" y2="1010" gradientUnits="userSpaceOnUse">
      <stop stop-color="#FFF3D4" stop-opacity="0.95"/>
      <stop offset="1" stop-color="#F3A03A" stop-opacity="0.7"/>
    </linearGradient>
    <linearGradient id="wood" x1="792" y1="478" x2="1013" y2="987" gradientUnits="userSpaceOnUse">
      <stop stop-color="#B76828"/>
      <stop offset="1" stop-color="#6A3411"/>
    </linearGradient>
    <radialGradient id="sun" cx="0" cy="0" r="1" gradientUnits="userSpaceOnUse" gradientTransform="translate(890 713) rotate(90) scale(616 480)">
      <stop stop-color="#FFD48F" stop-opacity="0.55"/>
      <stop offset="1" stop-color="#FFD48F" stop-opacity="0"/>
    </radialGradient>
    <filter id="blurCard" x="33" y="937" width="1134" height="326" filterUnits="userSpaceOnUse" color-interpolation-filters="sRGB">
      <feGaussianBlur stdDeviation="18"/>
    </filter>
  </defs>

  <rect width="1200" height="1400" rx="42" fill="url(#sky)"/>
  <rect width="1200" height="1400" rx="42" fill="url(#sun)"/>

  <ellipse cx="591" cy="170" rx="136" ry="82" fill="#D4E6F8" fill-opacity="0.38"/>
  <ellipse cx="777" cy="122" rx="112" ry="55" fill="#D4E6F8" fill-opacity="0.32"/>

  <path d="M0 990C126 887 248 862 372 915C466 955 565 1040 664 1040C752 1040 823 979 908 954C1008 924 1106 956 1200 1032V1400H0V990Z" fill="#173B2E"/>
  <path d="M0 1058C154 982 267 976 399 1027C510 1070 603 1146 714 1146C800 1146 884 1088 964 1066C1058 1040 1127 1052 1200 1097V1400H0V1058Z" fill="#1F553D"/>
  <path d="M0 1125C166 1080 264 1096 393 1147C493 1187 603 1267 723 1267C834 1267 950 1177 1047 1158C1109 1147 1161 1151 1200 1171V1400H0V1125Z" fill="#0E2B22"/>

  <g opacity="0.9">
    <path d="M173 330C206 262 279 232 336 262C397 294 420 374 391 446C364 512 313 575 289 654H234C255 567 266 508 257 453C250 409 150 379 173 330Z" fill="#244F35"/>
    <path d="M293 312C327 244 397 230 447 264C501 300 519 380 491 448C465 513 416 576 391 654H339C359 570 370 518 362 466C355 422 267 362 293 312Z" fill="#2F6845"/>
    <rect x="306" y="630" width="22" height="248" rx="11" fill="#5A3A20"/>
    <rect x="223" y="624" width="18" height="232" rx="9" fill="#5A3A20"/>
  </g>

  <g opacity="0.88">
    <path d="M949 271C988 215 1054 201 1108 236C1167 273 1184 360 1152 430C1123 493 1065 576 1034 660H974C1003 567 1016 513 1007 465C998 418 920 313 949 271Z" fill="#24523C"/>
    <rect x="1003" y="631" width="20" height="260" rx="10" fill="#643A22"/>
  </g>

  <g>
    <polygon points="404,647 787,474 971,474 586,647" fill="#2C3237"/>
    <polygon points="586,647 971,474 1057,512 673,680" fill="#202428"/>
    <polygon points="586,647 673,680 673,1018 586,972" fill="#3D4349"/>
    <polygon points="673,680 1057,512 1057,959 673,1018" fill="url(#wood)"/>

    <rect x="451" y="653" width="221" height="331" fill="url(#glass)"/>
    <rect x="463" y="665" width="86" height="307" fill="#FBE9B6" fill-opacity="0.55"/>
    <rect x="559" y="665" width="101" height="307" fill="#F2C15B" fill-opacity="0.48"/>
    <rect x="443" y="641" width="12" height="372" fill="#4C5257"/>
    <rect x="548" y="641" width="9" height="372" fill="#4C5257"/>
    <rect x="661" y="641" width="11" height="372" fill="#4C5257"/>
    <rect x="441" y="776" width="231" height="11" fill="#4C5257"/>

    <rect x="702" y="665" width="133" height="288" fill="#C9762B" fill-opacity="0.26"/>
    <rect x="851" y="615" width="132" height="350" rx="2" fill="#8F4B1F"/>
    <rect x="893" y="650" width="58" height="250" rx="30" fill="#A85A22"/>
    <circle cx="938" cy="776" r="8" fill="#E9B668"/>
    <rect x="724" y="698" width="86" height="206" fill="#C57A32" fill-opacity="0.3"/>
    <circle cx="1007" cy="671" r="16" fill="#2E2118" fill-opacity="0.48"/>
    <circle cx="1007" cy="671" r="10" fill="#F0BE71" fill-opacity="0.78"/>
  </g>

  <g opacity="0.94">
    <path d="M215 1072C274 989 341 985 400 1048C448 1099 483 1187 507 1260H429C402 1199 352 1166 304 1166C262 1166 224 1197 198 1260H120C145 1185 174 1132 215 1072Z" fill="#264B36"/>
    <path d="M905 1055C964 986 1038 992 1088 1056C1129 1109 1152 1183 1162 1260H1092C1066 1198 1024 1171 981 1171C940 1171 905 1197 878 1260H810C829 1179 860 1108 905 1055Z" fill="#29563E"/>
  </g>

  <g filter="url(#blurCard)">
    <rect x="87" y="991" width="1026" height="218" rx="30" fill="#EBE2D2" fill-opacity="0.35"/>
  </g>
  <rect x="87" y="991" width="1026" height="218" rx="30" fill="#F4E9D4" fill-opacity="0.22" stroke="rgba(255,255,255,0.35)"/>

  <text x="140" y="1062" fill="white" font-family="Poppins, Arial, sans-serif" font-size="22" opacity="0.92">“Com o DistribuiBot, eu centralizo atendimento, campanhas e follow-up</text>
  <text x="140" y="1095" fill="white" font-family="Poppins, Arial, sans-serif" font-size="22" opacity="0.92">numa operação só. A equipe vende mais e responde mais rápido.”</text>
  <text x="140" y="1158" fill="white" font-family="Poppins, Arial, sans-serif" font-size="38" font-weight="700">Marina Costa</text>
  <text x="140" y="1200" fill="white" font-family="Poppins, Arial, sans-serif" font-size="22" font-weight="600" opacity="0.95">Operações Comerciais</text>
  <text x="140" y="1232" fill="white" font-family="Poppins, Arial, sans-serif" font-size="20" opacity="0.78">Distribuidora de alimentos e bebidas</text>

  <circle cx="988" cy="1147" r="24" fill="rgba(255,255,255,0.2)"/>
  <circle cx="1054" cy="1147" r="24" fill="rgba(255,255,255,0.2)"/>
  <path d="M998 1147H977M977 1147L985 1139M977 1147L985 1155" stroke="white" stroke-width="3" stroke-linecap="round" stroke-linejoin="round"/>
  <path d="M1044 1147H1065M1065 1147L1057 1139M1065 1147L1057 1155" stroke="white" stroke-width="3" stroke-linecap="round" stroke-linejoin="round"/>
</svg>
