<svg width="101" height="40" viewBox="0 0 101 40" fill="none" xmlns="http://www.w3.org/2000/svg">
<path fill-rule="evenodd" clip-rule="evenodd" d="M45.8737 21.5382C45.8808 21.5062 45.9143 21.4862 45.9455 21.4972L49.3576 22.6582C49.3844 22.6682 49.3999 22.6962 49.393 22.7242C48.6059 25.8912 46.1152 28.0392 42.0191 28.0392C37.4777 28.0392 33.9095 24.7212 33.9095 19.8801C33.9095 15.0393 37.4777 11.7207 42.044 11.7207C45.8158 11.7207 48.2551 13.5961 49.2145 16.39C49.2236 16.4164 49.2111 16.4456 49.1857 16.4574L45.8966 17.981C45.8655 17.9954 45.8289 17.978 45.82 17.9449C45.3827 16.3278 44.2357 15.0393 42.0191 15.0393C39.4739 15.0393 37.8271 16.9357 37.8271 19.8801C37.8271 22.8242 39.4989 24.7212 41.9941 24.7212C44.3625 24.7212 45.4869 23.3062 45.8737 21.5382ZM29.3191 12.0744C29.3191 12.0441 29.3437 12.0195 29.374 12.0195H33.057C33.0873 12.0195 33.1119 12.0441 33.1119 12.0744V27.6842C33.1119 27.7152 33.0873 27.7392 33.057 27.7392H29.374C29.3437 27.7392 29.3191 27.7152 29.3191 27.6842V12.0744ZM17.6885 15.1186C17.6885 15.0883 17.7131 15.0637 17.7434 15.0637H21.4564C23.4276 15.0637 24.3758 15.7125 24.3758 16.9601C24.3758 18.2327 23.4027 18.8315 21.4314 18.8315H17.7434C17.7131 18.8315 17.6885 18.807 17.6885 18.7766V15.1186ZM28.5379 27.7392C28.5682 27.7392 28.5928 27.7152 28.5928 27.6842V27.5892C28.5928 27.5732 28.5864 27.5592 28.5751 27.5482C27.9846 27.0002 27.5154 26.1942 27.0707 23.8222C26.7496 21.9942 25.5975 20.7292 23.953 20.3642C23.9452 20.3632 23.9461 20.3512 23.9541 20.3502C26.2018 20.2052 28.0937 18.691 28.0937 16.6607C28.0937 13.8161 26.0975 12.0195 22.0802 12.0195H14.0255C13.9952 12.0195 13.9706 12.0441 13.9706 12.0744V27.6842C13.9706 27.7152 13.9952 27.7392 14.0255 27.7392H17.6336C17.664 27.7392 17.6885 27.7152 17.6885 27.6842V21.7812C17.6885 21.7502 17.7131 21.7262 17.7434 21.7262H21.0322C22.6291 21.7262 23.3777 22.7492 23.5274 24.6952C23.6747 26.1192 23.8703 27.2042 24.1854 27.7142C24.1951 27.7302 24.2123 27.7392 24.2309 27.7392H28.5379ZM13.1201 24.5212C13.1504 24.5212 13.1749 24.5452 13.1749 24.5752V27.6852C13.1749 27.7152 13.1504 27.7392 13.1201 27.7392H0.0548869C0.0245736 27.7392 0 27.7152 0 27.6852V12.0744C0 12.0441 0.0245737 12.0195 0.054887 12.0195H13.1772C13.2076 12.0195 13.2321 12.0441 13.2321 12.0744V15.1835C13.2321 15.2138 13.2076 15.2384 13.1772 15.2384H3.77281C3.7425 15.2384 3.71793 15.263 3.71793 15.2933V18.078C3.71793 18.1083 3.7425 18.1329 3.77281 18.1329H10.5749C10.6052 18.1329 10.6298 18.1575 10.6298 18.1878V21.2472C10.6298 21.2772 10.6052 21.3022 10.5749 21.3022H3.77281C3.7425 21.3022 3.71793 21.3262 3.71793 21.3572V24.4662C3.71793 24.4962 3.7425 24.5212 3.77281 24.5212H13.1201ZM86.6266 24.8442C86.6044 24.8182 86.6099 24.7792 86.6383 24.7612L89.3437 23.0502C89.3667 23.0362 89.3969 23.0412 89.4148 23.0612C90.652 24.4742 92.0344 25.2102 94.0882 25.2102C95.9097 25.2102 97.1573 24.6372 97.1573 23.5642C97.1573 22.5662 96.284 22.3412 95.2859 22.1162L91.6927 21.3932C89.2224 20.8942 86.8506 19.6463 86.8506 16.9514C86.8506 13.9571 89.8213 11.9609 93.6889 11.9609C96.7074 11.9609 98.9408 13.1384 100.486 14.8611C100.508 14.8849 100.504 14.9218 100.479 14.9411L97.8692 16.9164C97.8441 16.9354 97.808 16.9292 97.7902 16.9032C96.9223 15.6353 95.8328 14.9053 93.6889 14.9053C92.2167 14.9053 90.5341 15.7248 90.5341 16.7229C90.5341 17.6212 91.8175 17.9957 92.7407 18.1953L96.1592 18.9189C99.3781 19.5926 101 20.7692 101 23.3642C101 26.5582 97.9059 28.2802 94.0882 28.2802C90.7686 28.2802 88.5727 27.0592 86.6266 24.8442ZM86.0285 24.7712C86.0588 24.7712 86.0834 24.7962 86.0834 24.8262V27.9352C86.0834 27.9662 86.0588 27.9902 86.0285 27.9902H72.9633C72.933 27.9902 72.9084 27.9662 72.9084 27.9352V12.3251C72.9084 12.2948 72.933 12.2702 72.9633 12.2702H85.8039C85.8342 12.2702 85.8588 12.2948 85.8588 12.3251V15.4342C85.8588 15.4645 85.8342 15.4891 85.8039 15.4891H76.6813C76.6509 15.4891 76.6264 15.5137 76.6264 15.544V18.3287C76.6264 18.359 76.6509 18.3836 76.6813 18.3836H83.4833C83.5136 18.3836 83.5382 18.4082 83.5382 18.4385V21.4972C83.5382 21.5282 83.5136 21.5522 83.4833 21.5522H76.6813C76.6509 21.5522 76.6264 21.5772 76.6264 21.6072V24.7162C76.6264 24.7472 76.6509 24.7712 76.6813 24.7712H86.0285ZM67.9936 12.2702C67.9633 12.2702 67.9387 12.2948 67.9387 12.3251V27.9352C67.9387 27.9662 67.9633 27.9902 67.9936 27.9902H71.6766C71.7069 27.9902 71.7315 27.9662 71.7315 27.9352V12.3251C71.7315 12.2948 71.7069 12.2702 71.6766 12.2702H67.9936ZM56.4471 15.3144C56.4168 15.3144 56.3922 15.339 56.3922 15.3693V19.0274C56.3922 19.0577 56.4168 19.0823 56.4471 19.0823H60.1351C62.1064 19.0823 63.0795 18.4834 63.0795 17.2108C63.0795 15.9632 62.1313 15.3144 60.1601 15.3144H56.4471ZM67.2965 27.9352C67.2965 27.9662 67.2719 27.9902 67.2416 27.9902H62.9346C62.9161 27.9902 62.8988 27.9812 62.8891 27.9652C62.574 27.4552 62.3784 26.3702 62.2311 24.9462C62.0814 23.0002 61.3328 21.9772 59.7359 21.9772H56.4471C56.4168 21.9772 56.3922 22.0012 56.3922 22.0312V27.9352C56.3922 27.9662 56.3677 27.9902 56.3373 27.9902H52.7292C52.6989 27.9902 52.6743 27.9662 52.6743 27.9352V12.3251C52.6743 12.2948 52.6989 12.2702 52.7292 12.2702H60.7839C64.8012 12.2702 66.7974 14.0668 66.7974 16.9114C66.7974 18.9418 64.9056 20.4562 62.6578 20.6012C62.6498 20.6022 62.6489 20.6132 62.6567 20.6152C64.3012 20.9802 65.4533 22.2452 65.7744 24.0732C66.2191 26.4442 66.6883 27.2512 67.2788 27.7992C67.2901 27.8102 67.2965 27.8242 67.2965 27.8402V27.9352Z" fill="#06050B"/>
</svg>
