<svg width="134" height="40" viewBox="0 0 134 40" fill="none" xmlns="http://www.w3.org/2000/svg">
<path d="M18.0805 4.35259C17.9622 4.4562 17.8853 4.54564 17.7893 4.60454C15.7737 5.84359 14.214 7.55709 12.8141 9.42602C11.7333 10.8789 10.7768 12.4203 9.95476 14.0337V14.0375C9.92477 14.0877 9.69026 14.4793 9.33524 15.2144C9.25453 15.3824 9.16763 15.5685 9.07456 15.7729C8.8526 16.2609 8.60065 16.8527 8.33233 17.5469C8.28652 17.6647 8.24071 17.7858 8.19381 17.9101C7.91677 18.6496 7.62501 19.4949 7.33324 20.446H7.3207C7.25453 20.6761 7.19 20.9061 7.1271 21.1359C7.12219 21.1522 7.11783 21.168 7.11347 21.1839C7.04802 21.41 6.99349 21.6154 6.94986 21.8001C6.07729 25.1524 5.58975 28.5336 6.37288 32.0457C2.03349 28.7092 -0.87379 21.7341 1.59448 14.7438C1.59448 14.7438 2.38143 12.7314 3.07294 11.6805C5.58757 7.4153 11.3487 3.594 18.0805 4.35259Z" fill="#101841"/>
<path d="M7.11087 21.1855C7.05452 21.3909 6.99998 21.5964 6.94727 21.8018C6.99308 21.6171 7.04761 21.4117 7.11087 21.1855Z" fill="#101841"/>
<path d="M19.2634 27.7677C19.0136 28.7668 18.5228 29.6552 17.8613 30.4492C17.0116 31.4717 16.1009 32.4305 15.0369 33.2349C14.3078 33.7862 13.5246 34.2345 12.6504 34.517C10.9424 35.0684 9.50811 34.4957 8.659 32.9077C8.21562 32.0782 7.99912 31.1811 7.8955 30.2556C7.6839 28.3801 7.80115 26.5156 8.17963 24.675C8.40323 23.5843 8.69663 22.5083 8.97367 21.429V21.4258C9.02129 21.2418 9.06801 21.058 9.11382 20.8744C9.14382 20.7539 9.17545 20.6339 9.22289 20.449H9.21853C9.37396 19.9239 9.61882 19.1909 9.99784 18.2578C11.6884 18.976 13.3741 19.697 15.0696 20.4011C16.1554 20.8521 17.1654 21.4051 17.9573 22.2945C19.373 23.8831 19.7799 25.7226 19.2634 27.7677Z" fill="#101841"/>
<path d="M25.0551 12.4595C25.0093 13.4772 24.9139 14.491 24.5583 15.4541C23.7861 17.5466 22.3431 18.9078 20.1409 19.3992C18.8773 19.6811 17.6416 19.4979 16.4609 19.0201C14.6127 18.2735 12.783 17.4784 10.9441 16.7024C10.8966 16.6822 10.859 16.6391 10.7461 16.5519C10.7608 16.5213 10.7761 16.4908 10.7908 16.4608V16.4575C10.9801 16.0703 11.1627 15.6897 11.3498 15.3123L11.3983 15.2157L11.4207 15.1716C11.4531 15.1072 11.4858 15.0429 11.5189 14.9785C12.8081 12.4644 14.3307 10.1107 16.3311 8.09502C17.0869 7.33153 17.8968 6.63402 18.8321 6.0963C19.6583 5.62129 20.5188 5.25645 21.501 5.27827C22.4352 5.30008 23.1758 5.70364 23.7572 6.40988C24.1891 6.93505 24.459 7.54858 24.6521 8.19809C25.0687 9.5942 25.1189 11.0203 25.0551 12.4595Z" fill="#101841"/>
<path d="M14.7383 35.6571C14.9019 35.5316 14.9793 35.4607 15.0655 35.4062C17.1804 34.0854 18.8268 32.2857 20.2687 30.2842C20.6294 29.784 20.9748 29.2732 21.3049 28.7518C22.1306 27.4539 23.2982 26.6075 24.751 26.1543C26.0326 25.7545 27.3289 25.7485 28.6045 26.1805C29.2512 26.3986 29.8729 26.6925 30.5067 26.9527C28.16 32.2186 21.8552 36.402 14.7383 35.6571Z" fill="#101841"/>
<path d="M26.5228 7.90234C29.0047 10.0074 30.6446 12.5536 31.5456 15.5804C32.597 19.1148 32.2425 22.8947 31.2303 25.2511C28.5679 24.4271 26.6635 22.8592 26.0566 20.0097C25.8962 19.2561 25.9153 18.5007 26.0566 17.7405C26.3123 16.3689 26.6052 15.0001 26.7688 13.6171C26.9798 11.8283 26.958 10.0314 26.5479 8.259C26.5299 8.17665 26.5354 8.08667 26.5228 7.90234Z" fill="#101841"/>
<path d="M7.11087 21.1855C7.05452 21.3909 6.99998 21.5964 6.94727 21.8018C6.99308 21.6171 7.04761 21.4117 7.11087 21.1855Z" fill="#101841"/>
<path d="M10.7894 16.457L10.7461 16.5497C10.7593 16.5179 10.7746 16.4872 10.7894 16.457Z" fill="#101841"/>
<path d="M58.582 8.17383V30H55.0371L44.7686 15.1318H44.5781V30H40.623V8.17383H44.168L54.4365 23.042H54.627V8.17383H58.582ZM68.2359 30.3223C66.5953 30.3223 65.1793 29.9805 63.9879 29.2969C62.7965 28.6035 61.8785 27.627 61.234 26.3672C60.5992 25.1074 60.2818 23.623 60.2818 21.9141C60.2818 20.2246 60.5992 18.7451 61.234 17.4756C61.8687 16.1963 62.7623 15.2002 63.9146 14.4873C65.067 13.7744 66.4244 13.418 67.9869 13.418C68.9928 13.418 69.9449 13.5791 70.8434 13.9014C71.7516 14.2236 72.5523 14.7217 73.2457 15.3955C73.9488 16.0693 74.5006 16.9287 74.901 17.9736C75.3014 19.0088 75.5016 20.2441 75.5016 21.6797V22.8809H62.0836V20.2881H73.5826L71.7809 21.0498C71.7809 20.1221 71.6393 19.3164 71.3561 18.6328C71.0729 17.9395 70.6529 17.3975 70.0963 17.0068C69.5396 16.6162 68.8463 16.4209 68.0162 16.4209C67.1861 16.4209 66.4781 16.6162 65.8922 17.0068C65.3062 17.3975 64.8619 17.9248 64.5592 18.5889C64.2564 19.2432 64.1051 19.9756 64.1051 20.7861V22.5879C64.1051 23.584 64.276 24.4385 64.6178 25.1514C64.9693 25.8545 65.4576 26.3916 66.0826 26.7627C66.7174 27.1338 67.4547 27.3193 68.2945 27.3193C68.8414 27.3193 69.3395 27.2412 69.7887 27.085C70.2477 26.9287 70.6383 26.6943 70.9605 26.3818C71.2926 26.0596 71.5465 25.6641 71.7223 25.1953L75.3258 25.6201C75.0914 26.5674 74.6568 27.3975 74.0221 28.1104C73.3971 28.8135 72.5914 29.3604 71.6051 29.751C70.6285 30.1318 69.5055 30.3223 68.2359 30.3223ZM79.5305 13.623L82.8264 19.6875L86.1809 13.623H90.2678L85.3459 21.8262L90.3557 30H86.298L82.8264 24.1113L79.4133 30H75.3264L80.2922 21.8262L75.4436 13.623H79.5305ZM98.0613 30.3223C96.4598 30.3223 95.073 29.9707 93.9012 29.2676C92.7293 28.5645 91.8211 27.5781 91.1766 26.3086C90.5418 25.0391 90.2244 23.5645 90.2244 21.8848C90.2244 20.1953 90.5418 18.7158 91.1766 17.4463C91.8211 16.167 92.7293 15.1758 93.9012 14.4727C95.073 13.7695 96.4598 13.418 98.0613 13.418C99.6629 13.418 101.05 13.7695 102.221 14.4727C103.393 15.1758 104.302 16.167 104.946 17.4463C105.591 18.7158 105.913 20.1953 105.913 21.8848C105.913 23.5645 105.591 25.0391 104.946 26.3086C104.302 27.5781 103.393 28.5645 102.221 29.2676C101.05 29.9707 99.6629 30.3223 98.0613 30.3223ZM98.0613 27.2168C98.95 27.2168 99.6824 26.9824 100.259 26.5137C100.835 26.0352 101.264 25.3906 101.548 24.5801C101.841 23.7695 101.987 22.8711 101.987 21.8848C101.987 20.8789 101.841 19.9707 101.548 19.1602C101.264 18.3496 100.835 17.71 100.259 17.2412C99.6824 16.7627 98.95 16.5234 98.0613 16.5234C97.1922 16.5234 96.4646 16.7627 95.8787 17.2412C95.2928 17.71 94.8533 18.3496 94.5604 19.1602C94.2771 19.9707 94.1355 20.8789 94.1355 21.8848C94.1355 22.8711 94.2771 23.7695 94.5604 24.5801C94.8533 25.3906 95.2928 26.0352 95.8787 26.5137C96.4646 26.9824 97.1922 27.2168 98.0613 27.2168ZM107.437 30V13.623H111.172V16.377H111.348C111.641 15.4199 112.154 14.6875 112.886 14.1797C113.619 13.6621 114.454 13.4033 115.391 13.4033C115.596 13.4033 115.83 13.4131 116.094 13.4326C116.368 13.4521 116.592 13.4766 116.768 13.5059V17.0508C116.602 16.9922 116.343 16.9434 115.992 16.9043C115.64 16.8652 115.303 16.8457 114.981 16.8457C114.268 16.8457 113.633 16.9971 113.077 17.2998C112.52 17.6025 112.08 18.0176 111.758 18.5449C111.446 19.0723 111.289 19.6875 111.289 20.3906V30H107.437ZM122.013 30.3369C120.968 30.3369 120.03 30.1514 119.2 29.7803C118.37 29.3994 117.716 28.8428 117.237 28.1104C116.759 27.3779 116.52 26.4746 116.52 25.4004C116.52 24.4824 116.69 23.7207 117.032 23.1152C117.374 22.5098 117.838 22.0264 118.424 21.665C119.02 21.3037 119.688 21.0303 120.431 20.8447C121.173 20.6494 121.939 20.5127 122.73 20.4346C123.697 20.3271 124.479 20.2344 125.074 20.1562C125.67 20.0781 126.1 19.9512 126.363 19.7754C126.637 19.5996 126.773 19.3262 126.773 18.9551V18.8818C126.773 18.0908 126.539 17.4756 126.07 17.0361C125.602 16.5967 124.918 16.377 124.02 16.377C123.072 16.377 122.32 16.582 121.764 16.9922C121.217 17.4023 120.846 17.8857 120.65 18.4424L117.062 17.9297C117.345 16.9336 117.813 16.1035 118.468 15.4395C119.122 14.7656 119.918 14.2627 120.855 13.9307C121.803 13.5889 122.848 13.418 123.99 13.418C124.771 13.418 125.553 13.5107 126.334 13.6963C127.115 13.8721 127.833 14.1748 128.487 14.6045C129.142 15.0342 129.664 15.6104 130.055 16.333C130.445 17.0557 130.641 17.959 130.641 19.043V30H126.935V27.7441H126.817C126.583 28.1934 126.251 28.6182 125.821 29.0186C125.401 29.4092 124.874 29.7266 124.239 29.9707C123.614 30.2148 122.872 30.3369 122.013 30.3369ZM122.994 27.4951C123.775 27.4951 124.449 27.3438 125.016 27.041C125.582 26.7285 126.021 26.3184 126.334 25.8105C126.646 25.293 126.803 24.7314 126.803 24.126V22.207C126.676 22.3047 126.471 22.3975 126.188 22.4854C125.904 22.5635 125.582 22.6367 125.221 22.7051C124.859 22.7734 124.503 22.832 124.151 22.8809C123.81 22.9297 123.512 22.9688 123.258 22.998C122.682 23.0762 122.164 23.208 121.705 23.3936C121.256 23.5693 120.899 23.8135 120.636 24.126C120.372 24.4385 120.24 24.8438 120.24 25.3418C120.24 26.0547 120.499 26.5918 121.017 26.9531C121.534 27.3145 122.193 27.4951 122.994 27.4951Z" fill="#101841"/>
</svg>
