<svg width="122" height="32" viewBox="0 0 122 32" fill="none" xmlns="http://www.w3.org/2000/svg">
<g clip-path="url(#clip0_4906_6635)">
<path d="M64.2193 15.4057C63.466 16.138 63.0894 17.205 63.0894 18.6068V27.3624H58.0684V10.165H62.0539V15.84C62.2447 14.2202 62.7259 12.9144 63.4975 11.9224C64.5435 10.6043 66.0498 9.94531 68.0164 9.94531H68.6755V14.276H67.4202C66.0394 14.276 64.9724 14.6526 64.2193 15.4057Z" fill="#7B5DFF"/>
<path fill-rule="evenodd" clip-rule="evenodd" d="M79.4395 25.26C79.6552 24.8943 79.833 24.4908 79.9731 24.0496V27.3626H83.9586V16.8182C83.9586 15.2282 83.6447 13.9311 83.0171 12.9269C82.3894 11.9017 81.4689 11.1381 80.2554 10.636C79.063 10.1339 77.588 9.88281 75.8306 9.88281C75.2239 9.88281 74.5753 9.89327 73.885 9.91419C73.1946 9.93511 72.525 9.9665 71.8765 10.0083C71.228 10.0502 70.6631 10.092 70.1818 10.1339V14.3705C70.8304 14.3286 71.5522 14.2868 72.3472 14.2449C73.1422 14.2031 73.9163 14.1717 74.6695 14.1507C75.4227 14.1298 76.0294 14.1193 76.4897 14.1193C77.4102 14.1193 78.0797 14.339 78.4981 14.7784C78.9165 15.2177 79.1257 15.8768 79.1257 16.7555V16.8182H76.0189C74.4917 16.8182 73.1422 17.017 71.9706 17.4144C70.799 17.791 69.889 18.3874 69.2404 19.2032C68.5918 19.9983 68.2676 21.0234 68.2676 22.2787C68.2676 23.4293 68.5291 24.4231 69.0521 25.26C69.5751 26.076 70.2969 26.7035 71.2175 27.1428C72.1589 27.5823 73.2468 27.8019 74.4812 27.8019C75.6737 27.8019 76.6779 27.5823 77.4938 27.1428C78.3307 26.7035 78.9793 26.076 79.4395 25.26ZM78.6235 23.0005C78.9165 22.5193 79.0838 21.8498 79.1257 20.992V19.6112H75.9875C75.1088 19.6112 74.4289 19.8308 73.9477 20.2703C73.4874 20.6887 73.2573 21.264 73.2573 21.9962C73.2573 22.6866 73.4874 23.2515 73.9477 23.6909C74.4289 24.1094 75.1088 24.3185 75.9875 24.3185C76.5524 24.3185 77.0545 24.2244 77.4938 24.036C77.9541 23.8269 78.3307 23.4816 78.6235 23.0005Z" fill="#7B5DFF"/>
<path d="M94.369 27.9582C92.8837 27.9582 91.5865 27.7176 90.4776 27.2364C89.3898 26.7343 88.4797 26.0648 87.7474 25.228C87.0151 24.3911 86.4712 23.4497 86.1155 22.4036C85.76 21.3366 85.582 20.2383 85.582 19.1085V18.5122C85.582 17.3406 85.7703 16.2214 86.1469 15.1544C86.5235 14.0665 87.078 13.1041 87.8101 12.2672C88.5424 11.4304 89.4525 10.7713 90.5404 10.2902C91.6492 9.80896 92.915 9.56836 94.3376 9.56836C95.8858 9.56836 97.2561 9.87172 98.4487 10.4784C99.6412 11.0642 100.593 11.8906 101.304 12.9576C102.016 14.0246 102.413 15.2484 102.497 16.6293H97.57C97.4863 15.8552 97.1724 15.2067 96.6286 14.6836C96.1055 14.1397 95.3419 13.8677 94.3376 13.8677C93.5008 13.8677 92.8 14.0769 92.2351 14.4953C91.6911 14.9137 91.2832 15.4891 91.0112 16.2214C90.7392 16.9535 90.6032 17.8218 90.6032 18.826C90.6032 19.7466 90.7287 20.5835 90.9798 21.3366C91.2308 22.0688 91.6284 22.6442 92.1722 23.0626C92.7371 23.4602 93.4694 23.6588 94.369 23.6588C95.0385 23.6588 95.6034 23.5437 96.0637 23.3137C96.5448 23.0626 96.9214 22.7279 97.1934 22.3094C97.4863 21.8701 97.6641 21.368 97.7269 20.8031H102.622C102.56 22.2257 102.162 23.481 101.43 24.5689C100.698 25.6359 99.7249 26.4728 98.5114 27.0795C97.298 27.6653 95.9171 27.9582 94.369 27.9582Z" fill="#7B5DFF"/>
<path fill-rule="evenodd" clip-rule="evenodd" d="M108.25 27.2051C109.38 27.7072 110.677 27.9582 112.141 27.9582C113.585 27.9582 114.861 27.7072 115.97 27.2051C117.079 26.7029 117.999 26.0021 118.731 25.1024C119.464 24.2028 119.955 23.1777 120.206 22.0269H115.593C115.384 22.5501 114.986 22.9894 114.401 23.3451C113.815 23.7007 113.062 23.8786 112.141 23.8786C111.137 23.8786 110.321 23.6693 109.693 23.2509C109.066 22.8324 108.605 22.2467 108.313 21.4936C108.149 21.0618 108.031 20.591 107.959 20.0813H120.52V18.3868C120.52 16.8176 120.185 15.374 119.516 14.056C118.846 12.717 117.874 11.6396 116.597 10.8236C115.342 9.98679 113.794 9.56836 111.953 9.56836C110.551 9.56836 109.296 9.81942 108.187 10.3215C107.099 10.8027 106.189 11.4617 105.457 12.2986C104.725 13.1354 104.16 14.0874 103.762 15.1544C103.386 16.2004 103.197 17.2988 103.197 18.4495V19.0771C103.197 20.1859 103.386 21.2738 103.762 22.3408C104.16 23.3869 104.725 24.3388 105.457 25.1966C106.21 26.0335 107.141 26.7029 108.25 27.2051ZM107.998 17.2255C108.076 16.7756 108.191 16.3677 108.344 16.0017C108.658 15.2276 109.118 14.6417 109.725 14.2443C110.331 13.8467 111.074 13.6481 111.953 13.6481C112.811 13.6481 113.522 13.8467 114.087 14.2443C114.673 14.6209 115.112 15.1752 115.405 15.9075C115.563 16.3039 115.679 16.7432 115.752 17.2255H107.998Z" fill="#7B5DFF"/>
<path d="M46.113 27.362V8.94074H39.6797V4.45312H57.7244V8.94074H51.2596V27.362H46.113Z" fill="#7B5DFF"/>
<path fill-rule="evenodd" clip-rule="evenodd" d="M16.2306 2.87964C9.07387 2.87964 3.27222 8.68129 3.27222 15.838C3.27222 22.9947 9.07387 28.7964 16.2306 28.7964C23.3872 28.7964 29.189 22.9947 29.189 15.838C29.189 8.68129 23.3872 2.87964 16.2306 2.87964ZM0.392578 15.838C0.392578 7.09092 7.4835 0 16.2306 0C24.9776 0 32.0686 7.09092 32.0686 15.838C32.0686 24.5851 24.9776 31.676 16.2306 31.676C7.4835 31.676 0.392578 24.5851 0.392578 15.838Z" fill="#7B5DFF"/>
<path fill-rule="evenodd" clip-rule="evenodd" d="M24.1331 10.4678C24.5552 9.13824 23.2943 7.8895 21.969 8.3244L12.9406 11.2868C12.418 11.4583 12.0097 11.8706 11.8433 12.3948L9.0458 21.2069C8.62372 22.5364 9.88459 23.7852 11.21 23.3503L20.2383 20.3878C20.7609 20.2164 21.1692 19.8042 21.3356 19.2799L24.1331 10.4678ZM16.5877 17.8941C17.7237 17.8941 18.6447 16.9733 18.6447 15.8373C18.6447 14.7013 17.7237 13.7805 16.5877 13.7805C15.4519 13.7805 14.5309 14.7013 14.5309 15.8373C14.5309 16.9733 15.4519 17.8941 16.5877 17.8941Z" fill="#7B5DFF"/>
</g>
<defs>
<clipPath id="clip0_4906_6635">
<rect width="121.6" height="32" fill="white"/>
</clipPath>
</defs>
</svg>
