<svg width="104" height="32" viewBox="0 0 104 32" fill="none" xmlns="http://www.w3.org/2000/svg">
<path d="M26.0231 26.7715C26.1551 29.4191 23.6638 31.6948 20.4588 31.8544C17.254 32.014 14.5489 29.9971 14.4171 27.3495C14.2853 24.702 16.7765 22.4263 19.9814 22.2667C23.1864 22.1071 25.8913 24.1239 26.0231 26.7715Z" fill="#7B5DFF"/>
<path d="M14.6289 21.4501C14.7003 22.8834 13.9674 24.0847 12.992 24.1332C12.0166 24.1817 11.168 23.0593 11.0966 21.6261C11.0252 20.1927 11.7581 18.9914 12.7335 18.9429C13.7089 18.8943 14.5575 20.0168 14.6289 21.4501Z" fill="#7B5DFF"/>
<path d="M19.0273 18.3408C19.0986 19.774 18.3658 20.9753 17.3905 21.0238C16.415 21.0725 15.5665 19.9499 15.495 18.5167C15.4236 17.0835 16.1565 15.8822 17.1319 15.8335C18.1074 15.785 18.9559 16.9075 19.0273 18.3408Z" fill="#7B5DFF"/>
<path d="M23.5683 18.1142C23.6398 19.5475 22.9068 20.7487 21.9315 20.7973C20.956 20.8459 20.1075 19.7233 20.036 18.2901C19.9647 16.8568 20.6975 15.6556 21.673 15.607C22.6484 15.5585 23.497 16.6809 23.5683 18.1142Z" fill="#7B5DFF"/>
<path d="M28.2539 20.7704C28.3252 22.2037 27.5924 23.405 26.6169 23.4535C25.6415 23.5021 24.7929 22.3796 24.7216 20.9464C24.6502 19.513 25.3831 18.3117 26.3585 18.2632C27.3338 18.2147 28.1825 19.3372 28.2539 20.7704Z" fill="#7B5DFF"/>
<path d="M10.8829 14.5297C9.37504 16.7099 6.0132 16.9977 3.37399 15.1724C0.734789 13.3471 -0.182365 10.1 1.32548 7.91979C2.83331 5.73957 6.19515 5.45184 8.83435 7.27712C11.4736 9.1024 12.3907 12.3495 10.8829 14.5297Z" fill="#7B5DFF"/>
<path d="M5.08656 3.36836C4.27028 4.54862 2.95741 5.05508 2.15418 4.49956C1.35094 3.94404 1.3615 2.53691 2.17778 1.35665C2.99405 0.176379 4.30692 -0.330079 5.11016 0.225441C5.9134 0.78096 5.90283 2.1881 5.08656 3.36836Z" fill="#7B5DFF"/>
<path d="M10.4674 3.57929C9.65113 4.75956 8.33826 5.26602 7.53504 4.7105C6.7318 4.15498 6.74236 2.74785 7.55864 1.56758C8.37491 0.387316 9.68778 -0.119141 10.491 0.436379C11.2943 0.991897 11.2837 2.39903 10.4674 3.57929Z" fill="#7B5DFF"/>
<path d="M14.2095 6.16718C13.3933 7.34746 12.0805 7.8539 11.2772 7.29838C10.474 6.74287 10.4846 5.33573 11.3008 4.15547C12.1171 2.97521 13.43 2.46875 14.2332 3.02427C15.0364 3.57979 15.0259 4.98692 14.2095 6.16718Z" fill="#7B5DFF"/>
<path d="M16.3053 11.1281C15.4891 12.3084 14.1762 12.8148 13.3729 12.2593C12.5697 11.7038 12.5803 10.2967 13.3965 9.11641C14.2128 7.93614 15.5257 7.42969 16.3289 7.98521C17.1321 8.54073 17.1216 9.94786 16.3053 11.1281Z" fill="#7B5DFF"/>
<path d="M36.9966 25.4797C35.7322 24.8564 34.6991 24.046 33.898 23.0486C33.0963 22.0336 32.5 20.9471 32.108 19.7894C31.734 18.6141 31.5469 17.4744 31.5469 16.3701V15.7822C31.5469 14.5713 31.7426 13.378 32.1345 12.2025C32.5265 11.0093 33.1232 9.93171 33.9245 8.97C34.7439 8.00827 35.7678 7.24251 36.9966 6.67271C38.2433 6.08484 39.7126 5.79102 41.4047 5.79102C43.168 5.79102 44.726 6.12051 46.0797 6.77948C47.4333 7.43846 48.5107 8.3556 49.3124 9.53111C50.1314 10.6888 50.6125 12.0511 50.7547 13.6185H46.3467C46.2223 12.8348 45.937 12.167 45.4921 11.6148C45.0466 11.0626 44.4681 10.6353 43.7556 10.3325C43.061 10.0298 42.2772 9.87843 41.4047 9.87843C40.5321 9.87843 39.7574 10.0298 39.0806 10.3325C38.4038 10.6353 37.834 11.0626 37.3707 11.6148C37.2228 11.798 37.0858 11.9928 36.9597 12.1994C36.9249 12.2564 36.891 12.3143 36.8579 12.373L36.8118 12.4558C36.7779 12.5187 36.7448 12.5824 36.7126 12.647C36.6618 12.749 36.613 12.8534 36.5669 12.9604C36.5421 13.018 36.5181 13.0762 36.4947 13.135C36.4755 13.1823 36.4568 13.2301 36.4385 13.2784C36.4003 13.3808 36.3638 13.4852 36.329 13.5917C36.0971 14.3396 35.9814 15.1768 35.9814 16.1028C35.9814 17.0113 36.0971 17.8481 36.329 18.6141C36.3563 18.6959 36.3846 18.7766 36.4142 18.8563L36.4599 18.9743C36.6979 19.5755 37.0102 20.1144 37.3972 20.5909C37.8784 21.1431 38.4659 21.5704 39.1606 21.8732C39.8552 22.1583 40.6478 22.3007 41.5382 22.3007C42.8918 22.3007 44.0314 21.9713 44.9579 21.3123C45.9018 20.6532 46.4715 19.7451 46.6674 18.5875H51.0488C50.8883 20.0121 50.4077 21.3212 49.606 22.5145C48.8227 23.6898 47.7448 24.6337 46.3738 25.3461C45.0202 26.0408 43.4081 26.3882 41.5382 26.3882C39.7752 26.3882 38.2611 26.0852 36.9966 25.4797Z" fill="#7B5DFF"/>
<path d="M52.5664 25.8808V6.37891H56.8677V25.8808H52.5664Z" fill="#7B5DFF"/>
<path d="M60.7119 24.7046C61.6202 25.7909 62.9203 26.3341 64.6123 26.3341H64.7993C65.9037 26.3341 67.0642 26.3609 67.8123 25.88C68.3274 25.549 69.039 25.0826 69.5544 24.5042V25.88H72.9472V11.2402H68.6731V19.8424C68.6731 20.6617 68.4326 21.3118 67.9516 21.7926C67.471 22.2735 66.8476 22.514 66.0816 22.514C65.3335 22.514 64.7371 22.2824 64.2917 21.8193C63.8468 21.3563 63.624 20.733 63.624 19.9492V11.2402H59.3496V19.7356C59.3496 21.944 59.8038 23.6003 60.7119 24.7046Z" fill="#7B5DFF"/>
<path fill-rule="evenodd" clip-rule="evenodd" d="M82.0571 26.3874C80.8105 26.3874 79.7061 26.1737 78.7443 25.7463C77.8004 25.3186 77.0078 24.7489 76.3668 24.0365C75.7435 23.3063 75.2624 22.496 74.924 21.6054C74.6034 20.6972 74.4434 19.7709 74.4434 18.827V18.2928C74.4434 17.3133 74.6034 16.3781 74.924 15.4877C75.2624 14.5796 75.7435 13.7692 76.3668 13.0566C76.99 12.3442 77.7647 11.7833 78.6908 11.3736C79.6347 10.9462 80.7035 10.7324 81.8965 10.7324C83.4638 10.7324 84.7817 11.0887 85.8505 11.8011C86.9369 12.4958 87.7651 13.413 88.3349 14.5528C88.9048 15.6747 89.1897 16.9035 89.1897 18.2393V19.6819H78.4969C78.5582 20.1158 78.6587 20.5166 78.7978 20.8842C79.047 21.5254 79.4389 22.024 79.9731 22.38C80.5076 22.7362 81.2019 22.9144 82.0571 22.9144C82.8404 22.9144 83.4816 22.763 83.9805 22.4603C84.2145 22.3181 84.4133 22.1601 84.5769 21.9867C84.7617 21.7904 84.9013 21.5745 84.9957 21.3383H88.9226C88.709 22.3178 88.2905 23.1904 87.6668 23.9563C87.0435 24.7222 86.2602 25.3186 85.3163 25.7463C84.3723 26.1737 83.2859 26.3874 82.0571 26.3874ZM78.5508 17.1374C78.5433 17.1748 78.5364 17.2127 78.5299 17.2509H85.1305C85.0688 16.8403 84.9701 16.4664 84.8352 16.1289C84.5859 15.5055 84.2118 15.0336 83.7134 14.7131C83.2324 14.3746 82.6268 14.2054 81.8965 14.2054C81.76 14.2054 81.6268 14.2111 81.4977 14.2224C81.3698 14.2337 81.2458 14.2505 81.1253 14.2729C80.7035 14.3512 80.3284 14.4979 80.0001 14.7131C79.4834 15.0515 79.0914 15.5502 78.8243 16.2091C78.7965 16.2761 78.77 16.3448 78.7447 16.4151C78.7187 16.4877 78.6948 16.5622 78.6721 16.6382C78.6251 16.797 78.5847 16.9633 78.5508 17.1374Z" fill="#7B5DFF"/>
<path d="M91.3543 25.0515C92.53 25.9064 94.1594 26.3338 96.2434 26.3338C97.5613 26.3338 98.7101 26.1468 99.6897 25.7726C100.669 25.3809 101.426 24.8287 101.96 24.1166C102.495 23.3862 102.762 22.5313 102.762 21.5517C102.762 20.1983 102.263 19.1208 101.265 18.3192C100.268 17.5178 98.8701 17.0193 97.0716 16.8234L95.9228 16.7164C95.1568 16.6274 94.6049 16.476 94.2665 16.2622C94.129 16.1754 94.0194 16.0726 93.9376 15.9534C93.8184 15.7793 93.7588 15.5704 93.7588 15.3273C93.7588 14.8999 93.9545 14.5615 94.3465 14.312C94.7384 14.0628 95.2638 13.9382 95.9228 13.9382C96.7596 13.9382 97.3921 14.1075 97.8192 14.4456C98.2469 14.7662 98.4961 15.167 98.5674 15.6478H102.361C102.308 14.0807 101.702 12.8874 100.544 12.0681C99.387 11.2309 97.864 10.8125 95.9763 10.8125C94.8006 10.8125 93.7501 10.9906 92.8236 11.3469C91.9155 11.7029 91.2029 12.2283 90.6867 12.923C90.1703 13.6176 89.912 14.4812 89.912 15.5143C89.912 16.7609 90.3482 17.785 91.2208 18.5866C92.1116 19.388 93.4383 19.8777 95.2016 20.0559L96.3504 20.1626C97.3121 20.2694 97.9797 20.4564 98.3539 20.7238C98.7279 20.973 98.9149 21.3114 98.9149 21.7387C98.9149 22.2196 98.6653 22.5936 98.1669 22.8607C97.6857 23.1102 97.0716 23.2348 96.3234 23.2348C95.3438 23.2348 94.6049 23.0567 94.1059 22.7005C93.6253 22.3266 93.3491 21.9079 93.2782 21.4449H89.4844C89.5557 22.9945 90.179 24.1966 91.3543 25.0515Z" fill="#7B5DFF"/>
</svg>
