<svg width="130" height="40" viewBox="0 0 130 40" fill="none" xmlns="http://www.w3.org/2000/svg">
<path d="M36.0111 4.86418C37.5804 4.86418 39.1476 4.84757 40.7148 4.86418C42.6868 4.89324 43.0106 5.48691 42.0018 7.25755C39.0957 12.3639 36.182 17.4641 33.2607 22.5581C31.2209 26.1256 29.1784 29.6939 27.133 33.2628C25.7464 35.6687 24.6608 35.6894 23.297 33.323C21.8627 30.8321 20.503 28.3038 19.0292 25.8502C18.5643 25.0718 18.5559 24.5238 19.0168 23.7288C22.4238 17.8544 25.7921 11.9592 29.1216 6.04322C29.5949 5.21291 30.1201 4.79775 31.1123 4.8455C32.7418 4.91607 34.3775 4.86418 36.0111 4.86418Z" fill="#101841"/>
<path d="M7.23608 35.1315C5.66887 35.1315 4.09958 35.1709 2.53445 35.119C0.622663 35.0568 -0.0125236 34.0811 0.902892 32.4579C4.14802 26.7246 7.4312 21.0135 10.7524 15.3245C11.535 13.9794 12.6435 13.9544 13.4613 15.312C15.1801 18.1579 16.7639 21.0868 18.4432 23.9555C18.8957 24.7256 18.6092 25.3131 18.2481 25.9503C16.7431 28.6219 15.2112 31.2768 13.7519 33.9732C13.2434 34.9135 12.5667 35.2062 11.5392 35.1522C10.111 35.0734 8.67044 35.1315 7.23608 35.1315Z" fill="#101841"/>
<path d="M51 30V8.17383H59.3789C60.9512 8.17383 62.2598 8.42285 63.3047 8.9209C64.3496 9.40918 65.1309 10.083 65.6484 10.9424C66.166 11.792 66.4248 12.7539 66.4248 13.8281C66.4248 14.7168 66.2539 15.4785 65.9121 16.1133C65.5801 16.7383 65.126 17.2461 64.5498 17.6367C63.9736 18.0273 63.3291 18.3105 62.6162 18.4863V18.7061C63.3975 18.7354 64.1396 18.9697 64.8428 19.4092C65.5557 19.8389 66.1367 20.4443 66.5859 21.2256C67.0449 22.0068 67.2744 22.9492 67.2744 24.0527C67.2744 25.1855 67.001 26.2012 66.4541 27.0996C65.917 27.9883 65.0967 28.6963 63.9932 29.2236C62.8994 29.7412 61.5176 30 59.8477 30H51ZM54.9551 26.7041H59.2031C60.6387 26.7041 61.6738 26.4258 62.3086 25.8691C62.9531 25.3125 63.2754 24.6045 63.2754 23.7451C63.2754 23.0908 63.1143 22.5049 62.792 21.9873C62.4697 21.4697 62.0107 21.0596 61.415 20.7568C60.8291 20.4541 60.1357 20.3027 59.335 20.3027H54.9551V26.7041ZM54.9551 17.4609H58.8809C59.5547 17.4609 60.165 17.334 60.7119 17.0801C61.2588 16.8262 61.6885 16.4697 62.001 16.0107C62.3232 15.542 62.4844 14.9902 62.4844 14.3555C62.4844 13.5156 62.1865 12.8223 61.5908 12.2754C60.9951 11.7188 60.1211 11.4404 58.9688 11.4404H54.9551V17.4609ZM68.8424 30V13.623H72.5777V16.377H72.7535C73.0465 15.4199 73.5592 14.6875 74.2916 14.1797C75.024 13.6621 75.859 13.4033 76.7965 13.4033C77.0016 13.4033 77.2359 13.4131 77.4996 13.4326C77.773 13.4521 77.9977 13.4766 78.1734 13.5059V17.0508C78.0074 16.9922 77.7486 16.9434 77.3971 16.9043C77.0455 16.8652 76.7086 16.8457 76.3863 16.8457C75.6734 16.8457 75.0387 16.9971 74.482 17.2998C73.9254 17.6025 73.4859 18.0176 73.1637 18.5449C72.8512 19.0723 72.6949 19.6875 72.6949 20.3906V30H68.8424ZM79.0236 30V13.623H82.8762V30H79.0236ZM80.9572 11.3232C80.342 11.3232 79.8146 11.1182 79.3752 10.708C78.9357 10.2979 78.716 9.80469 78.716 9.22852C78.716 8.64258 78.9357 8.14453 79.3752 7.73438C79.8146 7.32422 80.342 7.11914 80.9572 7.11914C81.5627 7.11914 82.0852 7.32422 82.5246 7.73438C82.9641 8.14453 83.1838 8.6377 83.1838 9.21387C83.1838 9.7998 82.9641 10.2979 82.5246 10.708C82.0852 11.1182 81.5627 11.3232 80.9572 11.3232ZM91.1678 30.293C89.8885 30.293 88.7361 29.9658 87.7107 29.3115C86.6951 28.6475 85.8943 27.6855 85.3084 26.4258C84.7225 25.166 84.4295 23.6377 84.4295 21.8408C84.4295 20.0146 84.7273 18.4766 85.323 17.2266C85.9285 15.9766 86.7391 15.0293 87.7547 14.3848C88.7703 13.7402 89.908 13.418 91.1678 13.418C92.1346 13.418 92.9256 13.5791 93.5408 13.9014C94.1561 14.2236 94.6443 14.6143 95.0057 15.0732C95.3768 15.5225 95.66 15.9424 95.8553 16.333H96.0164V8.17383H99.8543V30H96.0896V27.4072H95.8553C95.6502 27.8076 95.3621 28.2324 94.991 28.6816C94.6199 29.1211 94.1268 29.502 93.5115 29.8242C92.8963 30.1367 92.115 30.293 91.1678 30.293ZM92.2371 27.1289C93.0574 27.1289 93.7508 26.9092 94.3172 26.4697C94.8934 26.0205 95.3328 25.4004 95.6355 24.6094C95.9383 23.8086 96.0896 22.8809 96.0896 21.8262C96.0896 20.7617 95.9383 19.8389 95.6355 19.0576C95.3426 18.2666 94.908 17.6562 94.3318 17.2266C93.7654 16.7969 93.0672 16.582 92.2371 16.582C91.3875 16.582 90.6746 16.8066 90.0984 17.2559C89.5223 17.7051 89.0877 18.3252 88.7947 19.1162C88.5115 19.9072 88.3699 20.8105 88.3699 21.8262C88.3699 22.8418 88.5164 23.75 88.8094 24.5508C89.1023 25.3516 89.532 25.9814 90.0984 26.4404C90.6746 26.8994 91.3875 27.1289 92.2371 27.1289ZM109.201 36.4746C107.121 36.4746 105.485 36.0693 104.293 35.2588C103.102 34.458 102.335 33.4863 101.994 32.3438L105.451 31.4941C105.607 31.8164 105.836 32.1338 106.139 32.4463C106.442 32.7686 106.847 33.0322 107.355 33.2373C107.863 33.4521 108.502 33.5596 109.274 33.5596C110.368 33.5596 111.271 33.291 111.984 32.7539C112.706 32.2266 113.068 31.3623 113.068 30.1611V27.0703H112.848C112.662 27.4609 112.379 27.8662 111.998 28.2861C111.618 28.6963 111.115 29.0479 110.49 29.3408C109.874 29.624 109.093 29.7656 108.146 29.7656C106.896 29.7656 105.758 29.4678 104.733 28.8721C103.717 28.2764 102.907 27.3877 102.301 26.2061C101.705 25.0244 101.408 23.5449 101.408 21.7676C101.408 19.9707 101.705 18.4521 102.301 17.2119C102.907 15.9717 103.722 15.0293 104.747 14.3848C105.773 13.7402 106.915 13.418 108.175 13.418C109.132 13.418 109.923 13.5791 110.548 13.9014C111.173 14.2236 111.671 14.6143 112.042 15.0732C112.413 15.5225 112.702 15.9424 112.907 16.333H113.112V13.623H116.876V30.2637C116.876 31.6602 116.544 32.8174 115.88 33.7354C115.216 34.6533 114.303 35.3369 113.141 35.7861C111.989 36.2451 110.675 36.4746 109.201 36.4746ZM109.23 26.7334C110.46 26.7334 111.408 26.2939 112.072 25.415C112.746 24.5264 113.082 23.3008 113.082 21.7383C113.082 20.7031 112.936 19.7998 112.643 19.0283C112.35 18.2568 111.915 17.6562 111.339 17.2266C110.763 16.7969 110.06 16.582 109.23 16.582C108.371 16.582 107.653 16.8066 107.077 17.2559C106.5 17.7051 106.066 18.3203 105.773 19.1016C105.49 19.873 105.348 20.752 105.348 21.7383C105.348 22.7344 105.495 23.6084 105.787 24.3604C106.08 25.1123 106.515 25.6982 107.091 26.1182C107.677 26.5283 108.39 26.7334 109.23 26.7334ZM119.118 30V13.623H122.854V16.377H123.029C123.322 15.4199 123.835 14.6875 124.567 14.1797C125.3 13.6621 126.135 13.4033 127.072 13.4033C127.277 13.4033 127.512 13.4131 127.775 13.4326C128.049 13.4521 128.273 13.4766 128.449 13.5059V17.0508C128.283 16.9922 128.024 16.9434 127.673 16.9043C127.321 16.8652 126.984 16.8457 126.662 16.8457C125.949 16.8457 125.314 16.9971 124.758 17.2998C124.201 17.6025 123.762 18.0176 123.439 18.5449C123.127 19.0723 122.971 19.6875 122.971 20.3906V30H119.118Z" fill="#101841"/>
</svg>
