<svg width="135" height="40" viewBox="0 0 135 40" fill="none" xmlns="http://www.w3.org/2000/svg">
<g clip-path="url(#clip0_4001_14503)">
<path d="M57.2913 26.6405C55.9723 26.6405 54.7797 26.4147 53.7136 25.963C52.6656 25.5112 51.8345 24.8608 51.2201 24.0115C50.6058 23.1623 50.2896 22.1595 50.2715 21.003H54.337C54.3912 21.78 54.6623 22.3944 55.1501 22.8461C55.656 23.2978 56.3427 23.5237 57.21 23.5237C58.0953 23.5237 58.791 23.3159 59.2969 22.9003C59.8029 22.4666 60.0558 21.9065 60.0558 21.2199C60.0558 20.6597 59.8842 20.199 59.5409 19.8376C59.1975 19.4762 58.7639 19.1962 58.2399 18.9974C57.734 18.7806 57.0293 18.5457 56.1258 18.2927C54.8971 17.9313 53.8943 17.579 53.1174 17.2357C52.3585 16.8743 51.699 16.3413 51.1388 15.6366C50.5968 14.9138 50.3257 13.9562 50.3257 12.7636C50.3257 11.6434 50.6058 10.6676 51.1659 9.83652C51.7261 9.00532 52.5121 8.37292 53.5239 7.93922C54.5358 7.48752 55.6922 7.26172 56.9931 7.26172C58.9446 7.26172 60.5256 7.74052 61.7362 8.69812C62.9649 9.63772 63.6425 10.9567 63.769 12.6552H59.5951C59.5589 12.0047 59.2789 11.4717 58.7549 11.0561C58.2489 10.6225 57.5713 10.4056 56.7221 10.4056C55.9813 10.4056 55.385 10.5954 54.9333 10.9748C54.4996 11.3543 54.2828 11.9054 54.2828 12.6281C54.2828 13.134 54.4454 13.5587 54.7707 13.902C55.114 14.2272 55.5296 14.4982 56.0174 14.7151C56.5234 14.9138 57.228 15.1487 58.1315 15.4198C59.3602 15.7811 60.363 16.1425 61.14 16.5039C61.9169 16.8653 62.5855 17.4073 63.1456 18.1301C63.7057 18.8529 63.9858 19.8015 63.9858 20.9759C63.9858 21.9878 63.7238 22.9274 63.1998 23.7947C62.6758 24.662 61.9079 25.3577 60.896 25.8816C59.8842 26.3876 58.6826 26.6405 57.2913 26.6405Z" fill="#06050B"/>
<path d="M71.0698 13.6036C71.5577 12.917 72.2263 12.3479 73.0755 11.8961C73.9428 11.4263 74.9275 11.1914 76.0297 11.1914C77.3126 11.1914 78.469 11.5076 79.499 12.1401C80.547 12.7725 81.3691 13.6759 81.9654 14.8504C82.5797 16.0068 82.8869 17.3529 82.8869 18.8888C82.8869 20.4246 82.5797 21.7888 81.9654 22.9814C81.3691 24.1559 80.547 25.0683 79.499 25.7188C78.469 26.3693 77.3126 26.6945 76.0297 26.6945C74.9275 26.6945 73.9518 26.4687 73.1026 26.017C72.2714 25.5652 71.5938 24.9961 71.0698 24.3095V33.6059H67.2754V11.4354H71.0698V13.6036ZM79.0111 18.8888C79.0111 17.9853 78.8214 17.2084 78.4419 16.5579C78.0806 15.8894 77.5927 15.3834 76.9784 15.0401C76.3821 14.6968 75.7316 14.5252 75.0269 14.5252C74.3403 14.5252 73.6898 14.7058 73.0755 15.0672C72.4792 15.4105 71.9913 15.9165 71.6119 16.585C71.2505 17.2536 71.0698 18.0396 71.0698 18.943C71.0698 19.8464 71.2505 20.6324 71.6119 21.301C71.9913 21.9695 72.4792 22.4845 73.0755 22.8459C73.6898 23.1892 74.3403 23.3608 75.0269 23.3608C75.7316 23.3608 76.3821 23.1802 76.9784 22.8188C77.5927 22.4574 78.0806 21.9424 78.4419 21.2739C78.8214 20.6053 79.0111 19.8103 79.0111 18.8888Z" fill="#06050B"/>
<path d="M92.3114 26.6945C90.8658 26.6945 89.5649 26.3783 88.4085 25.7459C87.2521 25.0955 86.3396 24.183 85.671 23.0085C85.0206 21.834 84.6953 20.4789 84.6953 18.943C84.6953 17.4071 85.0296 16.052 85.6981 14.8775C86.3848 13.703 87.3153 12.7996 88.4898 12.1672C89.6643 11.5167 90.9743 11.1914 92.4198 11.1914C93.8653 11.1914 95.1753 11.5167 96.3497 12.1672C97.5242 12.7996 98.4457 13.703 99.1143 14.8775C99.8014 16.052 100.144 17.4071 100.144 18.943C100.144 20.4789 99.7914 21.834 99.0872 23.0085C98.4006 24.183 97.461 25.0955 96.2684 25.7459C95.094 26.3783 93.7749 26.6945 92.3114 26.6945ZM92.3114 23.3879C92.998 23.3879 93.6394 23.2253 94.2357 22.9001C94.85 22.5568 95.3379 22.0508 95.6993 21.3823C96.0606 20.7137 96.2413 19.9006 96.2413 18.943C96.2413 17.5156 95.8619 16.4224 95.103 15.6635C94.3622 14.8865 93.4497 14.498 92.3656 14.498C91.2814 14.498 90.3689 14.8865 89.6281 15.6635C88.9054 16.4224 88.544 17.5156 88.544 18.943C88.544 20.3704 88.8963 21.4726 89.601 22.2496C90.3238 23.0085 91.2272 23.3879 92.3114 23.3879Z" fill="#06050B"/>
<path d="M111.818 26.4509L106.723 20.0545V26.4509H102.928V6.39453H106.723V17.805L111.764 11.4357H116.697L110.083 18.9704L116.751 26.4509H111.818Z" fill="#06050B"/>
<path d="M132.713 18.6178C132.713 19.1598 132.677 19.6477 132.605 20.0813H121.628C121.718 21.1655 122.098 22.0147 122.766 22.629C123.435 23.2434 124.257 23.5506 125.233 23.5506C126.642 23.5506 127.645 22.9453 128.241 21.7346H132.334C131.9 23.1802 131.069 24.3727 129.84 25.3123C128.612 26.2338 127.103 26.6945 125.314 26.6945C123.869 26.6945 122.568 26.3783 121.411 25.7459C120.273 25.0955 119.378 24.183 118.728 23.0085C118.096 21.834 117.779 20.4789 117.779 18.943C117.779 17.3891 118.096 16.0249 118.728 14.8504C119.36 13.6759 120.246 12.7725 121.384 12.1401C122.522 11.5076 123.832 11.1914 125.314 11.1914C126.742 11.1914 128.015 11.4986 129.136 12.113C130.274 12.7273 131.15 13.6036 131.765 14.742C132.397 15.8623 132.713 17.1542 132.713 18.6178ZM128.783 17.5336C128.765 16.5579 128.413 15.7809 127.726 15.2027C127.04 14.6065 126.2 14.3083 125.206 14.3083C124.266 14.3083 123.471 14.5974 122.821 15.1756C122.188 15.7358 121.8 16.5218 121.655 17.5336H128.783Z" fill="#06050B"/>
<path d="M-0.415535 15.1927C0.178287 14.2318 1.33032 13.7728 2.42141 14.0626C4.97871 15.1876 8.76933 20.3261 9.11807 21.1495C9.46677 21.9728 13.6693 28.6983 13.6693 28.6983C14.9041 29.9826 16.2172 30.6788 17.6545 30.6788C19.4566 30.6788 20.5528 30.2648 21.3375 29.7614C22.1874 29.2163 22.8499 28.4612 23.6973 27.405C23.766 27.3193 23.8368 27.2305 23.9097 27.1389C24.3142 26.6311 24.7845 26.0407 25.334 25.4561C26.422 24.177 29.5651 21.7548 33.4331 22.2987C34.6774 22.6291 35.4837 23.8322 35.3173 25.11C35.1508 26.3878 34.0632 27.3437 32.7758 27.3437C31.3898 27.3437 30.5787 27.704 29.9501 28.1672C29.2374 28.6923 28.6739 29.3952 27.8221 30.4579C27.7801 30.5102 27.7375 30.5634 27.6941 30.6175C26.8435 31.6778 25.728 33.0392 24.1031 34.0814C22.413 35.1655 20.3375 35.8097 17.6545 35.8097C14.3678 35.8097 11.8073 34.1609 9.97587 32.2562C8.15781 30.3652 6.88235 28.0533 6.06966 26.2166C5.56662 25.0796 5.0263 24.1288 4.36032 23.3723L-0.158869 18.2382C-0.90513 17.3904 -1.00936 16.1537 -0.415535 15.1927Z" fill="#06050B"/>
<path fill-rule="evenodd" clip-rule="evenodd" d="M24.6851 4.34633C26.0144 4.83313 26.6978 6.30633 26.2115 7.63693C26.0779 8.00243 25.9166 8.49073 25.7285 9.06043C25.1664 10.7622 24.3643 13.1907 23.3437 15.2425C22.6404 16.6563 21.7298 18.1307 20.5278 19.2784C19.2921 20.4582 17.6482 21.3784 15.6031 21.3784C12.0503 21.3784 9.1622 19.0653 7.18039 16.9063C5.11787 14.6594 3.52836 12.0214 2.59561 10.3319C1.91097 9.09183 2.36027 7.53103 3.59916 6.84573C4.83804 6.16043 6.39737 6.61013 7.08202 7.85023C7.94332 9.41033 9.30121 11.6333 10.9549 13.4349C12.6894 15.3244 14.2864 16.2476 15.6031 16.2476C15.9929 16.2476 16.4314 16.0988 16.9898 15.5657C17.5818 15.0005 18.1769 14.1178 18.7551 12.9555C19.5982 11.2607 20.191 9.46473 20.7286 7.83573C20.9566 7.14503 21.1746 6.48433 21.3976 5.87413C21.884 4.54353 23.3558 3.85953 24.6851 4.34633Z" fill="#06050B"/>
<path fill-rule="evenodd" clip-rule="evenodd" d="M29.6109 8.98694C30.9284 9.50504 31.5768 10.994 31.0592 12.3127L28.2401 19.4958C27.7225 20.8146 26.2349 21.4636 24.9175 20.9456C23.6 20.4275 22.9516 18.9385 23.4691 17.6198L26.2883 10.4366C26.8059 9.11794 28.2934 8.46884 29.6109 8.98694Z" fill="#06050B"/>
<path d="M18.4213 28.5612C20.1199 28.5612 21.4969 27.1829 21.4969 25.4827C21.4969 23.7826 20.1199 22.4043 18.4213 22.4043C16.7227 22.4043 15.3457 23.7826 15.3457 25.4827C15.3457 27.1829 16.7227 28.5612 18.4213 28.5612Z" fill="#06050B"/>
</g>
<defs>
<clipPath id="clip0_4001_14503">
<rect width="135" height="40" fill="white"/>
</clipPath>
</defs>
</svg>
