<svg width="144" height="40" viewBox="0 0 144 40" fill="none" xmlns="http://www.w3.org/2000/svg">
<path d="M12.1041 35.3318L0.943359 16.4716H9.29244L16.1129 4.48242H29.9838L12.1041 35.3318Z" fill="#101841"/>
<path d="M37.0922 16.3184H23.0137L34.198 35.5172L41.2229 23.4345L37.0922 16.3184Z" fill="#101841"/>
<mask id="mask0_4001_9031" style="mask-type:luminance" maskUnits="userSpaceOnUse" x="48" y="0" width="96" height="40">
<path d="M143.082 0H48.082V40H143.082V0Z" fill="white"/>
</mask>
<g mask="url(#mask0_4001_9031)">
<path d="M57.3691 30.3369C55.6699 30.3369 54.1953 30.0732 52.9453 29.5459C51.6953 29.0186 50.7188 28.252 50.0156 27.2461C49.3125 26.2305 48.9316 25 48.873 23.5547H52.7695C52.8281 24.3164 53.0625 24.9512 53.4727 25.459C53.8828 25.957 54.4199 26.333 55.084 26.5869C55.7578 26.8408 56.5049 26.9678 57.3252 26.9678C58.1846 26.9678 58.9414 26.8359 59.5957 26.5723C60.25 26.3086 60.7627 25.9424 61.1338 25.4736C61.5049 25.0049 61.6904 24.458 61.6904 23.833C61.6904 23.2666 61.5244 22.8027 61.1924 22.4414C60.8604 22.0703 60.4014 21.7578 59.8154 21.5039C59.2295 21.25 58.541 21.0254 57.75 20.8301L55.2744 20.1855C53.4775 19.7266 52.0615 19.0283 51.0264 18.0908C49.9912 17.1436 49.4736 15.8838 49.4736 14.3115C49.4736 13.0225 49.8203 11.8994 50.5137 10.9424C51.207 9.97559 52.1543 9.22363 53.3555 8.68652C54.5664 8.14941 55.9336 7.88086 57.457 7.88086C59.0098 7.88086 60.3721 8.14941 61.5439 8.68652C62.7158 9.22363 63.6338 9.96582 64.2979 10.9131C64.9619 11.8604 65.3086 12.9492 65.3379 14.1797H61.5146C61.417 13.2422 61.002 12.5195 60.2695 12.0117C59.5469 11.4941 58.5947 11.2354 57.4131 11.2354C56.5928 11.2354 55.8848 11.3574 55.2891 11.6016C54.7031 11.8457 54.2539 12.1826 53.9414 12.6123C53.6289 13.042 53.4727 13.5303 53.4727 14.0771C53.4727 14.6826 53.6533 15.1807 54.0146 15.5713C54.3857 15.9521 54.8545 16.2598 55.4209 16.4941C55.9971 16.7285 56.583 16.9238 57.1787 17.0801L59.2148 17.5928C60.0352 17.7881 60.8262 18.0518 61.5879 18.3838C62.3496 18.7061 63.0332 19.1162 63.6387 19.6143C64.2539 20.1025 64.7373 20.6982 65.0889 21.4014C65.4502 22.1045 65.6309 22.9297 65.6309 23.877C65.6309 25.1465 65.3037 26.2695 64.6494 27.2461C63.9951 28.2129 63.0527 28.9697 61.8223 29.5166C60.5918 30.0635 59.1074 30.3369 57.3691 30.3369ZM69.6451 36.123C69.1178 36.1328 68.6295 36.0938 68.1803 36.0059C67.7408 35.9277 67.3844 35.835 67.1109 35.7275L68.0191 32.7246L68.2096 32.7832C68.9908 32.9883 69.6549 33.0029 70.2018 32.8271C70.7584 32.6514 71.2027 32.1191 71.5348 31.2305L71.857 30.3516L65.9391 13.623H70.026L73.7906 26.001H73.9664L77.7457 13.623H81.8619L75.2994 31.9775C74.9967 32.8467 74.5963 33.5889 74.0982 34.2041C73.6002 34.8291 72.985 35.3027 72.2525 35.625C71.5201 35.957 70.651 36.123 69.6451 36.123ZM86.6672 20.4199V30H82.8146V13.623H86.5939V16.4209H86.7844C87.1555 15.5029 87.7365 14.7754 88.5275 14.2383C89.3283 13.6914 90.3439 13.418 91.5744 13.418C92.7072 13.418 93.6936 13.6572 94.5334 14.1357C95.3732 14.6143 96.0227 15.3174 96.4816 16.2451C96.9504 17.1631 97.1848 18.2764 97.1848 19.585V30H93.3322V20.1855C93.3322 19.0918 93.049 18.2373 92.4826 17.6221C91.9162 16.9971 91.135 16.6846 90.1389 16.6846C89.465 16.6846 88.8645 16.8311 88.3371 17.124C87.8195 17.417 87.4094 17.8418 87.1066 18.3984C86.8137 18.9453 86.6672 19.6191 86.6672 20.4199ZM106.575 30.3223C104.944 30.3223 103.543 29.9658 102.371 29.2529C101.199 28.5303 100.301 27.5342 99.6756 26.2646C99.0506 24.9951 98.7381 23.5352 98.7381 21.8848C98.7381 20.2148 99.0555 18.7451 99.6902 17.4756C100.325 16.2061 101.228 15.2148 102.4 14.502C103.572 13.7793 104.954 13.418 106.546 13.418C107.884 13.418 109.065 13.6621 110.091 14.1504C111.116 14.6387 111.931 15.3271 112.537 16.2158C113.152 17.0947 113.504 18.125 113.592 19.3066H109.9C109.803 18.7793 109.612 18.3057 109.329 17.8857C109.046 17.4658 108.675 17.1338 108.216 16.8896C107.766 16.6455 107.229 16.5234 106.604 16.5234C105.813 16.5234 105.12 16.7383 104.524 17.168C103.938 17.5879 103.479 18.1934 103.147 18.9844C102.815 19.7754 102.649 20.7227 102.649 21.8262C102.649 22.9395 102.81 23.9014 103.133 24.7119C103.455 25.5127 103.914 26.1328 104.51 26.5723C105.105 27.002 105.804 27.2168 106.604 27.2168C107.454 27.2168 108.172 26.9678 108.758 26.4697C109.353 25.9717 109.734 25.2832 109.9 24.4043H113.592C113.504 25.5664 113.162 26.5918 112.566 27.4805C111.971 28.3691 111.165 29.0674 110.149 29.5752C109.134 30.0732 107.942 30.3223 106.575 30.3223ZM122.323 30.3223C120.682 30.3223 119.266 29.9805 118.075 29.2969C116.883 28.6035 115.965 27.627 115.321 26.3672C114.686 25.1074 114.369 23.623 114.369 21.9141C114.369 20.2246 114.686 18.7451 115.321 17.4756C115.955 16.1963 116.849 15.2002 118.001 14.4873C119.154 13.7744 120.511 13.418 122.074 13.418C123.079 13.418 124.032 13.5791 124.93 13.9014C125.838 14.2236 126.639 14.7217 127.332 15.3955C128.036 16.0693 128.587 16.9287 128.988 17.9736C129.388 19.0088 129.588 20.2441 129.588 21.6797V22.8809H116.17V20.2881H127.669L125.868 21.0498C125.868 20.1221 125.726 19.3164 125.443 18.6328C125.16 17.9395 124.74 17.3975 124.183 17.0068C123.626 16.6162 122.933 16.4209 122.103 16.4209C121.273 16.4209 120.565 16.6162 119.979 17.0068C119.393 17.3975 118.949 17.9248 118.646 18.5889C118.343 19.2432 118.192 19.9756 118.192 20.7861V22.5879C118.192 23.584 118.363 24.4385 118.704 25.1514C119.056 25.8545 119.544 26.3916 120.169 26.7627C120.804 27.1338 121.541 27.3193 122.381 27.3193C122.928 27.3193 123.426 27.2412 123.875 27.085C124.334 26.9287 124.725 26.6943 125.047 26.3818C125.379 26.0596 125.633 25.6641 125.809 25.1953L129.412 25.6201C129.178 26.5674 128.744 27.3975 128.109 28.1104C127.484 28.8135 126.678 29.3604 125.692 29.751C124.715 30.1318 123.592 30.3223 122.323 30.3223ZM134.936 8.17383V30H131.083V8.17383H134.936ZM141.045 8.17383V30H137.192V8.17383H141.045Z" fill="#101841"/>
</g>
</svg>
