<svg width="131" height="40" viewBox="0 0 131 40" fill="none" xmlns="http://www.w3.org/2000/svg">
<path d="M64.9961 28.0845H68.7752V20.5021C68.7752 17.8663 69.945 16.0891 72.0149 16.0891C73.7546 16.0891 74.7144 17.2146 74.7144 18.9914V28.085H78.4935V20.4723C78.4935 17.8365 79.6633 16.0891 81.7032 16.0891C83.4724 16.0891 84.4623 17.2146 84.4623 18.9914V28.085H88.2418V17.9551C88.2418 15.0225 86.1122 12.9197 82.8429 12.9197C80.4431 12.9197 78.6433 14.223 77.8334 15.7337C77.1437 13.9267 75.5238 12.9197 73.1246 12.9197C71.0251 12.9197 69.6152 13.9565 68.7752 15.4374V13.1569H64.9961V28.0845ZM98.3688 28.3212C102.958 28.3212 106.257 25.0631 106.257 20.6207C106.257 16.1779 102.958 12.9197 98.3688 12.9197C93.7793 12.9197 90.4799 16.1779 90.4799 20.6207C90.4799 25.0636 93.7793 28.3212 98.3688 28.3212ZM98.3688 25.0928C95.9089 25.0928 94.2895 23.2863 94.2895 20.6207C94.2895 17.9551 95.9089 16.1481 98.3688 16.1481C100.798 16.1481 102.448 17.9551 102.448 20.6207C102.448 23.2858 100.798 25.0928 98.3688 25.0928ZM110.574 10.876C111.954 10.876 112.973 9.86896 112.973 8.56566C112.973 7.29216 111.954 6.28516 110.574 6.28516C109.224 6.28516 108.234 7.29216 108.234 8.56566C108.234 9.86896 109.224 10.876 110.574 10.876ZM106.885 33.712C110.244 33.712 112.434 31.5496 112.434 28.2324V13.1569H108.655V27.7287C108.655 29.4468 107.934 30.4538 106.435 30.4538C106.195 30.4538 106.165 30.4538 105.835 30.4245L105.925 33.6524C105.925 33.6524 106.615 33.712 106.885 33.712ZM122.485 28.3212C127.075 28.3212 130.374 25.0631 130.374 20.6207C130.374 16.1779 127.075 12.9197 122.485 12.9197C117.896 12.9197 114.597 16.1779 114.597 20.6207C114.597 25.0636 117.896 28.3212 122.485 28.3212ZM122.485 25.0928C120.026 25.0928 118.406 23.2863 118.406 20.6207C118.406 17.9551 120.026 16.1481 122.485 16.1481C124.915 16.1481 126.564 17.9551 126.564 20.6207C126.564 23.2858 124.915 25.0928 122.485 25.0928Z" fill="#06050B"/>
<path fill-rule="evenodd" clip-rule="evenodd" d="M44.2275 28.7606L52.7484 14.2177C52.9486 13.8757 53.0786 13.4979 53.1308 13.106C53.183 12.7141 53.1564 12.3158 53.0526 11.9341C52.9488 11.5524 52.7698 11.1948 52.5259 10.8819C52.282 10.5689 51.978 10.3068 51.6314 10.1107C50.1722 9.28091 48.3063 9.77341 47.4639 11.2114L38.9425 25.7538C38.7423 26.0958 38.6123 26.4736 38.5601 26.8655C38.5079 27.2574 38.5345 27.6557 38.6383 28.0374C38.7421 28.4191 38.9211 28.7767 39.165 29.0896C39.4089 29.4025 39.7129 29.6646 40.0595 29.8608C41.5187 30.6911 43.3846 30.1986 44.2275 28.7606ZM53.5125 6.90031C50.254 5.04691 46.087 6.14671 44.2058 9.35801L35.685 23.9004C33.8033 27.1117 34.9199 31.2173 38.1784 33.0711C41.4369 34.925 45.6039 33.8248 47.4851 30.614L56.0064 16.071C57.8876 12.8602 56.771 8.75421 53.5125 6.90031ZM26.8545 28.7889L35.3759 14.246C35.5761 13.904 35.706 13.5262 35.7582 13.1343C35.8105 12.7424 35.7839 12.3441 35.6801 11.9624C35.5763 11.5807 35.3972 11.2231 35.1533 10.9102C34.9094 10.5972 34.6054 10.3351 34.2588 10.139C32.7996 9.30921 30.9338 9.80171 30.0908 11.2397L21.5699 25.7826C21.3698 26.1246 21.2399 26.5023 21.1877 26.8942C21.1356 27.286 21.1621 27.6842 21.266 28.0659C21.3698 28.4475 21.5488 28.8051 21.7926 29.118C22.0365 29.4309 22.3404 29.6929 22.687 29.8891C24.1461 30.7194 26.012 30.2269 26.8545 28.7889ZM36.14 6.92911C32.8815 5.07521 28.7144 6.17551 26.8328 9.38631L18.3124 23.9292C16.4313 27.14 17.5478 31.2461 20.8063 33.0995C24.0648 34.9533 28.2318 33.8531 30.113 30.6423L38.6339 16.0993C40.5155 12.8885 39.3985 8.78251 36.14 6.92911ZM9.45581 28.7889L17.9772 14.246C18.1774 13.904 18.3074 13.5262 18.3596 13.1343C18.4118 12.7424 18.3852 12.3441 18.2814 11.9624C18.1776 11.5807 17.9986 11.2231 17.7546 10.9102C17.5107 10.5972 17.2067 10.3351 16.8601 10.139C15.401 9.30921 13.5351 9.80171 12.6926 11.2397L4.17124 25.7826C3.9711 26.1246 3.84121 26.5023 3.78904 26.8942C3.73688 27.286 3.76347 27.6842 3.86728 28.0659C3.9711 28.4475 4.15009 28.8051 4.39396 29.118C4.63783 29.4309 4.94177 29.6929 5.28829 29.8891C6.74747 30.7194 8.61334 30.2269 9.45581 28.7889ZM18.7413 6.92911C15.4828 5.07521 11.3158 6.17551 9.43412 9.38631L0.913728 23.9292C-0.967424 27.14 0.149141 31.2461 3.40813 33.0995C6.66662 34.9533 10.8332 33.8531 12.7143 30.6423L21.2347 16.0993C23.1163 12.8885 21.9998 8.78251 18.7413 6.92911Z" fill="#06050B"/>
</svg>
