<svg width="103" height="32" viewBox="0 0 103 32" fill="none" xmlns="http://www.w3.org/2000/svg">
<g clip-path="url(#clip0_4906_6624)">
<path d="M60.7285 28.2136C60.7285 28.5567 61.0153 28.8302 61.3581 28.8138L66.4417 28.5708C66.7621 28.5555 67.0141 28.2913 67.0141 27.9706V11.9056C67.0141 11.5643 66.7301 11.2915 66.3891 11.3052L61.3054 11.5085C60.9832 11.5214 60.7285 11.7864 60.7285 12.109V28.2136Z" fill="#7B5DFF"/>
<path d="M61.5198 8.29954C62.1424 8.92211 62.9206 9.2334 63.8545 9.2334C64.8363 9.2334 65.6264 8.92211 66.2251 8.29954C66.8476 7.65303 67.1589 6.85086 67.1589 5.89307C67.1589 4.95921 66.8476 4.16903 66.2251 3.52251C65.6264 2.876 64.8363 2.55273 63.8545 2.55273C62.9206 2.55273 62.1424 2.876 61.5198 3.52251C60.8973 4.16903 60.5859 4.95921 60.5859 5.89307C60.5859 6.85086 60.8973 7.65303 61.5198 8.29954Z" fill="#7B5DFF"/>
<path fill-rule="evenodd" clip-rule="evenodd" d="M45.605 18.5361V27.2679C45.605 27.5572 45.3988 27.8054 45.1145 27.8586L39.887 28.8358C39.5173 28.905 39.1758 28.6213 39.1758 28.2452V3.97984C39.1758 3.64795 39.4448 3.37891 39.7766 3.37891H50.0228C51.7469 3.37891 53.2554 3.70217 54.5485 4.34868C55.8654 4.9952 56.895 5.88116 57.6373 7.00657C58.3796 8.13199 58.7508 9.44897 58.7508 10.9575C58.7508 12.4661 58.3677 13.7949 57.6014 14.9444C56.8591 16.0698 55.8175 16.9557 54.4766 17.6022C53.8965 17.8716 53.2739 18.0827 52.6086 18.2354L59.4272 27.5163C59.7592 27.9681 59.3462 28.5882 58.8013 28.4561L53.1652 27.0895C53.0373 27.0584 52.9231 26.9863 52.8403 26.8842L46.0646 18.5361H45.605ZM45.605 13.9387H49.1248C50.1785 13.9387 50.9806 13.6872 51.5314 13.1844C52.106 12.6576 52.3934 11.9512 52.3934 11.0653C52.3934 10.2032 52.106 9.50884 51.5314 8.98204C50.9806 8.43131 50.1785 8.15594 49.1248 8.15594H45.605V13.9387Z" fill="#7B5DFF"/>
<path d="M75.541 29.3475C74.4634 29.3475 73.3978 29.2037 72.3443 28.9165C71.3146 28.6291 70.3449 28.246 69.4349 27.7671C68.739 27.3721 68.1244 26.9328 67.5911 26.4493C67.3502 26.2309 67.353 25.8584 67.5805 25.6261L70.1507 23.0018C70.388 22.7596 70.7769 22.7641 71.0356 22.9834C71.507 23.3829 72.039 23.7085 72.6316 23.9598C73.4457 24.2951 74.3078 24.4627 75.2177 24.4627C75.7444 24.4627 76.1395 24.3908 76.4029 24.2472C76.6903 24.1036 76.8339 23.9 76.8339 23.6366C76.8339 23.2535 76.6305 22.9661 76.2233 22.7746C75.8402 22.5591 75.3255 22.3795 74.679 22.2357C74.0563 22.0682 73.3978 21.8766 72.7034 21.6611C72.009 21.4217 71.3385 21.1103 70.6921 20.7273C70.0456 20.3442 69.5187 19.8053 69.1117 19.1109C68.7286 18.4165 68.537 17.5306 68.537 16.4531C68.537 15.3277 68.8364 14.3459 69.4349 13.5079C70.0575 12.6458 70.9196 11.9753 72.021 11.4965C73.1225 10.9936 74.4156 10.7422 75.9001 10.7422C77.4087 10.7422 78.8454 11.0056 80.2102 11.5324C81.371 11.96 82.537 12.7885 83.3753 13.6601C83.6098 13.904 83.5638 14.2921 83.2956 14.4984L80.3228 16.7852C80.0728 16.9775 79.721 16.9385 79.4866 16.7276C79.0783 16.3602 78.6926 16.1688 78.1629 15.9861C77.4685 15.7228 76.8339 15.5911 76.2593 15.5911C75.7085 15.5911 75.3134 15.6749 75.074 15.8425C74.8345 15.9861 74.7149 16.1897 74.7149 16.4531C74.7149 16.7644 74.9064 17.0158 75.2895 17.2073C75.6966 17.3989 76.2114 17.5785 76.8339 17.7461C77.4804 17.8898 78.139 18.0813 78.8094 18.3208C79.5038 18.5603 80.1623 18.8954 80.7849 19.3264C81.4314 19.7336 81.9463 20.2842 82.3293 20.9786C82.7364 21.673 82.9399 22.571 82.9399 23.6725C82.9399 25.4205 82.2695 26.8093 80.9286 27.8389C79.5876 28.8446 77.7918 29.3475 75.541 29.3475Z" fill="#7B5DFF"/>
<path fill-rule="evenodd" clip-rule="evenodd" d="M87.634 28.0901C89.1424 28.8562 90.8786 29.2394 92.842 29.2394C94.3984 29.2394 95.7872 28.9879 97.0084 28.4851C98.0738 28.0549 98.9988 27.4494 99.7837 26.6686C100.008 26.4453 99.995 26.084 99.771 25.86L97.3536 23.4427C97.1082 23.1973 96.709 23.2133 96.452 23.4464C96.0408 23.8192 95.5918 24.11 95.1048 24.3187C94.4583 24.606 93.704 24.7498 92.842 24.7498C91.9321 24.7498 91.1658 24.5701 90.5433 24.2109C89.9207 23.8518 89.4418 23.325 89.1066 22.6306C89.0245 22.4547 88.9525 22.2702 88.8905 22.0771L100.744 22.0221C101.019 22.0209 101.26 21.8338 101.314 21.5645C101.373 21.2705 101.41 21.0033 101.426 20.7628C101.474 20.3798 101.498 20.0086 101.498 19.6494C101.498 17.9493 101.103 16.4408 100.313 15.1238C99.5466 13.7829 98.4691 12.7413 97.0803 11.999C95.7154 11.2327 94.147 10.8496 92.3751 10.8496C90.5552 10.8496 88.915 11.2567 87.4543 12.0708C86.0176 12.861 84.8803 13.9505 84.0423 15.3393C83.2041 16.7042 82.7852 18.2726 82.7852 20.0445C82.7852 21.8403 83.2162 23.4327 84.0781 24.8215C84.9401 26.2103 86.1255 27.2998 87.634 28.0901ZM88.8772 18.0429C88.9331 17.8641 88.9976 17.6933 89.0707 17.5303C89.3819 16.8359 89.8249 16.2971 90.3997 15.9139C90.9743 15.5309 91.6568 15.3393 92.4469 15.3393C93.2132 15.3393 93.8477 15.5069 94.3506 15.8422C94.8533 16.1773 95.2365 16.6683 95.4999 17.3148C95.5864 17.5192 95.66 17.7431 95.7207 17.9862L88.8772 18.0429Z" fill="#7B5DFF"/>
<path d="M8.48047 1.2369C8.48047 0.880471 8.74587 0.579824 9.09955 0.535615L13.3399 0.00556164C13.7618 -0.0471657 14.1344 0.28174 14.1344 0.706842V14.6539C14.1344 15.079 13.7618 15.4079 13.3399 15.3552L9.09955 14.8251C8.74587 14.7809 8.48047 14.4802 8.48047 14.1238V1.2369Z" fill="#7B5DFF"/>
<path d="M0 3.00447C0 2.64804 0.265406 2.3474 0.619078 2.30319L4.85951 1.77314C5.28133 1.72041 5.65391 2.04932 5.65391 2.47442V13.5946C5.65391 14.0197 5.28133 14.3485 4.85951 14.2959L0.619077 13.7658C0.265406 13.7216 0 13.4209 0 13.0645V3.00447Z" fill="#7B5DFF"/>
<path d="M22.0795 1.18507C22.3942 1.26372 22.6148 1.5464 22.6148 1.87071V7.76239C22.6148 8.11881 22.3494 8.41946 21.9958 8.46367L17.7553 8.99373C17.3335 9.04645 16.9609 8.71754 16.9609 8.29245V0.810602C16.9609 0.350819 17.3931 0.0134517 17.8391 0.124965L22.0795 1.18507Z" fill="#7B5DFF"/>
<path d="M30.3902 3.63829C30.3902 3.31399 30.1694 3.03131 29.8549 2.95265L25.6145 1.89254C25.1683 1.78103 24.7363 2.1184 24.7363 2.57818V7.9398C24.7363 8.36491 25.1089 8.69382 25.5307 8.64108L29.7712 8.11104C30.1248 8.06683 30.3902 7.76618 30.3902 7.40976V3.63829Z" fill="#7B5DFF"/>
<path d="M30.3898 10.8613L16.6084 11.2147C16.8078 13.8069 18.9692 15.8085 21.5691 15.8085H24.7359V18.8163L0 16.5152V31.2491L30.3898 29.1289V10.8613Z" fill="#7B5DFF"/>
</g>
<defs>
<clipPath id="clip0_4906_6624">
<rect width="102.154" height="32" fill="white"/>
</clipPath>
</defs>
</svg>
