<svg width="150" height="40" viewBox="0 0 150 40" fill="none" xmlns="http://www.w3.org/2000/svg">
<path d="M0.982422 20.814V34.4106H15.4492V20.814H30.0247V5.58594H11.479L0.982422 20.814Z" fill="#101841"/>
<path d="M43.7287 20.707H30.0234V34.4123H43.7287V20.707Z" fill="#101841"/>
<path d="M59.875 30.3369C58.1758 30.3369 56.7012 30.0732 55.4512 29.5459C54.2012 29.0186 53.2246 28.252 52.5215 27.2461C51.8184 26.2305 51.4375 25 51.3789 23.5547H55.2754C55.334 24.3164 55.5684 24.9512 55.9785 25.459C56.3887 25.957 56.9258 26.333 57.5898 26.5869C58.2637 26.8408 59.0107 26.9678 59.8311 26.9678C60.6904 26.9678 61.4473 26.8359 62.1016 26.5723C62.7559 26.3086 63.2686 25.9424 63.6396 25.4736C64.0107 25.0049 64.1963 24.458 64.1963 23.833C64.1963 23.2666 64.0303 22.8027 63.6982 22.4414C63.3662 22.0703 62.9072 21.7578 62.3213 21.5039C61.7354 21.25 61.0469 21.0254 60.2559 20.8301L57.7803 20.1855C55.9834 19.7266 54.5674 19.0283 53.5322 18.0908C52.4971 17.1436 51.9795 15.8838 51.9795 14.3115C51.9795 13.0225 52.3262 11.8994 53.0195 10.9424C53.7129 9.97559 54.6602 9.22363 55.8613 8.68652C57.0723 8.14941 58.4395 7.88086 59.9629 7.88086C61.5156 7.88086 62.8779 8.14941 64.0498 8.68652C65.2217 9.22363 66.1396 9.96582 66.8037 10.9131C67.4678 11.8604 67.8145 12.9492 67.8438 14.1797H64.0205C63.9229 13.2422 63.5078 12.5195 62.7754 12.0117C62.0527 11.4941 61.1006 11.2354 59.9189 11.2354C59.0986 11.2354 58.3906 11.3574 57.7949 11.6016C57.209 11.8457 56.7598 12.1826 56.4473 12.6123C56.1348 13.042 55.9785 13.5303 55.9785 14.0771C55.9785 14.6826 56.1592 15.1807 56.5205 15.5713C56.8916 15.9521 57.3604 16.2598 57.9268 16.4941C58.5029 16.7285 59.0889 16.9238 59.6846 17.0801L61.7207 17.5928C62.541 17.7881 63.332 18.0518 64.0938 18.3838C64.8555 18.7061 65.5391 19.1162 66.1445 19.6143C66.7598 20.1025 67.2432 20.6982 67.5947 21.4014C67.9561 22.1045 68.1367 22.9297 68.1367 23.877C68.1367 25.1465 67.8096 26.2695 67.1553 27.2461C66.501 28.2129 65.5586 28.9697 64.3281 29.5166C63.0977 30.0635 61.6133 30.3369 59.875 30.3369ZM76.8824 30.3223C75.2809 30.3223 73.8941 29.9707 72.7223 29.2676C71.5504 28.5645 70.6422 27.5781 69.9977 26.3086C69.3629 25.0391 69.0455 23.5645 69.0455 21.8848C69.0455 20.1953 69.3629 18.7158 69.9977 17.4463C70.6422 16.167 71.5504 15.1758 72.7223 14.4727C73.8941 13.7695 75.2809 13.418 76.8824 13.418C78.484 13.418 79.8707 13.7695 81.0426 14.4727C82.2145 15.1758 83.1227 16.167 83.7672 17.4463C84.4117 18.7158 84.734 20.1953 84.734 21.8848C84.734 23.5645 84.4117 25.0391 83.7672 26.3086C83.1227 27.5781 82.2145 28.5645 81.0426 29.2676C79.8707 29.9707 78.484 30.3223 76.8824 30.3223ZM76.8824 27.2168C77.7711 27.2168 78.5035 26.9824 79.0797 26.5137C79.6559 26.0352 80.0855 25.3906 80.3687 24.5801C80.6617 23.7695 80.8082 22.8711 80.8082 21.8848C80.8082 20.8789 80.6617 19.9707 80.3687 19.1602C80.0855 18.3496 79.6559 17.71 79.0797 17.2412C78.5035 16.7627 77.7711 16.5234 76.8824 16.5234C76.0133 16.5234 75.2857 16.7627 74.6998 17.2412C74.1139 17.71 73.6744 18.3496 73.3814 19.1602C73.0982 19.9707 72.9566 20.8789 72.9566 21.8848C72.9566 22.8711 73.0982 23.7695 73.3814 24.5801C73.6744 25.3906 74.1139 26.0352 74.6998 26.5137C75.2857 26.9824 76.0133 27.2168 76.8824 27.2168ZM93.3918 30.3223C91.7609 30.3223 90.3596 29.9658 89.1877 29.2529C88.0158 28.5303 87.1174 27.5342 86.4924 26.2646C85.8674 24.9951 85.5549 23.5352 85.5549 21.8848C85.5549 20.2148 85.8723 18.7451 86.507 17.4756C87.1418 16.2061 88.0451 15.2148 89.217 14.502C90.3889 13.7793 91.7707 13.418 93.3625 13.418C94.7004 13.418 95.882 13.6621 96.9074 14.1504C97.9328 14.6387 98.7482 15.3271 99.3537 16.2158C99.9689 17.0947 100.321 18.125 100.408 19.3066H96.717C96.6193 18.7793 96.4289 18.3057 96.1457 17.8857C95.8625 17.4658 95.4914 17.1338 95.0324 16.8896C94.5832 16.6455 94.0461 16.5234 93.4211 16.5234C92.6301 16.5234 91.9367 16.7383 91.341 17.168C90.7551 17.5879 90.2961 18.1934 89.9641 18.9844C89.632 19.7754 89.466 20.7227 89.466 21.8262C89.466 22.9395 89.6271 23.9014 89.9494 24.7119C90.2717 25.5127 90.7307 26.1328 91.3264 26.5723C91.9221 27.002 92.6203 27.2168 93.4211 27.2168C94.2707 27.2168 94.9885 26.9678 95.5744 26.4697C96.1701 25.9717 96.551 25.2832 96.717 24.4043H100.408C100.321 25.5664 99.9787 26.5918 99.383 27.4805C98.7873 28.3691 97.9816 29.0674 96.966 29.5752C95.9504 30.0732 94.759 30.3223 93.3918 30.3223ZM101.888 30V13.623H105.741V30H101.888ZM103.822 11.3232C103.207 11.3232 102.679 11.1182 102.24 10.708C101.801 10.2979 101.581 9.80469 101.581 9.22852C101.581 8.64258 101.801 8.14453 102.24 7.73438C102.679 7.32422 103.207 7.11914 103.822 7.11914C104.428 7.11914 104.95 7.32422 105.389 7.73438C105.829 8.14453 106.049 8.6377 106.049 9.21387C106.049 9.7998 105.829 10.2979 105.389 10.708C104.95 11.1182 104.428 11.3232 103.822 11.3232ZM118.427 23.1299V13.623H122.28V30H118.544V27.085H118.369C117.997 28.0029 117.392 28.7549 116.552 29.3408C115.712 29.9268 114.677 30.2148 113.447 30.2051C112.372 30.2051 111.425 29.9707 110.605 29.502C109.794 29.0234 109.155 28.3252 108.686 27.4072C108.227 26.4795 107.997 25.3613 107.997 24.0527V13.623H111.85V23.4668C111.85 24.4922 112.133 25.3125 112.7 25.9277C113.276 26.543 114.028 26.8457 114.955 26.8359C115.522 26.8359 116.069 26.6992 116.596 26.4258C117.133 26.1523 117.573 25.7422 117.914 25.1953C118.256 24.6484 118.427 23.96 118.427 23.1299ZM124.536 30V13.623H128.213V16.4209H128.418C128.76 15.4834 129.326 14.751 130.117 14.2236C130.908 13.6865 131.846 13.418 132.93 13.418C134.043 13.418 134.98 13.6865 135.742 14.2236C136.504 14.7607 137.036 15.4932 137.339 16.4209H137.515C137.886 15.5127 138.501 14.7852 139.36 14.2383C140.22 13.6914 141.245 13.418 142.437 13.418C143.94 13.418 145.166 13.8965 146.113 14.8535C147.07 15.8008 147.549 17.1875 147.549 19.0137V30H143.682V19.5996C143.682 18.5938 143.408 17.8564 142.861 17.3877C142.324 16.9092 141.665 16.6699 140.884 16.6699C139.956 16.6699 139.233 16.9629 138.716 17.5488C138.198 18.125 137.939 18.8672 137.939 19.7754V30H134.131V19.4531C134.131 18.6035 133.882 17.9297 133.384 17.4316C132.886 16.9238 132.227 16.6699 131.406 16.6699C130.85 16.6699 130.342 16.8115 129.883 17.0947C129.424 17.3779 129.058 17.7734 128.784 18.2812C128.521 18.7891 128.389 19.375 128.389 20.0391V30H124.536Z" fill="#101841"/>
</svg>
