<svg width="161" height="40" viewBox="0 0 161 40" fill="none" xmlns="http://www.w3.org/2000/svg">
<path d="M5.11527 8.56055C5.24474 8.6497 5.3696 8.74537 5.48935 8.8472C7.25226 10.5881 9.01181 12.3267 10.7681 14.0628C10.2277 14.9099 9.63289 15.6394 9.25738 16.4664C7.83559 19.5966 8.22257 22.5405 10.3252 25.2666C10.6749 25.7209 10.9257 25.7424 11.3371 25.321C12.8362 23.7817 14.3684 22.2754 15.8891 20.7575C16.0725 20.5755 16.2646 20.4035 16.5727 20.114C16.6071 20.4709 16.6458 20.6873 16.6458 20.9095C16.6458 25.7567 16.6358 30.604 16.6645 35.4513C16.6645 36.1493 16.4194 36.2754 15.7902 36.2553C9.37347 36.0604 3.13165 31.3479 1.21682 25.1433C-0.521717 19.5149 0.422797 14.3509 4.08333 9.71145C4.39005 9.32304 4.74549 8.97046 5.11527 8.56055Z" fill="#101841"/>
<path d="M17.5589 3.75684C24.8026 4.12519 31.0903 9.49989 32.5565 16.6418C33.6572 22.005 32.3 26.7419 28.7541 30.8898C28.3026 31.4158 28.0246 31.4416 27.5315 30.927C26.0639 29.3978 24.5561 27.9 23.0297 26.4238C22.5911 26.0009 22.5753 25.7372 22.9652 25.2542C26.6329 20.7309 24.8055 14.2182 19.3247 12.2517C18.7196 12.0304 18.0848 11.9005 17.4414 11.8662C16.7578 11.8361 16.6187 11.548 16.6273 10.9346C16.656 8.83343 16.6374 6.73228 16.6388 4.62826C16.6402 3.71815 16.6517 3.71098 17.5589 3.75684Z" fill="#101841"/>
<path d="M50.8193 30.293C48.9053 30.293 47.1914 29.8486 45.6777 28.96C44.1738 28.0713 42.9873 26.792 42.1182 25.1221C41.2588 23.4521 40.8291 21.4453 40.8291 19.1016C40.8291 16.748 41.2637 14.7363 42.1328 13.0664C43.0117 11.3867 44.2031 10.1025 45.707 9.21387C47.2207 8.3252 48.9248 7.88086 50.8193 7.88086C52.0205 7.88086 53.1436 8.05176 54.1885 8.39355C55.2432 8.73535 56.1807 9.23828 57.001 9.90234C57.8213 10.5566 58.4902 11.3623 59.0078 12.3193C59.5352 13.2666 59.8818 14.3457 60.0479 15.5566H56.0635C55.9561 14.8926 55.7461 14.3066 55.4336 13.7988C55.1309 13.291 54.75 12.8613 54.291 12.5098C53.8418 12.1484 53.3291 11.8799 52.7529 11.7041C52.1768 11.5186 51.5566 11.4258 50.8926 11.4258C49.7012 11.4258 48.6465 11.7236 47.7285 12.3193C46.8105 12.9053 46.0928 13.7744 45.5752 14.9268C45.0576 16.0693 44.7988 17.4609 44.7988 19.1016C44.7988 20.7617 45.0576 22.1631 45.5752 23.3057C46.1025 24.4385 46.8203 25.2979 47.7285 25.8838C48.6465 26.46 49.6963 26.748 50.8779 26.748C51.5322 26.748 52.1426 26.665 52.709 26.499C53.2754 26.3232 53.7881 26.0645 54.2471 25.7227C54.7158 25.3711 55.1016 24.9512 55.4043 24.4629C55.7168 23.9648 55.9365 23.3936 56.0635 22.749H60.0479C59.9014 23.7939 59.5791 24.7754 59.0811 25.6934C58.5928 26.6016 57.9482 27.4023 57.1475 28.0957C56.3564 28.7793 55.4287 29.3164 54.3643 29.707C53.2998 30.0977 52.1182 30.293 50.8193 30.293ZM68.9547 30.3223C67.3531 30.3223 65.9664 29.9707 64.7945 29.2676C63.6227 28.5645 62.7145 27.5781 62.0699 26.3086C61.4352 25.0391 61.1178 23.5645 61.1178 21.8848C61.1178 20.1953 61.4352 18.7158 62.0699 17.4463C62.7145 16.167 63.6227 15.1758 64.7945 14.4727C65.9664 13.7695 67.3531 13.418 68.9547 13.418C70.5562 13.418 71.943 13.7695 73.1148 14.4727C74.2867 15.1758 75.1949 16.167 75.8395 17.4463C76.484 18.7158 76.8062 20.1953 76.8062 21.8848C76.8062 23.5645 76.484 25.0391 75.8395 26.3086C75.1949 27.5781 74.2867 28.5645 73.1148 29.2676C71.943 29.9707 70.5562 30.3223 68.9547 30.3223ZM68.9547 27.2168C69.8434 27.2168 70.5758 26.9824 71.152 26.5137C71.7281 26.0352 72.1578 25.3906 72.441 24.5801C72.734 23.7695 72.8805 22.8711 72.8805 21.8848C72.8805 20.8789 72.734 19.9707 72.441 19.1602C72.1578 18.3496 71.7281 17.71 71.152 17.2412C70.5758 16.7627 69.8434 16.5234 68.9547 16.5234C68.0855 16.5234 67.358 16.7627 66.7721 17.2412C66.1861 17.71 65.7467 18.3496 65.4537 19.1602C65.1705 19.9707 65.0289 20.8789 65.0289 21.8848C65.0289 22.8711 65.1705 23.7695 65.4537 24.5801C65.7467 25.3906 66.1861 26.0352 66.7721 26.5137C67.358 26.9824 68.0855 27.2168 68.9547 27.2168ZM82.1828 20.4199V30H78.3303V13.623H82.1096V16.4209H82.3C82.6711 15.5029 83.2521 14.7754 84.0432 14.2383C84.8439 13.6914 85.8596 13.418 87.09 13.418C88.2229 13.418 89.2092 13.6572 90.049 14.1357C90.8889 14.6143 91.5383 15.3174 91.9973 16.2451C92.466 17.1631 92.7004 18.2764 92.7004 19.585V30H88.8479V20.1855C88.8479 19.0918 88.5646 18.2373 87.9982 17.6221C87.4318 16.9971 86.6506 16.6846 85.6545 16.6846C84.9807 16.6846 84.3801 16.8311 83.8527 17.124C83.3352 17.417 82.925 17.8418 82.6223 18.3984C82.3293 18.9453 82.1828 19.6191 82.1828 20.4199ZM108.99 13.623L103.16 30H98.8826L93.0672 13.623H97.1834L100.977 25.7959H101.153L104.918 13.623H108.99ZM116.637 30.3223C114.996 30.3223 113.58 29.9805 112.389 29.2969C111.198 28.6035 110.28 27.627 109.635 26.3672C109 25.1074 108.683 23.623 108.683 21.9141C108.683 20.2246 109 18.7451 109.635 17.4756C110.27 16.1963 111.163 15.2002 112.316 14.4873C113.468 13.7744 114.826 13.418 116.388 13.418C117.394 13.418 118.346 13.5791 119.245 13.9014C120.153 14.2236 120.954 14.7217 121.647 15.3955C122.35 16.0693 122.902 16.9287 123.302 17.9736C123.703 19.0088 123.903 20.2441 123.903 21.6797V22.8809H110.485V20.2881H121.984L120.182 21.0498C120.182 20.1221 120.04 19.3164 119.757 18.6328C119.474 17.9395 119.054 17.3975 118.497 17.0068C117.941 16.6162 117.247 16.4209 116.417 16.4209C115.587 16.4209 114.879 16.6162 114.293 17.0068C113.707 17.3975 113.263 17.9248 112.96 18.5889C112.658 19.2432 112.506 19.9756 112.506 20.7861V22.5879C112.506 23.584 112.677 24.4385 113.019 25.1514C113.371 25.8545 113.859 26.3916 114.484 26.7627C115.119 27.1338 115.856 27.3193 116.696 27.3193C117.243 27.3193 117.741 27.2412 118.19 27.085C118.649 26.9287 119.039 26.6943 119.362 26.3818C119.694 26.0596 119.948 25.6641 120.123 25.1953L123.727 25.6201C123.493 26.5674 123.058 27.3975 122.423 28.1104C121.798 28.8135 120.993 29.3604 120.006 29.751C119.03 30.1318 117.907 30.3223 116.637 30.3223ZM125.397 30V13.623H129.133V16.377H129.309C129.602 15.4199 130.114 14.6875 130.847 14.1797C131.579 13.6621 132.414 13.4033 133.352 13.4033C133.557 13.4033 133.791 13.4131 134.055 13.4326C134.328 13.4521 134.553 13.4766 134.729 13.5059V17.0508C134.562 16.9922 134.304 16.9434 133.952 16.9043C133.601 16.8652 133.264 16.8457 132.941 16.8457C132.229 16.8457 131.594 16.9971 131.037 17.2998C130.48 17.6025 130.041 18.0176 129.719 18.5449C129.406 19.0723 129.25 19.6875 129.25 20.3906V30H125.397ZM135.579 30V13.623H139.314V16.377H139.49C139.783 15.4199 140.296 14.6875 141.028 14.1797C141.76 13.6621 142.595 13.4033 143.533 13.4033C143.738 13.4033 143.972 13.4131 144.236 13.4326C144.509 13.4521 144.734 13.4766 144.91 13.5059V17.0508C144.744 16.9922 144.485 16.9434 144.133 16.9043C143.782 16.8652 143.445 16.8457 143.123 16.8457C142.41 16.8457 141.775 16.9971 141.218 17.2998C140.662 17.6025 140.222 18.0176 139.9 18.5449C139.588 19.0723 139.431 19.6875 139.431 20.3906V30H135.579ZM150.154 30.3369C149.11 30.3369 148.172 30.1514 147.342 29.7803C146.512 29.3994 145.858 28.8428 145.379 28.1104C144.901 27.3779 144.661 26.4746 144.661 25.4004C144.661 24.4824 144.832 23.7207 145.174 23.1152C145.516 22.5098 145.98 22.0264 146.566 21.665C147.161 21.3037 147.83 21.0303 148.572 20.8447C149.315 20.6494 150.081 20.5127 150.872 20.4346C151.839 20.3271 152.62 20.2344 153.216 20.1562C153.812 20.0781 154.241 19.9512 154.505 19.7754C154.779 19.5996 154.915 19.3262 154.915 18.9551V18.8818C154.915 18.0908 154.681 17.4756 154.212 17.0361C153.743 16.5967 153.06 16.377 152.161 16.377C151.214 16.377 150.462 16.582 149.905 16.9922C149.359 17.4023 148.988 17.8857 148.792 18.4424L145.203 17.9297C145.487 16.9336 145.955 16.1035 146.61 15.4395C147.264 14.7656 148.06 14.2627 148.997 13.9307C149.945 13.5889 150.989 13.418 152.132 13.418C152.913 13.418 153.695 13.5107 154.476 13.6963C155.257 13.8721 155.975 14.1748 156.629 14.6045C157.283 15.0342 157.806 15.6104 158.196 16.333C158.587 17.0557 158.782 17.959 158.782 19.043V30H155.076V27.7441H154.959C154.725 28.1934 154.393 28.6182 153.963 29.0186C153.543 29.4092 153.016 29.7266 152.381 29.9707C151.756 30.2148 151.014 30.3369 150.154 30.3369ZM151.136 27.4951C151.917 27.4951 152.591 27.3438 153.157 27.041C153.724 26.7285 154.163 26.3184 154.476 25.8105C154.788 25.293 154.945 24.7314 154.945 24.126V22.207C154.818 22.3047 154.613 22.3975 154.329 22.4854C154.046 22.5635 153.724 22.6367 153.363 22.7051C153.001 22.7734 152.645 22.832 152.293 22.8809C151.951 22.9297 151.654 22.9688 151.4 22.998C150.823 23.0762 150.306 23.208 149.847 23.3936C149.398 23.5693 149.041 23.8135 148.778 24.126C148.514 24.4385 148.382 24.8438 148.382 25.3418C148.382 26.0547 148.641 26.5918 149.158 26.9531C149.676 27.3145 150.335 27.4951 151.136 27.4951Z" fill="#101841"/>
</svg>
