<svg width="157" height="32" viewBox="0 0 157 32" fill="none" xmlns="http://www.w3.org/2000/svg">
<path d="M69.0165 29.7428C66.6488 29.7428 64.616 29.3243 62.9182 28.4873C61.2202 27.6503 59.8331 26.5621 58.757 25.2229C57.7046 23.8837 56.9275 22.4248 56.4252 20.8465C55.923 19.2681 55.6719 17.7495 55.6719 16.2907V15.5016C55.6719 13.8753 55.923 12.273 56.4252 10.6946C56.9514 9.1162 57.7525 7.68131 58.8286 6.38991C59.9049 5.0985 61.2681 4.07015 62.9182 3.30488C64.5921 2.51568 66.5651 2.12109 68.8371 2.12109C71.2047 2.12109 73.2614 2.55155 75.0072 3.41249C76.7768 4.24952 78.1878 5.44527 79.24 6.99974C80.2924 8.5303 80.9261 10.3239 81.1413 12.3806H76.0115C75.8203 11.1848 75.3898 10.1804 74.7201 9.36731C74.0745 8.5303 73.2493 7.90851 72.245 7.50195C71.2405 7.07148 70.1045 6.85624 68.8371 6.85624C67.5457 6.85624 66.3978 7.08344 65.3933 7.53782C64.3888 7.96829 63.5518 8.59008 62.8822 9.40318C62.2127 10.2163 61.6984 11.1729 61.3397 12.273C61.0049 13.3731 60.8376 14.5927 60.8376 15.932C60.8376 17.2233 61.0049 18.419 61.3397 19.5192C61.6984 20.6193 62.2246 21.5878 62.9182 22.4248C63.6117 23.2379 64.4606 23.8717 65.4651 24.3261C66.4934 24.7805 67.6772 25.0077 69.0165 25.0077C70.9775 25.0077 72.6276 24.5294 73.9669 23.5727C75.3299 22.5923 76.1551 21.2291 76.442 19.4833H81.5718C81.3327 21.3487 80.6989 23.0586 79.6705 24.613C78.6422 26.1676 77.2312 27.4112 75.4377 28.3438C73.644 29.2765 71.5036 29.7428 69.0165 29.7428Z" fill="#7B5DFF"/>
<path d="M83.9335 29.0619V2.875H88.9197V29.0619H83.9335ZM81.4941 6.60573V2.875H88.9197V6.60573H81.4941Z" fill="#7B5DFF"/>
<path d="M102.181 29.7422C100.459 29.7422 98.941 29.4673 97.6256 28.9172C96.3103 28.3671 95.1982 27.6258 94.2894 26.693C93.3808 25.7366 92.6871 24.6603 92.2089 23.4646C91.7545 22.2688 91.5273 21.0252 91.5273 19.7338V18.9806C91.5273 17.6413 91.7664 16.3738 92.2448 15.1781C92.747 13.9584 93.4524 12.8822 94.3612 11.9495C95.2939 10.9929 96.4179 10.2516 97.7332 9.72544C99.0486 9.17541 100.531 8.90039 102.181 8.90039C103.831 8.90039 105.314 9.17541 106.63 9.72544C107.945 10.2516 109.057 10.9929 109.966 11.9495C110.898 12.8822 111.604 13.9584 112.082 15.1781C112.56 16.3738 112.8 17.6413 112.8 18.9806V19.7338C112.8 21.0252 112.56 22.2688 112.082 23.4646C111.628 24.6603 110.946 25.7366 110.038 26.693C109.129 27.6258 108.017 28.3671 106.701 28.9172C105.386 29.4673 103.879 29.7422 102.181 29.7422ZM102.181 25.4734C103.401 25.4734 104.429 25.2104 105.266 24.6842C106.103 24.1343 106.737 23.4048 107.168 22.496C107.598 21.5633 107.813 20.5111 107.813 19.3393C107.813 18.1436 107.586 17.0912 107.132 16.1824C106.701 15.2498 106.056 14.5204 105.195 13.9943C104.358 13.4442 103.353 13.1692 102.181 13.1692C101.01 13.1692 99.9932 13.4442 99.1322 13.9943C98.2952 14.5204 97.6495 15.2498 97.1951 16.1824C96.7407 17.0912 96.5135 18.1436 96.5135 19.3393C96.5135 20.5111 96.7289 21.5633 97.1592 22.496C97.6136 23.4048 98.2594 24.1343 99.0964 24.6842C99.9334 25.2104 100.962 25.4734 102.181 25.4734Z" fill="#7B5DFF"/>
<path d="M122.008 29.6714C119.76 29.6714 118.014 28.9299 116.771 27.4472C115.551 25.9645 114.941 23.7643 114.941 20.8467V9.54688H119.928V21.2771C119.928 22.4729 120.263 23.4295 120.932 24.1469C121.602 24.8404 122.51 25.1872 123.658 25.1872C124.806 25.1872 125.739 24.8165 126.456 24.0752C127.198 23.3338 127.568 22.3293 127.568 21.062V9.54688H132.555V29.0615H128.609V20.7749H129.003C129.003 22.7359 128.752 24.3741 128.25 25.6895C127.748 27.0048 126.995 27.9973 125.99 28.6669C124.986 29.3364 123.73 29.6714 122.224 29.6714H122.008Z" fill="#7B5DFF"/>
<path d="M144.56 29.7076C143.197 29.7076 141.941 29.4564 140.793 28.9542C139.645 28.4519 138.653 27.7466 137.816 26.8378C136.979 25.929 136.333 24.8768 135.879 23.681C135.424 22.4614 135.197 21.146 135.197 19.735V18.9818C135.197 17.5946 135.412 16.2913 135.843 15.0716C136.297 13.8519 136.919 12.7877 137.708 11.879C138.521 10.9702 139.49 10.2647 140.614 9.7625C141.762 9.23636 143.029 8.9733 144.416 8.9733C145.947 8.9733 147.286 9.30811 148.434 9.97772C149.606 10.6234 150.539 11.6039 151.232 12.9193C151.926 14.2346 152.308 15.8848 152.38 17.8697L150.909 16.1478V2.875H155.895V29.0619H151.95V20.7753H152.811C152.738 22.7602 152.332 24.4224 151.591 25.7616C150.85 27.0768 149.869 28.0693 148.649 28.739C147.454 29.3847 146.091 29.7076 144.56 29.7076ZM145.672 25.5105C146.653 25.5105 147.549 25.2952 148.362 24.8647C149.175 24.4103 149.821 23.7647 150.3 22.9277C150.802 22.0667 151.053 21.0624 151.053 19.9143V18.4795C151.053 17.3316 150.802 16.375 150.3 15.6097C149.797 14.8205 149.14 14.2226 148.327 13.8161C147.513 13.3856 146.629 13.1704 145.672 13.1704C144.596 13.1704 143.639 13.4334 142.802 13.9596C141.989 14.4618 141.343 15.1792 140.865 16.112C140.411 17.0445 140.183 18.1327 140.183 19.3763C140.183 20.6199 140.423 21.708 140.901 22.6407C141.379 23.5494 142.025 24.2549 142.838 24.7571C143.675 25.2594 144.62 25.5105 145.672 25.5105Z" fill="#7B5DFF"/>
<path d="M36.8874 31.8149C35.1646 31.8149 34.1031 31.0196 32.3689 30.0827C30.6346 29.1461 25.6192 25.3745 25.6192 20.6798C25.6192 17.4949 24.7981 14.9189 23.4 12.866C22.0122 10.8289 20.1322 9.41762 18.1764 8.42132C17.2339 7.9413 16.2532 7.5488 15.2766 7.22438C14.7073 7.03538 14.3769 6.42409 14.6239 5.87753C16.1895 2.41149 19.6763 0 23.7267 0C29.2402 0 33.71 4.46958 33.71 9.98333C33.71 11.1629 33.5055 12.2949 33.1299 13.3453C34.721 12.2729 36.6383 11.6471 38.7015 11.6471C44.2151 11.6471 48.6849 16.1167 48.6849 21.6305C48.6849 28.268 42.8522 31.8149 36.8874 31.8149Z" fill="#7B5DFF"/>
<path d="M0.431641 20.7976C0.431641 26.06 3.90105 30.4447 8.49722 31.4135C9.20663 31.6727 9.9725 31.8139 10.7715 31.8139H26.2826C26.8027 31.8139 27.0293 31.1183 26.6322 30.7823C23.9213 28.4885 21.9067 25.2561 21.9067 20.6789C21.9067 18.1637 21.2697 16.3319 20.3315 14.9548C19.3826 13.5619 18.0479 12.5208 16.4911 11.7275C14.9198 10.9272 13.2138 10.4174 11.5847 10.056C11.201 10.0075 10.8106 9.98242 10.415 9.98242C4.90121 9.98242 0.431641 14.8246 0.431641 20.7976Z" fill="#7B5DFF"/>
</svg>
