<svg width="95" height="40" viewBox="0 0 95 40" fill="none" xmlns="http://www.w3.org/2000/svg">
<g clip-path="url(#clip0_4001_14517)">
<path d="M38.3968 26.3617C38.8206 26.3617 39.1885 26.0717 39.2838 25.6637L40.982 18.3855C41.9424 14.2097 38.8976 10.6621 34.7992 10.6621H34.6558C31.3299 10.6621 28.7725 12.6883 28.105 15.5488L25.582 26.3617H29.0632C29.4867 26.3617 29.8543 26.0727 29.95 25.6647L32.0968 16.5148C32.3924 15.2779 33.5362 14.4902 34.5587 14.4902H34.5662C36.0299 14.4902 37.3627 15.8912 36.9217 17.756L34.9164 26.3617H38.3968Z" fill="#06050B"/>
<path d="M14.0236 11.0469L12.1625 19.0229C11.2022 23.1991 14.2469 26.7461 18.3454 26.7461H18.4887C21.8147 26.7461 24.372 24.7201 25.0395 21.8601L27.4338 11.5986C27.4997 11.3164 27.283 11.0469 26.9903 11.0469H23.3581L21.0478 20.8941C20.7521 22.1301 19.6083 22.9181 18.5858 22.9181H18.5784C17.1146 22.9181 15.7819 21.5171 16.2228 19.6525L18.0996 11.5985C18.1653 11.3163 17.9487 11.0469 17.656 11.0469H14.0236Z" fill="#06050B"/>
<path d="M4.72757 26.0127C4.67985 26.2167 4.49597 26.3617 4.28407 26.3617H0.400391L2.58644 17.1087C3.41254 13.549 5.98867 11.0469 9.9894 11.0469H12.6543L11.7949 14.7506C11.7474 14.9552 11.5634 15.1002 11.3513 15.1002H9.9894C8.3998 15.1002 7.09474 15.9367 6.67855 17.661L4.72757 26.0127Z" fill="#06050B"/>
<path d="M72.0196 26.3583H75.6129C76.0368 26.3583 76.4046 26.0693 76.5 25.6603L79.2632 13.8181C79.5948 12.4065 78.5385 11.0537 77.0739 11.053L66.6631 11.0488C66.3146 11.0487 65.9966 11.2454 65.8442 11.5554L64.0675 15.1676H71.6059L59.0156 26.3693H64.2991C64.6343 26.3693 64.9577 26.2473 65.2079 26.0273L73.7752 18.4688L72.0196 26.3583Z" fill="#06050B"/>
<path d="M54.8814 22.8217L60.2664 11.0476L64.0074 11.0406C64.3438 11.04 64.5647 11.3883 64.4177 11.6877L57.9656 24.8357C57.5088 25.7667 56.5547 26.3577 55.5087 26.3577H50.747L52.233 17.9124L48.3548 24.9497C47.8763 25.8177 46.9565 26.3577 45.9569 26.3577H40.7305L44.2982 11.0548H47.8988C48.1966 11.0548 48.4142 11.3332 48.3394 11.6184L45.3983 22.8257L51.6943 12.2603C52.2558 11.3063 53.307 10.8397 54.1855 10.8621C55.1384 10.8864 56.3878 11.5715 56.2589 13.225L54.8814 22.8217Z" fill="#06050B"/>
<path d="M83.3968 29.3298C83.7157 29.3298 84.011 29.1638 84.1753 28.8938L94.6004 11.7328C94.7827 11.4326 94.5642 11.0504 94.2102 11.0504H90.5806L84.9367 20.3868L84.1077 11.4542C84.0862 11.2228 83.8903 11.0455 83.6555 11.045L80.1039 11.0371L81.8779 25.3478L79.4805 29.3378L83.3968 29.3298Z" fill="#06050B"/>
<path d="M89.3965 24.2213C89.5413 24.0733 89.7457 23.9883 89.9836 23.9883C90.1945 23.9883 90.3781 24.0513 90.5149 24.1673C90.652 24.2843 90.7385 24.4503 90.7603 24.6503L90.767 24.7133H90.3238L90.3177 24.6633C90.2972 24.4983 90.1661 24.3913 89.9836 24.3913C89.878 24.3913 89.789 24.4333 89.7256 24.5053C89.6617 24.5793 89.6214 24.6863 89.6214 24.8173C89.6214 24.9533 89.6627 25.0633 89.7289 25.1383C89.7947 25.2133 89.8877 25.2563 89.9998 25.2563C90.0896 25.2563 90.1632 25.2293 90.2167 25.1833C90.27 25.1363 90.3069 25.0683 90.3177 24.9803L90.3237 24.9303H90.7678L90.7602 24.9933C90.7119 25.3933 90.4019 25.6553 89.9958 25.6553C89.7541 25.6553 89.5467 25.5703 89.3997 25.4213C89.2528 25.2723 89.1699 25.0623 89.1699 24.8173C89.1699 24.5773 89.2518 24.3693 89.3965 24.2213Z" fill="#06050B"/>
<path fill-rule="evenodd" clip-rule="evenodd" d="M88.293 24.826C88.293 23.882 88.9808 23.168 89.9651 23.168C90.9194 23.168 91.6413 23.849 91.6413 24.826C91.6413 25.766 90.9535 26.485 89.9651 26.485C89.0148 26.485 88.293 25.8 88.293 24.826ZM89.9651 23.595C89.2727 23.595 88.7486 24.096 88.7486 24.826C88.7486 25.53 89.2498 26.058 89.9651 26.058C90.6575 26.058 91.1817 25.556 91.1817 24.826C91.1817 24.119 90.6845 23.595 89.9651 23.595Z" fill="#06050B"/>
</g>
<defs>
<clipPath id="clip0_4001_14517">
<rect width="95" height="40" fill="white"/>
</clipPath>
</defs>
</svg>
