<svg width="141" height="32" viewBox="0 0 141 32" fill="none" xmlns="http://www.w3.org/2000/svg">
<path d="M42.7793 27.3327V4.14453H52.3036C53.9013 4.14453 55.3123 4.42467 56.5366 4.98495C57.7815 5.54513 58.7568 6.37517 59.4622 7.47495C60.1678 8.57473 60.5206 9.93377 60.5206 11.5523C60.5206 13.1293 60.1574 14.4677 59.4312 15.5675C58.7256 16.6672 57.7504 17.5076 56.5054 18.0885C55.2811 18.6488 53.8805 18.9289 52.3036 18.9289H47.6036V27.3327H42.7793ZM47.6036 14.727H52.3347C53.3514 14.727 54.1607 14.4366 54.7624 13.8555C55.3849 13.2746 55.6961 12.5068 55.6961 11.5523C55.6961 10.5771 55.3849 9.7989 54.7624 9.21793C54.1607 8.63697 53.3514 8.34644 52.3347 8.34644H47.6036V14.727Z" fill="#7B5DFF"/>
<path d="M62.8633 27.3333V10.3391H67.2208V12.8914C67.6565 11.8331 68.2685 11.1173 69.057 10.7437C69.8668 10.3495 70.7902 10.1523 71.8273 10.1523H73.6013V14.1986H71.3602C70.2193 14.1986 69.2958 14.5514 68.5899 15.2568C67.8847 15.9416 67.532 16.9169 67.532 18.1826V27.3333H62.8633Z" fill="#7B5DFF"/>
<path d="M75.4766 8.81331V4.14453H80.1452V8.81331H75.4766ZM75.4766 27.3327V10.3384H80.1452V27.3327H75.4766Z" fill="#7B5DFF"/>
<path d="M91.4141 27.5199C89.3595 27.5199 87.7621 26.97 86.6202 25.8703C85.4996 24.7498 84.9394 23.1935 84.9394 21.2015V14.3851H82.0137V10.3388H82.2322C84.0373 10.3388 84.9394 9.46736 84.9394 7.72437V5.23438H89.608V10.3388H93.5921V14.3851H89.608V21.2015C89.608 22.9238 90.5732 23.7849 92.5027 23.7849C92.794 23.7849 93.1571 23.7537 93.5921 23.6915V27.3643C92.9076 27.468 92.1813 27.5199 91.4141 27.5199Z" fill="#7B5DFF"/>
<path d="M103.935 27.7061C102.255 27.7061 100.719 27.3223 99.3289 26.5545C97.9598 25.7867 96.8703 24.7389 96.0614 23.4109C95.2516 22.0621 94.8477 20.537 94.8477 18.8354C94.8477 17.1132 95.2516 15.5881 96.0614 14.2601C96.8703 12.9321 97.9598 11.8842 99.3289 11.1165C100.719 10.3487 102.255 9.96484 103.935 9.96484C105.616 9.96484 107.142 10.3487 108.511 11.1165C109.901 11.8842 111.001 12.9321 111.81 14.2601C112.619 15.5881 113.024 17.1132 113.024 18.8354C113.024 20.537 112.619 22.0621 111.81 23.4109C111.001 24.7389 109.901 25.7867 108.511 26.5545C107.142 27.3223 105.616 27.7061 103.935 27.7061ZM103.935 23.5042C105.222 23.5042 106.249 23.0685 107.017 22.197C107.806 21.3254 108.2 20.205 108.2 18.8354C108.2 17.4867 107.806 16.3766 107.017 15.5051C106.249 14.6128 105.222 14.1668 103.935 14.1668C102.67 14.1668 101.643 14.6128 100.854 15.5051C100.066 16.3766 99.6717 17.4867 99.6717 18.8354C99.6717 20.205 100.066 21.3254 100.854 22.197C101.643 23.0685 102.67 23.5042 103.935 23.5042Z" fill="#7B5DFF"/>
<path d="M115.205 27.3326V10.3383H119.562V12.3926C119.977 11.5833 120.558 10.9816 121.305 10.5874C122.073 10.1724 122.975 9.96484 124.013 9.96484C125.112 9.96484 126.098 10.1931 126.97 10.6496C127.841 11.0853 128.547 11.7286 129.087 12.5793C129.564 11.7909 130.259 11.1579 131.172 10.6807C132.084 10.2034 133.112 9.96484 134.253 9.96484C135.436 9.96484 136.484 10.2346 137.397 10.7741C138.31 11.2928 139.016 12.0398 139.514 13.0151C140.032 13.9696 140.291 15.1005 140.291 16.4077V27.3326H135.623V17.4038C135.623 16.3662 135.364 15.5674 134.844 15.0071C134.347 14.4468 133.683 14.1668 132.852 14.1668C132.022 14.1668 131.348 14.4468 130.83 15.0071C130.332 15.5674 130.082 16.3662 130.082 17.4038V27.3326H125.413V17.4038C125.413 16.3662 125.154 15.5674 124.636 15.0071C124.138 14.4468 123.473 14.1668 122.643 14.1668C121.814 14.1668 121.139 14.4468 120.62 15.0071C120.122 15.5674 119.874 16.3662 119.874 17.4038V27.3326H115.205Z" fill="#7B5DFF"/>
<path d="M0 16C0 19.1645 0.938397 22.258 2.69653 24.8892C4.45457 27.5203 6.9535 29.5711 9.87705 30.7821C12.8007 31.9931 16.0178 32.3099 19.1215 31.6925C22.2252 31.0753 25.0761 29.5513 27.3137 27.3137C29.5514 25.0761 31.0753 22.2252 31.6926 19.1215C32.31 16.0178 31.9931 12.8007 30.7821 9.87705C29.5712 6.9534 27.5204 4.45457 24.8892 2.69643C22.258 0.938396 19.1645 0 16 0V16H0Z" fill="#7B5DFF"/>
</svg>
