<svg width="125" height="40" viewBox="0 0 125 40" fill="none" xmlns="http://www.w3.org/2000/svg">
<path d="M23.6359 28.644C23.616 28.6251 23.5961 28.6062 23.5763 28.5872C23.3706 28.388 23.1657 28.1894 22.9614 27.9915C22.1455 27.2011 21.3393 26.42 20.5312 25.6407C20.1795 25.3016 20.172 25.1897 20.5202 24.8353C20.989 24.3582 21.4381 23.8671 21.7907 23.2928C22.21 22.6098 22.445 21.8575 22.653 21.0934C22.7391 20.7769 22.8881 20.688 23.1993 20.781C24.7993 21.2593 26.408 21.7066 28.0167 22.1539C28.6163 22.3206 29.2159 22.4874 29.8151 22.6557C29.9008 22.6798 29.9865 22.7039 30.0722 22.728C30.3494 22.806 30.6265 22.8841 30.9041 22.9605C31.4742 23.1175 31.7462 23.4606 31.732 24.0513C31.6979 25.4666 31.6571 26.8818 31.6104 28.2967C31.5994 28.6327 31.4368 28.9048 31.151 29.0824C29.9274 29.8428 28.7031 30.6021 27.472 31.3502C27.052 31.6054 26.5776 31.5256 26.214 31.1702C25.6566 30.6254 25.1006 30.0794 24.5445 29.5333C24.2843 29.2778 24.0241 29.0223 23.7638 28.767C23.7216 28.7255 23.6787 28.6847 23.6359 28.644Z" fill="#101841"/>
<path d="M21.0652 34.0807C21.2225 34.7157 21.0454 35.0799 20.4642 35.3969C20.1448 35.5702 19.8268 35.7419 19.5102 35.913C18.6664 36.3689 17.8318 36.8198 17.0022 37.2796C16.5598 37.5247 16.1499 37.5263 15.7052 37.2799C14.9689 36.872 14.2277 36.4727 13.4866 36.0734C13.0466 35.8364 12.6067 35.5994 12.1678 35.3606C11.673 35.0914 11.4881 34.7007 11.6216 34.1547C11.758 33.597 11.9025 33.0413 12.0469 32.4855C12.1449 32.1088 12.2428 31.732 12.3382 31.3545C12.5935 30.3448 12.8458 29.3344 13.098 28.3239C13.1674 28.0458 13.2368 27.7676 13.3063 27.4895C13.3443 27.3373 13.3814 27.1848 13.4185 27.0323C13.4791 26.7829 13.5398 26.5335 13.6046 26.2851C13.6752 26.0148 13.8139 25.936 14.0873 25.9951C14.2475 26.0297 14.4066 26.0694 14.5657 26.1092C14.85 26.1802 15.1344 26.2512 15.4254 26.2932C16.2494 26.4119 17.065 26.3712 17.8736 26.1763C17.9405 26.1601 18.0074 26.1438 18.0742 26.1275C18.2595 26.0822 18.4448 26.0369 18.631 25.9962C18.8873 25.9401 19.0222 26.0183 19.0856 26.2696C19.1834 26.6569 19.2786 27.0448 19.3739 27.4327C19.4554 27.7646 19.537 28.0965 19.62 28.4281C19.8586 29.3803 20.0986 30.3321 20.3422 31.283C20.4353 31.6462 20.5303 32.0089 20.6254 32.3717C20.7745 32.9407 20.9237 33.5098 21.0652 34.0807Z" fill="#101841"/>
<path d="M9.51354 20.782C9.65371 20.7418 9.79297 20.7178 9.91749 20.8257C10.0398 21.0034 10.085 21.1908 10.1292 21.3738C10.1386 21.4128 10.148 21.4516 10.158 21.4901C10.4874 22.7504 11.1377 23.8181 12.0698 24.7207C12.1377 24.7865 12.2017 24.8564 12.2657 24.9262C12.277 24.9384 12.2883 24.9507 12.2996 24.963C12.4836 25.1629 12.4794 25.3422 12.287 25.528C12.0074 25.798 11.7276 26.0678 11.4478 26.3376C10.8372 26.9263 10.2266 27.515 9.61856 28.1063C8.85225 28.8515 8.08848 29.5993 7.32471 30.3471C7.07214 30.5944 6.81956 30.8417 6.56689 31.0889C6.08532 31.5601 5.65414 31.6163 5.08303 31.2667C4.40074 30.849 3.71966 30.4294 3.03858 30.0097C2.57204 29.7222 2.10551 29.4348 1.63859 29.1479C1.26352 28.9175 1.09326 28.5869 1.08377 28.1457C1.06697 27.3641 1.0442 26.5827 1.02143 25.8013C1.00477 25.2294 0.98811 24.6574 0.973785 24.0855C0.958194 23.463 1.227 23.1234 1.82612 22.9556C3.7955 22.404 5.7639 21.849 7.7322 21.2936C8.11569 21.1854 8.49851 21.0748 8.88132 20.9642C9.09202 20.9034 9.30273 20.8425 9.51354 20.782Z" fill="#101841"/>
<path d="M2.41273 10.3968C2.53327 10.3228 2.65381 10.2489 2.77424 10.1748C3.00197 10.0345 3.22816 9.89593 3.45301 9.75817C4.01494 9.41389 4.5685 9.07474 5.11683 8.72732C5.58132 8.43302 6.13914 8.49761 6.52066 8.8745C7.69295 10.0326 8.87375 11.1821 10.0545 12.3316C10.292 12.5627 10.5294 12.7938 10.7667 13.025C11.0819 13.332 11.3998 13.6363 11.7177 13.9405C11.8958 14.111 12.0739 14.2815 12.2516 14.4525C12.4939 14.6858 12.4972 14.858 12.2552 15.0985C11.6475 15.7026 11.0837 16.3384 10.6921 17.1119C10.4249 17.6395 10.2516 18.199 10.0907 18.7637C9.93773 19.3004 9.88566 19.3329 9.3534 19.1825C8.81219 19.0296 8.27101 18.8767 7.72982 18.7237C6.49415 18.3744 5.25848 18.0251 4.0225 17.6769C3.4833 17.525 2.94344 17.3754 2.40358 17.2259C2.19373 17.1677 1.98387 17.1096 1.77406 17.0513C1.24034 16.9031 0.954948 16.5328 0.969264 15.9749C1.00543 14.5655 1.04561 13.1562 1.09304 11.7472C1.10497 11.3927 1.26716 11.1056 1.57395 10.9142C1.85266 10.7403 2.1327 10.5685 2.41273 10.3968Z" fill="#101841"/>
<path d="M22.2831 17.7246C22.1544 17.3821 21.9909 17.0567 21.8035 16.7429C21.4398 16.1291 20.9725 15.6355 20.4931 15.1515C20.1826 14.838 20.1917 14.7041 20.5055 14.4022C21.4946 13.4504 22.4811 12.4959 23.4652 11.539C23.9465 11.0711 24.4263 10.6016 24.9061 10.132C25.3543 9.69351 25.8025 9.25495 26.2519 8.81764C26.5977 8.48115 27.0927 8.43471 27.5329 8.70179C28.0092 8.99068 28.4828 9.28382 28.9564 9.57696C29.1662 9.70679 29.376 9.83661 29.5859 9.96607C29.7296 10.0546 29.8729 10.1437 30.0162 10.2328C30.3613 10.4472 30.7063 10.6617 31.0558 10.8688C31.4394 11.0961 31.6067 11.426 31.6168 11.8649C31.6319 12.5205 31.6507 13.1761 31.6695 13.8316C31.6893 14.5231 31.7091 15.2146 31.7246 15.9062C31.7397 16.5826 31.4828 16.8909 30.8286 17.0704C29.9868 17.3013 29.1469 17.5388 28.307 17.7764C28.0836 17.8396 27.8602 17.9028 27.6367 17.9659C26.2944 18.3448 24.9525 18.725 23.6107 19.1056C23.5385 19.1261 23.4668 19.1487 23.3951 19.1713C23.3136 19.1969 23.2321 19.2226 23.1498 19.2452C22.892 19.316 22.7483 19.2356 22.6727 18.9793C22.6445 18.8838 22.617 18.7882 22.5895 18.6925C22.4959 18.3672 22.4024 18.0419 22.2831 17.7246Z" fill="#101841"/>
<path d="M20.276 9.00573C20.172 9.41025 20.0681 9.81478 19.9641 10.2193C19.6851 11.3448 19.4124 12.4405 19.1395 13.5361L19.1381 13.5419C19.1192 13.6179 19.1002 13.694 19.078 13.7691C19.0117 13.9926 18.8686 14.0752 18.6437 14.0251C18.4955 13.9921 18.3481 13.956 18.2007 13.9199C17.9285 13.8533 17.6562 13.7866 17.379 13.7392C16.435 13.5778 15.5083 13.6552 14.5894 13.9012C14.4044 13.9507 14.2179 13.9953 14.0308 14.0358C13.828 14.0796 13.6784 13.9872 13.6275 13.783C13.4997 13.2705 13.3728 12.7579 13.246 12.2452C13.0408 11.4162 12.8357 10.5871 12.6267 9.75909C12.4679 9.13008 12.3041 8.50234 12.1404 7.87459C12.0394 7.48746 11.9384 7.10032 11.8385 6.7129C11.76 6.40816 11.6822 6.10295 11.6162 5.79534C11.5144 5.32065 11.7053 4.91017 12.1379 4.67573C13.3823 4.00135 14.628 3.32916 15.8754 2.66039C16.1789 2.49769 16.5063 2.49265 16.8035 2.65034C18.0813 3.32817 19.3534 4.01666 20.622 4.71146C21.0606 4.95163 21.2026 5.40212 21.0565 5.96983C20.7961 6.98174 20.536 7.99373 20.276 9.00573Z" fill="#101841"/>
<path d="M43.1035 8.17383L48.7725 25.3418H49.0068L54.6758 8.17383H59.0117L51.3213 30H46.458L38.7529 8.17383H43.1035ZM60.0084 30V13.623H63.8609V30H60.0084ZM61.942 11.3232C61.3268 11.3232 60.7994 11.1182 60.36 10.708C59.9205 10.2979 59.7008 9.80469 59.7008 9.22852C59.7008 8.64258 59.9205 8.14453 60.36 7.73438C60.7994 7.32422 61.3268 7.11914 61.942 7.11914C62.5475 7.11914 63.0699 7.32422 63.5094 7.73438C63.9488 8.14453 64.1686 8.6377 64.1686 9.21387C64.1686 9.7998 63.9488 10.2979 63.5094 10.708C63.0699 11.1182 62.5475 11.3232 61.942 11.3232ZM66.1174 30V13.623H69.8527V16.377H70.0285C70.3215 15.4199 70.8342 14.6875 71.5666 14.1797C72.299 13.6621 73.134 13.4033 74.0715 13.4033C74.2766 13.4033 74.5109 13.4131 74.7746 13.4326C75.048 13.4521 75.2727 13.4766 75.4484 13.5059V17.0508C75.2824 16.9922 75.0236 16.9434 74.6721 16.9043C74.3205 16.8652 73.9836 16.8457 73.6613 16.8457C72.9484 16.8457 72.3137 16.9971 71.757 17.2998C71.2004 17.6025 70.7609 18.0176 70.4387 18.5449C70.1262 19.0723 69.9699 19.6875 69.9699 20.3906V30H66.1174ZM82.8758 30.3223C81.2352 30.3223 79.8191 29.9805 78.6277 29.2969C77.4363 28.6035 76.5184 27.627 75.8738 26.3672C75.2391 25.1074 74.9217 23.623 74.9217 21.9141C74.9217 20.2246 75.2391 18.7451 75.8738 17.4756C76.5086 16.1963 77.4021 15.2002 78.5545 14.4873C79.7068 13.7744 81.0643 13.418 82.6268 13.418C83.6326 13.418 84.5848 13.5791 85.4832 13.9014C86.3914 14.2236 87.1922 14.7217 87.8855 15.3955C88.5887 16.0693 89.1404 16.9287 89.5408 17.9736C89.9412 19.0088 90.1414 20.2441 90.1414 21.6797V22.8809H76.7234V20.2881H88.2225L86.4207 21.0498C86.4207 20.1221 86.2791 19.3164 85.9959 18.6328C85.7127 17.9395 85.2928 17.3975 84.7361 17.0068C84.1795 16.6162 83.4861 16.4209 82.6561 16.4209C81.826 16.4209 81.118 16.6162 80.532 17.0068C79.9461 17.3975 79.5018 17.9248 79.199 18.5889C78.8963 19.2432 78.7449 19.9756 78.7449 20.7861V22.5879C78.7449 23.584 78.9158 24.4385 79.2576 25.1514C79.6092 25.8545 80.0975 26.3916 80.7225 26.7627C81.3572 27.1338 82.0945 27.3193 82.9344 27.3193C83.4813 27.3193 83.9793 27.2412 84.4285 27.085C84.8875 26.9287 85.2781 26.6943 85.6004 26.3818C85.9324 26.0596 86.1863 25.6641 86.3621 25.1953L89.9656 25.6201C89.7313 26.5674 89.2967 27.3975 88.6619 28.1104C88.0369 28.8135 87.2313 29.3604 86.2449 29.751C85.2684 30.1318 84.1453 30.3223 82.8758 30.3223ZM98.7699 30.3223C97.1684 30.3223 95.7816 29.9707 94.6098 29.2676C93.4379 28.5645 92.5297 27.5781 91.8852 26.3086C91.2504 25.0391 90.933 23.5645 90.933 21.8848C90.933 20.1953 91.2504 18.7158 91.8852 17.4463C92.5297 16.167 93.4379 15.1758 94.6098 14.4727C95.7816 13.7695 97.1684 13.418 98.7699 13.418C100.371 13.418 101.758 13.7695 102.93 14.4727C104.102 15.1758 105.01 16.167 105.655 17.4463C106.299 18.7158 106.621 20.1953 106.621 21.8848C106.621 23.5645 106.299 25.0391 105.655 26.3086C105.01 27.5781 104.102 28.5645 102.93 29.2676C101.758 29.9707 100.371 30.3223 98.7699 30.3223ZM98.7699 27.2168C99.6586 27.2168 100.391 26.9824 100.967 26.5137C101.543 26.0352 101.973 25.3906 102.256 24.5801C102.549 23.7695 102.696 22.8711 102.696 21.8848C102.696 20.8789 102.549 19.9707 102.256 19.1602C101.973 18.3496 101.543 17.71 100.967 17.2412C100.391 16.7627 99.6586 16.5234 98.7699 16.5234C97.9008 16.5234 97.1732 16.7627 96.5873 17.2412C96.0014 17.71 95.5619 18.3496 95.2689 19.1602C94.9857 19.9707 94.8441 20.8789 94.8441 21.8848C94.8441 22.8711 94.9857 23.7695 95.2689 24.5801C95.5619 25.3906 96.0014 26.0352 96.5873 26.5137C97.1732 26.9824 97.9008 27.2168 98.7699 27.2168ZM111.998 20.4199V30H108.146V13.623H111.925V16.4209H112.115C112.486 15.5029 113.067 14.7754 113.858 14.2383C114.659 13.6914 115.675 13.418 116.905 13.418C118.038 13.418 119.024 13.6572 119.864 14.1357C120.704 14.6143 121.354 15.3174 121.812 16.2451C122.281 17.1631 122.516 18.2764 122.516 19.585V30H118.663V20.1855C118.663 19.0918 118.38 18.2373 117.813 17.6221C117.247 16.9971 116.466 16.6846 115.47 16.6846C114.796 16.6846 114.195 16.8311 113.668 17.124C113.15 17.417 112.74 17.8418 112.438 18.3984C112.145 18.9453 111.998 19.6191 111.998 20.4199Z" fill="#101841"/>
</svg>
