<svg width="90" height="40" viewBox="0 0 90 40" fill="none" xmlns="http://www.w3.org/2000/svg">
<g clip-path="url(#clip0_4001_14515)">
<path fill-rule="evenodd" clip-rule="evenodd" d="M34.9466 24.0867V11.8001H31.8135L18.0246 30.7207H22.0141L31.7878 17.0142V30.7207H34.0954L43.8691 17.0142V30.7207H47.0228V11.8001H43.8897L34.9466 24.0867ZM54.5772 15.7545C50.1775 15.7545 46.8598 18.9965 46.8598 23.2967C46.8598 27.2517 50.3724 30.7147 54.3773 30.7147C56.4899 30.7147 58.454 29.9147 59.9051 28.4587C61.2691 27.0857 62.0691 25.2227 62.0947 23.3487C62.1152 21.3247 61.3717 19.4301 59.9872 18.026C58.5719 16.5805 56.5976 15.7545 54.5772 15.7545ZM54.408 27.8657C51.9774 27.8657 49.9211 25.7387 49.9211 23.2247C49.9211 20.7207 51.9979 18.6093 54.4593 18.6093C56.9874 18.6093 59.0437 20.6687 59.0437 23.1987C59.0385 25.8157 57.0027 27.8657 54.408 27.8657ZM64.9777 17.5614C65.9316 16.5805 67.2036 16.085 68.7727 16.085C72.3825 16.085 74.716 18.4958 74.716 22.2177V30.7047H71.6593V22.9617C71.6593 20.2147 70.6592 18.9398 68.5056 18.9398C66.4392 18.9398 65.1521 20.4727 65.1521 22.9357V30.7047H62.0959V16.4618H64.9777V17.5614ZM19.7322 25.5687H16.6658L16.594 25.6977C15.8709 27.0397 14.4608 27.8757 12.9173 27.8757C10.9944 27.8757 9.39448 26.6107 8.7586 24.6237H19.9578L19.9887 24.4117C20.0655 23.9217 20.0655 23.5137 20.0655 23.0847C20.0655 18.981 16.8504 15.7649 12.7429 15.7649C8.74834 15.7649 5.62035 19.1101 5.62035 23.3847C5.62035 24.9387 6.15364 26.4817 7.12794 27.7777H3.95892V10.1269L0.805269 10.132L0.800781 28.1367C0.800427 29.5577 1.95258 30.7097 3.37395 30.7097H12.7173C13.5224 30.7097 14.3223 30.6017 15.0863 30.3437C17.1324 29.6467 18.7938 28.0717 19.604 25.9037L19.7322 25.5687ZM12.8147 18.6197C14.8915 18.6197 16.6709 20.1477 16.9734 22.1457H8.70734C9.03553 19.9619 11.0507 18.6197 12.8147 18.6197ZM87.1725 14.7427V9.27734H90.0032V23.6687H89.9879C89.7668 27.1687 86.8851 30.6997 82.2858 30.6997C78.2806 30.6997 74.7678 27.2357 74.7678 23.2817C74.7678 18.981 78.0861 15.739 82.4853 15.739C84.1932 15.739 85.8342 16.3121 87.1725 17.3652V14.7427ZM77.8294 23.2087C77.8294 25.7227 79.8853 27.8497 82.3165 27.8497C84.9108 27.8497 86.9465 25.8007 86.9521 23.1837C86.9521 20.6537 84.8955 18.5939 82.3674 18.5939C79.9063 18.5939 77.8294 20.7057 77.8294 23.2087Z" fill="#06050B"/>
</g>
<defs>
<clipPath id="clip0_4001_14515">
<rect width="90" height="40" fill="white"/>
</clipPath>
</defs>
</svg>
