<svg width="154" height="40" viewBox="0 0 154 40" fill="none" xmlns="http://www.w3.org/2000/svg">
<g clip-path="url(#clip0_4001_14490)">
<path fill-rule="evenodd" clip-rule="evenodd" d="M25.5214 20.4438V20.4464C25.5262 23.9313 25.5316 27.8812 22.9756 30.4511C20.4319 33.0119 16.5145 33.0053 13.0504 32.9994H13.0473C12.8844 32.9992 12.7224 32.9989 12.5617 32.9989L12.1166 32.9993C8.64187 33.0041 4.70339 33.0095 2.1394 30.4461C-0.412218 27.8934 -0.405643 23.9646 -0.399831 20.4904L-0.399283 20C-0.399283 19.8558 -0.399471 19.7107 -0.39966 19.5648C-0.4042 16.0772 -0.409347 12.1215 2.14776 9.54717C4.69139 6.98807 8.60864 6.99467 12.0713 7.00057C12.2353 7.00077 12.3982 7.00107 12.56 7.00107C12.7037 7.00107 12.8484 7.00087 12.994 7.00067C16.4715 6.99617 20.4172 6.99097 22.9823 9.55557C25.5356 12.1068 25.529 16.0356 25.5232 19.5084V19.5115C25.5229 19.6749 25.5227 19.8372 25.5227 19.9983L25.521 20C25.521 20.147 25.5212 20.295 25.5214 20.4438ZM5.73165 12.9715H14.0216C14.1999 12.9651 14.3776 12.9948 14.5441 13.0589C14.7106 13.1229 14.8626 13.2199 14.9909 13.3441C15.1192 13.4683 15.2213 13.6172 15.291 13.7818C15.3607 13.9465 15.3966 14.1235 15.3966 14.3024C15.3966 14.4813 15.3607 14.6583 15.291 14.8229C15.2213 14.9876 15.1192 15.1364 14.9909 15.2606C14.8626 15.3849 14.7106 15.4819 14.5441 15.5459C14.3776 15.6099 14.1999 15.6397 14.0216 15.6333H5.73165C5.55342 15.6397 5.37574 15.6099 5.20921 15.5459C5.04269 15.4819 4.89072 15.3849 4.7624 15.2606C4.63407 15.1364 4.53201 14.9876 4.4623 14.8229C4.39259 14.6583 4.35666 14.4813 4.35666 14.3024C4.35666 14.1235 4.39259 13.9465 4.4623 13.7818C4.53201 13.6172 4.63407 13.4683 4.7624 13.3441C4.89072 13.2199 5.04269 13.1229 5.20921 13.0589C5.37574 12.9948 5.55342 12.9651 5.73165 12.9715ZM7.50866 18.8227C7.75768 18.573 8.09543 18.4327 8.4476 18.4327H16.7376C17.0898 18.4327 17.4275 18.573 17.6765 18.8227C17.9256 19.0725 18.0655 19.4112 18.0655 19.7644C18.0655 20.1176 17.9256 20.4564 17.6765 20.7061C17.4275 20.9559 17.0898 21.0962 16.7376 21.0962H8.4476C8.09543 21.0962 7.75768 20.9559 7.50866 20.7061C7.25963 20.4564 7.11973 20.1176 7.11973 19.7644C7.11973 19.4112 7.25963 19.0725 7.50866 18.8227ZM11.1619 23.8989H14.0216C14.1999 23.8926 14.3776 23.9223 14.5441 23.9863C14.7106 24.0504 14.8626 24.1474 14.9909 24.2716C15.1192 24.3958 15.2213 24.5447 15.291 24.7093C15.3607 24.8739 15.3966 25.051 15.3966 25.2298C15.3966 25.4087 15.3607 25.5857 15.291 25.7504C15.2213 25.915 15.1192 26.0639 14.9909 26.1881C14.8626 26.3123 14.7106 26.4093 14.5441 26.4734C14.3776 26.5374 14.1999 26.5671 14.0216 26.5608H11.1619C10.8181 26.5485 10.4924 26.4029 10.2535 26.1547C10.0146 25.9064 9.88111 25.5749 9.88111 25.2298C9.88111 24.8848 10.0146 24.5533 10.2535 24.305C10.4924 24.0567 10.8181 23.9112 11.1619 23.8989ZM20.3306 13.3599C20.5796 13.6096 20.7195 13.9483 20.7195 14.3015C20.7195 14.6548 20.5796 14.9935 20.3306 15.2432C20.0816 15.493 19.7438 15.6333 19.3917 15.6333C19.0395 15.6333 18.7017 15.493 18.4527 15.2432C18.2037 14.9935 18.0638 14.6548 18.0638 14.3015C18.0638 13.9483 18.2037 13.6096 18.4527 13.3599C18.7017 13.1101 19.0395 12.9698 19.3917 12.9698C19.7438 12.9698 20.0816 13.1101 20.3306 13.3599Z" fill="#06050B"/>
<path d="M35.4316 11.373V28.6255H47.2938V25.1854H39.442V11.373H35.4316Z" fill="#06050B"/>
<path d="M49.6802 28.0452C50.0682 28.431 50.6 28.6256 51.2272 28.6256C51.856 28.6256 52.3644 28.4327 52.7741 28.0452C52.9725 27.8451 53.1281 27.6066 53.2316 27.3442C53.3351 27.0818 53.3843 26.801 53.3762 26.5189C53.3762 25.9117 53.1588 25.4035 52.7741 25.0161C52.3588 24.6167 51.8024 24.399 51.2272 24.4106C50.5983 24.4106 50.0682 24.6286 49.6802 25.0144C49.2705 25.4035 49.0781 25.9117 49.0781 26.5172C49.0781 27.1479 49.2705 27.6578 49.6802 28.0436V28.0452Z" fill="#06050B"/>
<path d="M49.4414 16.2188V28.6255H53.0169V16.2188H49.4414Z" fill="#06050B"/>
<path d="M54.6484 16.2188L58.9498 28.6255H64.1208L68.4205 16.2188H64.676L61.6557 25.6954H61.4149L58.418 16.2188H54.6484Z" fill="#06050B"/>
<path fill-rule="evenodd" clip-rule="evenodd" d="M72.2491 27.8005C73.2877 28.359 74.4717 28.6257 75.8013 28.6257C77.2981 28.6257 78.6025 28.3104 79.7147 27.6797C80.8268 27.0507 81.576 26.1534 81.9623 25.038L78.9186 24.2631C78.6485 24.7798 78.2372 25.2086 77.7329 25.4992C77.1906 25.8148 76.5719 25.9739 75.9451 25.9588C75.0755 25.9588 74.3262 25.7173 73.7476 25.1839C73.1673 24.6757 72.8044 23.9729 72.6606 23.0756H82.3721C82.3972 22.9062 82.4223 22.5422 82.4223 21.9854C82.4223 20.7006 82.1313 19.5617 81.576 18.5687C81.0252 17.5959 80.2127 16.7979 79.2313 16.2658C78.1647 15.7108 76.9778 15.4285 75.7762 15.444C74.4483 15.444 73.2643 15.7325 72.2475 16.2658C71.2428 16.7791 70.405 17.5693 69.8326 18.5436C69.2522 19.5382 68.9629 20.6771 68.9629 21.9367C68.9629 23.245 69.2522 24.409 69.8326 25.4254C70.3942 26.4333 71.2331 27.2577 72.2491 27.8005ZM72.6338 20.8465C72.781 20.0229 73.1188 19.3436 73.6506 18.8589C74.1824 18.3742 74.8581 18.1075 75.6792 18.1075C76.502 18.1075 77.1777 18.3759 77.758 18.8841C78.3164 19.3978 78.676 20.0928 78.7731 20.8465H72.6338Z" fill="#06050B"/>
<path d="M85.6837 27.4118C86.7223 28.2353 88.1722 28.6244 90.0085 28.6244C91.8197 28.6244 93.2462 28.2604 94.2848 27.5089C95.3233 26.781 95.8568 25.7395 95.8568 24.4061C95.8568 23.4869 95.5892 22.7842 95.1059 22.2508C94.6169 21.7178 93.9898 21.3316 93.2947 21.1353C92.4804 20.8981 91.6481 20.7282 90.8062 20.6272C89.9366 20.5299 89.3077 20.4577 88.9448 20.3839C88.5988 20.3405 88.2678 20.2165 87.9782 20.0217C87.6889 19.8271 87.5685 19.5603 87.5685 19.1964C87.5685 18.7603 87.7608 18.3981 88.1705 18.1314C88.5585 17.863 89.0903 17.7188 89.766 17.7188C90.4918 17.7188 91.0704 17.8882 91.5053 18.227C91.7133 18.3776 91.8846 18.5736 92.0063 18.8002C92.128 19.0268 92.1968 19.2781 92.2077 19.5353H95.4688C95.4688 18.7134 95.228 17.9619 94.7447 17.3312C94.2168 16.6603 93.5141 16.1489 92.7144 15.8537C91.8448 15.5132 90.8547 15.3438 89.766 15.3438C88.0986 15.3438 86.7707 15.7312 85.7556 16.4843C84.7405 17.234 84.2572 18.2286 84.2572 19.4865C84.2572 20.4812 84.5247 21.2327 85.0549 21.7661C85.5657 22.2915 86.2089 22.6683 86.9162 22.8563C87.7883 23.0762 88.6772 23.2221 89.5737 23.2924C90.5152 23.3897 91.2159 23.5339 91.6759 23.705C92.1107 23.8727 92.3515 24.2132 92.3515 24.7214C92.3515 25.2078 92.1341 25.5701 91.7244 25.8368C91.3129 26.127 90.7811 26.2494 90.1055 26.2494C89.2358 26.2494 88.5334 26.0548 88.0267 25.6439C87.52 25.2548 87.2775 24.7214 87.2775 24.0438H84.1133C84.1133 25.4728 84.6201 26.5882 85.6837 27.4118Z" fill="#06050B"/>
<path d="M100.171 27.4124C100.895 28.236 101.885 28.6251 103.142 28.6251C103.555 28.6251 103.966 28.5926 104.373 28.5278C104.808 28.454 105.219 28.3584 105.557 28.236V25.668C105.139 25.7763 104.71 25.8331 104.278 25.8375C103.77 25.8375 103.358 25.6932 103.069 25.3779C102.779 25.0626 102.634 24.6265 102.634 24.0931V18.4474H105.462V15.8308H102.636L102.661 11.9043H99.8575L99.1549 15.8292H97.3203V18.4457H99.0596V24.239C99.0596 25.5473 99.4225 26.614 100.171 27.4124Z" fill="#06050B"/>
<path fill-rule="evenodd" clip-rule="evenodd" d="M110.168 27.825C111.182 28.3584 112.391 28.6251 113.767 28.6251C115.122 28.6251 116.304 28.3567 117.343 27.825C118.355 27.3098 119.195 26.5094 119.76 25.5221C120.34 24.5292 120.629 23.3652 120.629 22.0334C120.629 20.7251 120.34 19.5611 119.76 18.5681C119.195 17.5809 118.355 16.7805 117.343 16.2652C116.306 15.7319 115.12 15.4434 113.767 15.4434C112.391 15.4434 111.182 15.7319 110.168 16.2652C109.156 16.7805 108.317 17.5809 107.752 18.5681C107.171 19.5611 106.906 20.7251 106.906 22.0334C106.906 23.3652 107.171 24.5292 107.752 25.5221C108.317 26.5094 109.156 27.3097 110.168 27.825ZM116.112 24.5778C115.483 25.2554 114.711 25.5708 113.767 25.5708C112.801 25.5708 112.005 25.2554 111.399 24.5778C110.772 23.9237 110.481 23.075 110.481 22.0334C110.481 21.0153 110.772 20.1666 111.401 19.5124C112.003 18.8583 112.801 18.5195 113.767 18.5195C114.711 18.5195 115.483 18.8583 116.112 19.5124C116.714 20.1666 117.03 21.0153 117.03 22.0334C117.03 23.075 116.716 23.9237 116.11 24.5778H116.112Z" fill="#06050B"/>
<path d="M122.799 16.2182V28.625H126.374V22.2765C126.374 21.3322 126.615 20.5556 127.099 19.9501C127.327 19.6632 127.618 19.4331 127.949 19.2777C128.28 19.1223 128.643 19.0459 129.008 19.0544C129.274 19.0544 129.589 19.1031 129.975 19.1752C130.36 19.2725 130.699 19.3681 131.037 19.514V16.292C130.598 16.088 130.12 15.9804 129.636 15.9766C128.994 15.9818 128.367 16.1666 127.824 16.51C127.286 16.8488 126.858 17.3371 126.592 17.9156H126.326V16.2182H122.799Z" fill="#06050B"/>
<path d="M132.918 16.2178V28.6246H136.494V21.5498C136.494 20.7732 136.688 20.1191 137.123 19.6344C137.534 19.1496 138.089 18.9081 138.813 18.9081C139.491 18.9081 140.022 19.1496 140.432 19.6344C140.82 20.1208 141.038 20.7497 141.038 21.5498V28.6246H144.637V21.5498C144.637 20.7732 144.854 20.1443 145.289 19.6595C145.503 19.417 145.768 19.2241 146.064 19.0944C146.361 18.9646 146.681 18.9011 147.005 18.9081C147.682 18.9316 148.237 19.1983 148.672 19.683C149.107 20.1694 149.324 20.7984 149.324 21.5498V28.6246H152.9V20.9426C152.906 20.0277 152.7 19.1237 152.298 18.3026C151.914 17.5637 151.337 16.9434 150.629 16.5079C149.905 16.0718 149.107 15.8538 148.214 15.8538C147.344 15.8538 146.57 16.0718 145.894 16.4844C145.224 16.8933 144.68 17.4802 144.322 18.1802H144.081C143.741 17.4763 143.204 16.8875 142.534 16.4861C141.863 16.0586 141.084 15.8317 140.288 15.832C139.514 15.832 138.813 16.05 138.186 16.4358C137.559 16.8344 137.05 17.3953 136.713 18.0594H136.47V16.2178H132.918Z" fill="#06050B"/>
</g>
<defs>
<clipPath id="clip0_4001_14490">
<rect width="154" height="40" fill="white"/>
</clipPath>
</defs>
</svg>
