<svg width="116" height="32" viewBox="0 0 116 32" fill="none" xmlns="http://www.w3.org/2000/svg">
<g clip-path="url(#clip0_4906_6600)">
<path d="M64.8418 23.7544V5.2168H68.2006V23.7544H64.8418Z" fill="#7B5DFF"/>
<path d="M36.4102 5.73047L43.5123 23.7553H46.2814L53.4606 5.73047H49.7429L44.9388 18.3856L40.1791 5.73047H36.4102Z" fill="#7B5DFF"/>
<path fill-rule="evenodd" clip-rule="evenodd" d="M53.9632 23.1662C54.9718 23.7303 56.0999 24.0123 57.3477 24.0123C58.5955 24.0123 59.7151 23.7303 60.7065 23.1662C61.715 22.5851 62.5098 21.8073 63.091 20.833C63.6721 19.8416 63.9627 18.7391 63.9627 17.5255C63.9627 16.3118 63.6721 15.2265 63.091 14.2693C62.5098 13.2949 61.715 12.5257 60.7065 11.9616C59.7151 11.3805 58.5869 11.0898 57.3221 11.0898C56.0914 11.0898 54.9718 11.3805 53.9632 11.9616C52.9547 12.5257 52.1599 13.2949 51.5787 14.2693C50.9976 15.2265 50.707 16.3118 50.707 17.5255C50.707 18.7391 50.9976 19.8416 51.5787 20.833C52.177 21.8073 52.9718 22.5851 53.9632 23.1662ZM58.9886 20.4741C58.51 20.7476 57.9545 20.8843 57.3221 20.8843C56.7067 20.8843 56.1597 20.7476 55.6811 20.4741C55.2025 20.1835 54.8264 19.7903 54.553 19.2946C54.2795 18.7818 54.1428 18.2007 54.1428 17.5511C54.1428 16.9016 54.2795 16.329 54.553 15.8332C54.8264 15.3375 55.2025 14.953 55.6811 14.6795C56.1597 14.3888 56.7067 14.2436 57.3221 14.2436C57.9545 14.2436 58.51 14.3888 58.9886 14.6795C59.4672 14.953 59.8432 15.3375 60.1167 15.8332C60.3902 16.329 60.527 16.9016 60.527 17.5511C60.527 18.2007 60.3902 18.7818 60.1167 19.2946C59.8604 19.7903 59.4843 20.1835 58.9886 20.4741Z" fill="#7B5DFF"/>
<path d="M72.2547 23.3191C73.1094 23.7807 74.0837 24.0114 75.1776 24.0114C76.2716 24.0114 77.2374 23.7892 78.0749 23.3449C78.9296 22.8833 79.5877 22.2423 80.0492 21.4219C80.5278 20.6014 80.7671 19.6442 80.7671 18.5502V11.3711H77.4083V18.4733C77.4083 19.2425 77.2118 19.8407 76.8186 20.2681C76.4254 20.6954 75.8784 20.909 75.1776 20.909C74.7161 20.909 74.3144 20.815 73.9725 20.627C73.6307 20.4389 73.3743 20.1654 73.2034 19.8065C73.0325 19.4305 72.947 18.986 72.947 18.4733V11.3711H69.5625V18.5502C69.5625 19.6271 69.8019 20.5757 70.2805 21.3962C70.7591 22.2166 71.4171 22.8577 72.2547 23.3191Z" fill="#7B5DFF"/>
<path d="M82.1582 23.7557V11.3717H85.517V12.4461C85.8175 12.1528 86.1594 11.9057 86.5426 11.7049C87.2606 11.3118 88.0724 11.1152 88.9785 11.1152C89.8331 11.1152 90.6108 11.3118 91.3117 11.7049C91.899 12.0201 92.3842 12.4492 92.7675 12.9925C93.1818 12.4638 93.6879 12.0431 94.2859 11.7306C95.038 11.3204 95.8755 11.1152 96.7985 11.1152C97.7216 11.1152 98.5506 11.3118 99.2857 11.7049C100.021 12.081 100.602 12.628 101.029 13.3458C101.456 14.0638 101.67 14.9184 101.67 15.9099V23.7557H98.3113V16.4482C98.3113 15.7304 98.0805 15.1749 97.619 14.7817C97.1746 14.3714 96.6191 14.1663 95.9524 14.1663C95.5251 14.1663 95.1234 14.2604 94.7473 14.4484C94.3884 14.6193 94.1064 14.8757 93.9012 15.2175C93.6961 15.5594 93.5936 15.9696 93.5936 16.4482V23.7557H90.2348V16.4482C90.2348 15.7304 90.004 15.1749 89.5425 14.7817C89.098 14.3714 88.5425 14.1663 87.876 14.1663C87.4315 14.1663 87.0298 14.2604 86.6708 14.4484C86.3119 14.6193 86.0299 14.8757 85.8248 15.2175C85.6196 15.5594 85.517 15.9696 85.517 16.4482V23.7557H82.1582Z" fill="#7B5DFF"/>
<path fill-rule="evenodd" clip-rule="evenodd" d="M105.573 23.1918C106.581 23.7388 107.735 24.0123 109.034 24.0123C110.042 24.0123 110.975 23.8329 111.829 23.474C112.701 23.1149 113.436 22.5851 114.034 21.8842L112.06 19.91C111.684 20.3373 111.239 20.6621 110.726 20.8843C110.214 21.0894 109.641 21.1919 109.009 21.1919C108.308 21.1919 107.693 21.0466 107.162 20.7561C106.633 20.4485 106.222 20.021 105.932 19.4741C105.823 19.2487 105.735 19.0082 105.67 18.7529L114.726 18.7306C114.794 18.4399 114.837 18.1836 114.854 17.9613C114.888 17.7221 114.905 17.4913 114.905 17.269C114.905 16.0896 114.641 15.0384 114.111 14.1153C113.598 13.1753 112.88 12.4402 111.957 11.9103C111.052 11.3633 110 11.0898 108.803 11.0898C107.59 11.0898 106.487 11.3805 105.496 11.9616C104.505 12.5257 103.718 13.2949 103.137 14.2693C102.573 15.2265 102.291 16.3204 102.291 17.5511C102.291 18.799 102.582 19.91 103.163 20.8843C103.761 21.8586 104.564 22.6278 105.573 23.1918ZM105.672 16.2396C105.733 16.0128 105.81 15.8006 105.906 15.6025C106.18 15.0555 106.564 14.6367 107.06 14.3462C107.556 14.0384 108.137 13.8846 108.803 13.8846C109.436 13.8846 109.966 14.0214 110.393 14.2949C110.837 14.5513 111.171 14.9273 111.393 15.423C111.508 15.6617 111.6 15.928 111.667 16.2222L105.672 16.2396Z" fill="#7B5DFF"/>
<path fill-rule="evenodd" clip-rule="evenodd" d="M15.7687 31.2015C24.3848 31.2015 31.3694 24.2167 31.3694 15.6007C31.3694 6.98468 24.3848 0 15.7687 0C7.15265 0 0.167969 6.98468 0.167969 15.6007C0.167969 24.2167 7.15265 31.2015 15.7687 31.2015ZM22.2297 6.05186C22.4149 6.20845 22.5214 6.43862 22.5214 6.68112L22.5211 9.81544L22.5214 10.0217L22.5211 10.0463V20.5383C22.5211 22.3605 21.044 23.8375 19.2218 23.8375C17.3996 23.8375 15.9226 22.3605 15.9226 20.5383C15.9226 18.7162 17.3996 17.2389 19.2218 17.2389C19.8228 17.2389 20.3861 17.3997 20.8714 17.6804V10.9953L12.623 12.3703V22.1879C12.623 24.0101 11.1458 25.4873 9.32372 25.4873C7.50156 25.4873 6.02447 24.0101 6.02447 22.1879C6.02447 20.3658 7.50156 18.8885 9.32372 18.8885C9.92471 18.8885 10.4884 19.0493 10.9734 19.33L10.9737 11.6714L10.9734 11.4651L10.9737 11.4404V8.33074C10.9737 7.92767 11.2651 7.5835 11.6632 7.51716L21.5609 5.86754C21.8001 5.82767 22.0447 5.89509 22.2297 6.05186Z" fill="#7B5DFF"/>
</g>
<defs>
<clipPath id="clip0_4906_6600">
<rect width="115.2" height="32" fill="white"/>
</clipPath>
</defs>
</svg>
