<svg width="150" height="40" viewBox="0 0 150 40" fill="none" xmlns="http://www.w3.org/2000/svg">
<path d="M9.82354 6.19727L0.492188 19.8645V33.8042H14.3999L23.551 19.8645V6.19727H9.82354Z" fill="#101841"/>
<path d="M32.8841 6.19727L23.5527 19.8645V33.8042H37.4605L46.6115 19.8645V6.19727H32.8841Z" fill="#101841"/>
<path d="M55.0527 30V8.17383H59.0078V26.6895H68.6318V30H55.0527ZM70.1412 30V13.623H73.9937V30H70.1412ZM72.0748 11.3232C71.4596 11.3232 70.9322 11.1182 70.4928 10.708C70.0533 10.2979 69.8336 9.80469 69.8336 9.22852C69.8336 8.64258 70.0533 8.14453 70.4928 7.73438C70.9322 7.32422 71.4596 7.11914 72.0748 7.11914C72.6803 7.11914 73.2027 7.32422 73.6422 7.73438C74.0816 8.14453 74.3014 8.6377 74.3014 9.21387C74.3014 9.7998 74.0816 10.2979 73.6422 10.708C73.2027 11.1182 72.6803 11.3232 72.0748 11.3232ZM80.1027 20.4199V30H76.2502V13.623H80.0295V16.4209H80.2199C80.591 15.5029 81.1721 14.7754 81.9631 14.2383C82.7639 13.6914 83.7795 13.418 85.01 13.418C86.1428 13.418 87.1291 13.6572 87.9689 14.1357C88.8088 14.6143 89.4582 15.3174 89.9172 16.2451C90.3859 17.1631 90.6203 18.2764 90.6203 19.585V30H86.7678V20.1855C86.7678 19.0918 86.4846 18.2373 85.9182 17.6221C85.3518 16.9971 84.5705 16.6846 83.5744 16.6846C82.9006 16.6846 82.3 16.8311 81.7727 17.124C81.2551 17.417 80.8449 17.8418 80.5422 18.3984C80.2492 18.9453 80.1027 19.6191 80.1027 20.4199ZM96.3924 24.873L96.3777 20.2002H97.0076L102.882 13.623H107.393L100.157 21.6943H99.3514L96.3924 24.873ZM92.8768 30V8.17383H96.7293V30H92.8768ZM103.145 30L97.8133 22.5586L100.421 19.834L107.76 30H103.145ZM114.674 30.3223C113.073 30.3223 111.686 29.9707 110.514 29.2676C109.342 28.5645 108.434 27.5781 107.789 26.3086C107.155 25.0391 106.837 23.5645 106.837 21.8848C106.837 20.1953 107.155 18.7158 107.789 17.4463C108.434 16.167 109.342 15.1758 110.514 14.4727C111.686 13.7695 113.073 13.418 114.674 13.418C116.276 13.418 117.662 13.7695 118.834 14.4727C120.006 15.1758 120.914 16.167 121.559 17.4463C122.204 18.7158 122.526 20.1953 122.526 21.8848C122.526 23.5645 122.204 25.0391 121.559 26.3086C120.914 27.5781 120.006 28.5645 118.834 29.2676C117.662 29.9707 116.276 30.3223 114.674 30.3223ZM114.674 27.2168C115.563 27.2168 116.295 26.9824 116.871 26.5137C117.448 26.0352 117.877 25.3906 118.161 24.5801C118.454 23.7695 118.6 22.8711 118.6 21.8848C118.6 20.8789 118.454 19.9707 118.161 19.1602C117.877 18.3496 117.448 17.71 116.871 17.2412C116.295 16.7627 115.563 16.5234 114.674 16.5234C113.805 16.5234 113.078 16.7627 112.492 17.2412C111.906 17.71 111.466 18.3496 111.173 19.1602C110.89 19.9707 110.748 20.8789 110.748 21.8848C110.748 22.8711 110.89 23.7695 111.173 24.5801C111.466 25.3906 111.906 26.0352 112.492 26.5137C113.078 26.9824 113.805 27.2168 114.674 27.2168ZM124.05 30V13.623H127.785V16.377H127.961C128.254 15.4199 128.767 14.6875 129.499 14.1797C130.231 13.6621 131.066 13.4033 132.004 13.4033C132.209 13.4033 132.443 13.4131 132.707 13.4326C132.98 13.4521 133.205 13.4766 133.381 13.5059V17.0508C133.215 16.9922 132.956 16.9434 132.604 16.9043C132.253 16.8652 131.916 16.8457 131.594 16.8457C130.881 16.8457 130.246 16.9971 129.689 17.2998C129.133 17.6025 128.693 18.0176 128.371 18.5449C128.059 19.0723 127.902 19.6875 127.902 20.3906V30H124.05ZM138.626 30.3369C137.581 30.3369 136.643 30.1514 135.813 29.7803C134.983 29.3994 134.329 28.8428 133.85 28.1104C133.372 27.3779 133.132 26.4746 133.132 25.4004C133.132 24.4824 133.303 23.7207 133.645 23.1152C133.987 22.5098 134.451 22.0264 135.037 21.665C135.632 21.3037 136.301 21.0303 137.044 20.8447C137.786 20.6494 138.552 20.5127 139.343 20.4346C140.31 20.3271 141.091 20.2344 141.687 20.1562C142.283 20.0781 142.713 19.9512 142.976 19.7754C143.25 19.5996 143.386 19.3262 143.386 18.9551V18.8818C143.386 18.0908 143.152 17.4756 142.683 17.0361C142.214 16.5967 141.531 16.377 140.632 16.377C139.685 16.377 138.933 16.582 138.377 16.9922C137.83 17.4023 137.459 17.8857 137.263 18.4424L133.674 17.9297C133.958 16.9336 134.426 16.1035 135.081 15.4395C135.735 14.7656 136.531 14.2627 137.468 13.9307C138.416 13.5889 139.461 13.418 140.603 13.418C141.384 13.418 142.166 13.5107 142.947 13.6963C143.728 13.8721 144.446 14.1748 145.1 14.6045C145.754 15.0342 146.277 15.6104 146.668 16.333C147.058 17.0557 147.254 17.959 147.254 19.043V30H143.547V27.7441H143.43C143.196 28.1934 142.864 28.6182 142.434 29.0186C142.014 29.4092 141.487 29.7266 140.852 29.9707C140.227 30.2148 139.485 30.3369 138.626 30.3369ZM139.607 27.4951C140.388 27.4951 141.062 27.3438 141.629 27.041C142.195 26.7285 142.634 26.3184 142.947 25.8105C143.259 25.293 143.416 24.7314 143.416 24.126V22.207C143.289 22.3047 143.084 22.3975 142.8 22.4854C142.517 22.5635 142.195 22.6367 141.834 22.7051C141.472 22.7734 141.116 22.832 140.764 22.8809C140.422 22.9297 140.125 22.9688 139.871 22.998C139.295 23.0762 138.777 23.208 138.318 23.3936C137.869 23.5693 137.512 23.8135 137.249 24.126C136.985 24.4385 136.853 24.8438 136.853 25.3418C136.853 26.0547 137.112 26.5918 137.629 26.9531C138.147 27.3145 138.806 27.4951 139.607 27.4951Z" fill="#101841"/>
</svg>
