<svg width="52" height="52" viewBox="0 0 52 52" fill="none" xmlns="http://www.w3.org/2000/svg">
<g clip-path="url(#clip0_4906_3310)">
<path d="M34.5217 26.6678C30.2531 26.6678 26.6795 30.1421 26.6795 34.5096V50.8886C26.6795 51.3273 26.324 51.683 25.8854 51.683C25.4468 51.683 25.0912 51.3273 25.0912 50.8886V34.5096C25.0912 30.1421 21.5177 26.6678 17.1499 26.6678H0.870301C0.431715 26.6678 0.0761719 26.3122 0.0761719 25.8736C0.0761719 25.4351 0.431715 25.0795 0.870301 25.0795H17.1499C21.5177 24.9802 25.0912 21.5059 24.992 17.1382V0.908216C24.992 0.44222 25.3697 0.0644531 25.8357 0.0644531C26.3017 0.0644531 26.6795 0.44222 26.6795 0.908216V17.1382C26.6795 21.5059 30.2531 24.9802 34.5217 24.9802H50.8507C51.3167 24.9802 51.6947 25.358 51.6947 25.824C51.6947 26.29 51.3167 26.6678 50.8507 26.6678H34.5217Z" fill="white"/>
</g>
<defs>
<clipPath id="clip0_4906_3310">
<rect width="52" height="52" fill="white"/>
</clipPath>
</defs>
</svg>
