<svg width="64" height="64" viewBox="0 0 64 64" fill="none" xmlns="http://www.w3.org/2000/svg">
<g clip-path="url(#clip0_4001_8019)">
<path d="M39.338 18.688C39.338 19.991 39.546 21.9569 36.47 23.071C35.518 23.416 34.875 24.0369 34.875 24.0369C34.875 20.937 35.347 19.815 36.615 19.151C37.59 18.64 39.338 18.688 39.338 18.688ZM27.758 22.242L24.334 35.5079L21.486 24.6509C20.717 21.4519 19.405 19.798 16.643 19.798C13.906 19.798 12.577 21.416 11.8 24.6509L8.952 35.5079L5.528 22.242C4.973 19.57 2.38599 18.415 0 18.7149L6.557 43.5079C6.557 43.5079 8.72 43.664 9.803 43.112C11.225 42.3869 11.901 41.8279 12.762 38.455C13.529 35.448 15.673 26.614 15.874 25.985C16.35 24.4909 16.983 24.6039 17.414 25.985C17.611 26.615 19.759 35.448 20.526 38.455C21.386 41.8279 22.063 42.3869 23.485 43.112C24.567 43.664 26.731 43.5079 26.731 43.5079L33.288 18.7149C30.846 18.408 28.306 19.608 27.758 22.242ZM39.336 22.7629C39.336 22.7629 38.926 23.3969 37.99 23.92C37.389 24.256 36.8119 24.4839 36.193 24.7809C34.679 25.5069 34.875 26.176 34.875 28.3009V43.5079C34.875 43.5079 36.53 43.7169 37.6119 43.1649C39.005 42.455 39.325 41.77 39.338 38.687V23.6599L39.336 23.6609V22.7629ZM55.68 31.1709L64 18.7969C64 18.7969 60.489 18.199 58.75 19.782C57.4199 20.992 56.309 22.737 53.3319 27.0289C53.285 27.102 52.707 28.0829 52.025 27.0289C49.096 22.806 47.945 21 46.607 19.782C44.8679 18.199 41.357 18.7969 41.357 18.7969L49.677 31.1709L41.3799 43.5069C41.3799 43.5069 45.037 43.969 46.775 42.386C47.9239 41.3399 48.533 40.3489 52.026 35.314C52.707 34.262 53.283 35.2369 53.333 35.314C56.273 39.552 57.256 41.12 58.647 42.386C60.386 43.969 63.979 43.5069 63.979 43.5069L55.68 31.1709Z" fill="#06050B"/>
</g>
<defs>
<clipPath id="clip0_4001_8019">
<rect width="64" height="64" fill="white"/>
</clipPath>
</defs>
</svg>
